<svg id="b221fd22-517e-411b-bca3-f48c904d6c02" data-name=" ÎÓÈ 1" xmlns="http://www.w3.org/2000/svg" xmlns:xlink="http://www.w3.org/1999/xlink" viewBox="0 0 3735.89 2685.82"><defs><linearGradient id="f88e208c-c57b-423c-a979-f2adbef77565" x1="9524.55" y1="6869.09" x2="8867.49" y2="6626.06" gradientTransform="matrix(1, 0, 0, -1, -471.33, -145.45)" gradientUnits="userSpaceOnUse"><stop offset="0" stop-color="#bcbf82"/><stop offset="1" stop-color="#5ea88f"/></linearGradient><linearGradient id="e46fae0c-4607-4d45-890d-edfd1d458b10" x1="9516.48" y1="6562.61" x2="8997.5" y2="6264.12" gradientTransform="matrix(1, 0, 0, -1, -471.33, -145.45)" gradientUnits="userSpaceOnUse"><stop offset="0" stop-color="#5ea88f"/><stop offset="1" stop-color="#556d80"/></linearGradient><linearGradient id="f232443e-d9b9-4410-976a-a5ebab10fd83" x1="5592.94" y1="7251.4" x2="6694.05" y2="6555.33" xlink:href="#f88e208c-c57b-423c-a979-f2adbef77565"/><linearGradient id="b9ef19c6-c7ec-4b28-b0fb-255dc7e6107c" x1="-369.81" y1="2521.92" x2="-1573.83" y2="2521.92" gradientTransform="matrix(0, 1, 1, 0, 3502.8, -6239.96)" gradientUnits="userSpaceOnUse"><stop offset="0" stop-color="#fff"/><stop offset="1" stop-color="#fdf7e2"/></linearGradient><linearGradient id="bc7e8034-6e10-4573-86f8-460e15acaa3b" x1="7187.6" y1="7948.97" x2="6251.5" y2="6751.85" xlink:href="#e46fae0c-4607-4d45-890d-edfd1d458b10"/><linearGradient id="fd90a922-c40c-4976-a559-164ef4e6c133" x1="6699.06" y1="7439.44" x2="6487.06" y2="7057.44" gradientTransform="matrix(1, 0, 0, -1, -5742.65, 8531.55)" xlink:href="#e46fae0c-4607-4d45-890d-edfd1d458b10"/><linearGradient id="edf0b5d2-7b83-42a0-b376-7545b5bbaa5b" x1="-1369.6" y1="2527.65" x2="-608.68" y2="2527.65" gradientTransform="matrix(0.4, 0.92, 0.92, -0.4, -1178.13, 3356.27)" xlink:href="#e46fae0c-4607-4d45-890d-edfd1d458b10"/><linearGradient id="bb88cd80-35e6-4e2e-ab17-4d0bf214ea26" x1="-1325.13" y1="2524.02" x2="-564.21" y2="2524.02" gradientTransform="matrix(0.4, 0.92, 0.92, -0.4, -1178.78, 3355.88)" xlink:href="#e46fae0c-4607-4d45-890d-edfd1d458b10"/><linearGradient id="e235c675-d642-4c2f-91f6-885a5ce4eda8" x1="10919.29" y1="1143.52" x2="10722.43" y2="1143.52" gradientTransform="matrix(0.49, -0.87, -0.87, -0.49, 1756.32, 2779.57)" xlink:href="#b9ef19c6-c7ec-4b28-b0fb-255dc7e6107c"/><linearGradient id="b2caab55-49e4-48c8-a6a5-2ad43bbb9f2d" x1="-1081.15" y1="6272.94" x2="-2298.32" y2="6272.94" gradientTransform="matrix(0, 1, 1, 0, -313.52, -5192.17)" xlink:href="#b9ef19c6-c7ec-4b28-b0fb-255dc7e6107c"/><linearGradient id="ba8c2c4d-b043-4653-be35-9a3998551dbf" x1="6399.89" y1="7674.08" x2="6441.9" y2="6395.95" xlink:href="#e46fae0c-4607-4d45-890d-edfd1d458b10"/><linearGradient id="ee29a013-df4c-4abd-9144-a64ddf7154a7" x1="-1865.22" y1="6253.68" x2="-1506.04" y2="6253.68" gradientTransform="matrix(0.7, 0.72, 0.72, -0.7, -2636.29, 7377.81)" xlink:href="#e46fae0c-4607-4d45-890d-edfd1d458b10"/><linearGradient id="fb1dc2bc-552c-4f0c-87fa-8dada9f52959" x1="-2045.9" y1="6284.9" x2="-1276.67" y2="6284.9" gradientTransform="matrix(0.7, 0.71, 0.71, -0.7, -2636.29, 7377.8)" xlink:href="#e46fae0c-4607-4d45-890d-edfd1d458b10"/><linearGradient id="f9ce2851-c850-40bd-9612-d3451bea5c53" x1="-2091.86" y1="6278.91" x2="-1322.63" y2="6278.91" gradientTransform="matrix(0.7, 0.72, 0.72, -0.7, -2636.32, 7377.76)" xlink:href="#e46fae0c-4607-4d45-890d-edfd1d458b10"/><linearGradient id="a327f227-0937-4b84-8317-e11fb2db5099" x1="-3564.85" y1="2777.22" x2="-3746.21" y2="2777.22" gradientTransform="matrix(0.27, 0.96, 0.96, -0.27, 4287.75, -2607.09)" xlink:href="#b9ef19c6-c7ec-4b28-b0fb-255dc7e6107c"/><linearGradient id="b44e2927-85f9-4096-b8f8-5595d85b52d9" x1="6138.48" y1="7008.88" x2="6530.48" y2="6486.88" xlink:href="#f88e208c-c57b-423c-a979-f2adbef77565"/><linearGradient id="a0c94096-367e-442a-93ff-96c0606c9791" x1="6120.34" y1="6615.29" x2="6884.34" y2="5931.29" xlink:href="#f88e208c-c57b-423c-a979-f2adbef77565"/><linearGradient id="b3488ff4-5d8d-4122-8e25-32b42719c5f0" x1="8756.64" y1="6262.11" x2="10045.78" y2="6262.11" gradientTransform="matrix(1, 0, 0, -1, -471.33, -145.45)" gradientUnits="userSpaceOnUse"><stop offset="0" stop-color="#79bada"/><stop offset="1" stop-color="#555ea3"/></linearGradient><linearGradient id="a95fef48-43fb-4408-9628-ec0be54e3fb5" x1="8423.51" y1="6442.19" x2="9295.76" y2="6442.19" gradientTransform="matrix(0, 1, 1, 0, 1813.18, -15377.25)" gradientUnits="userSpaceOnUse"><stop offset="0" stop-color="#555ea3"/><stop offset="1" stop-color="#51537a"/></linearGradient><linearGradient id="aa09ddf4-64ae-4c8c-9518-a4522e7c9526" x1="8289.73" y1="6149.68" x2="9297.26" y2="6149.68" gradientTransform="matrix(0, 1, 1, 0, 2356.05, -15335.15)" gradientUnits="userSpaceOnUse"><stop offset="0.03" stop-color="#fdf7e2"/><stop offset="1" stop-color="#fce1aa"/></linearGradient><linearGradient id="b6438f39-9da9-4bd1-8086-42ce4222065c" x1="8289.73" y1="6149.68" x2="9297.26" y2="6149.68" gradientTransform="matrix(0, 1, 1, 0, 1948.28, -14927.77)" xlink:href="#aa09ddf4-64ae-4c8c-9518-a4522e7c9526"/><linearGradient id="f8aaa2f8-a19e-48c4-a6d2-ac527d57aff6" x1="8289.73" y1="6262.14" x2="9297.27" y2="6262.14" gradientTransform="matrix(0, 1, 1, 0, 1993.05, -15197.2)" xlink:href="#aa09ddf4-64ae-4c8c-9518-a4522e7c9526"/><linearGradient id="e43a58d6-100a-4200-a3e5-52d57dc0e559" x1="8154.42" y1="8367.83" x2="8828.53" y2="8370.7" gradientTransform="matrix(0.71, 0.71, 0.71, -0.71, -3923.5, -8549.06)" gradientUnits="userSpaceOnUse"><stop offset="0" stop-color="#e0eff6"/><stop offset="1" stop-color="#81abd0"/></linearGradient><linearGradient id="b4f8cc94-ca54-4f7f-bd9f-726bfcf54e53" x1="8389.41" y1="8366.36" x2="8601.58" y2="8345.25" gradientTransform="matrix(1, 0, 0, -1, -471.33, -145.45)" gradientUnits="userSpaceOnUse"><stop offset="0" stop-color="#fcce79"/><stop offset="1" stop-color="#e57f54"/></linearGradient><linearGradient id="bed32fb9-34a3-4ef0-bfa3-250a0d8d6804" x1="8354.26" y1="8397.6" x2="8362.17" y2="8397.6" gradientTransform="matrix(1, 0, 0, -1, -471.33, -145.45)" gradientUnits="userSpaceOnUse"><stop offset="0" stop-color="#e57f54"/><stop offset="1" stop-color="#d8513e"/></linearGradient><linearGradient id="ab6e196d-218c-4f6e-a598-e78f57475077" x1="8431.72" y1="8416.58" x2="8431.72" y2="8434.65" xlink:href="#bed32fb9-34a3-4ef0-bfa3-250a0d8d6804"/><linearGradient id="b5261f43-a5d3-464d-8b1c-a3a0ccef4baf" x1="7459.13" y1="8040.3" x2="8248.17" y2="8043.65" gradientTransform="matrix(1, 0, 0, -1, -5271.33, 8676)" xlink:href="#b4f8cc94-ca54-4f7f-bd9f-726bfcf54e53"/><linearGradient id="bfcca6aa-7586-461a-a3b5-742193546d66" x1="8436.42" y1="7935.51" x2="8445.21" y2="7998.72" xlink:href="#b4f8cc94-ca54-4f7f-bd9f-726bfcf54e53"/><linearGradient id="aa16d723-9d03-4a28-a108-437650e9ffb8" x1="8457.07" y1="7966.26" x2="8519.95" y2="7971.63" xlink:href="#b4f8cc94-ca54-4f7f-bd9f-726bfcf54e53"/><linearGradient id="abd365bf-6d4b-4738-a1bd-f4fb11f28a4d" x1="7805.29" y1="8016.87" x2="8115.98" y2="8016.87" gradientTransform="matrix(1, 0, 0, -1, -5271.33, 8676)" xlink:href="#aa09ddf4-64ae-4c8c-9518-a4522e7c9526"/><linearGradient id="b490f99b-c893-42d5-a4ce-48d7dbacbcb9" x1="7812.62" y1="8071.23" x2="8290.44" y2="8071.23" gradientTransform="matrix(1, 0, 0, -1, -5271.33, 8676)" gradientUnits="userSpaceOnUse"><stop offset="0" stop-color="#fce1aa"/><stop offset="1" stop-color="#fcce79"/></linearGradient><linearGradient id="f2741353-ac3f-4e22-be7c-c24e265a0282" x1="-2977.64" y1="-192.35" x2="-2331.76" y2="-192.35" gradientTransform="matrix(0, 1, 1, 0, 2914.5, 3561.68)" xlink:href="#b4f8cc94-ca54-4f7f-bd9f-726bfcf54e53"/><linearGradient id="beb09751-a2b4-47fe-9b7c-e9c8376bd8b1" x1="6994.12" y1="8113.41" x2="7537.94" y2="8115.73" gradientTransform="matrix(0.71, 0.71, 0.71, -0.71, -4053.09, -7728.29)" xlink:href="#bed32fb9-34a3-4ef0-bfa3-250a0d8d6804"/><linearGradient id="b03f4701-2bd9-40d2-a35d-995797ff8f8d" x1="7271.68" y1="8109.35" x2="7436.49" y2="8109.35" gradientTransform="matrix(1, 0, 0, -1, -471.33, -145.45)" xlink:href="#a95fef48-43fb-4408-9628-ec0be54e3fb5"/><linearGradient id="a6eb935c-33a0-457f-8040-dba0495bc84d" x1="7278.1" y1="8179.03" x2="8232.79" y2="8183.09" gradientTransform="matrix(0.71, 0.71, 0.71, -0.71, -3935.65, -8145.41)" xlink:href="#b490f99b-c893-42d5-a4ce-48d7dbacbcb9"/><linearGradient id="b885ae6f-ea06-4a2b-bfcf-55aede4096b3" x1="7494.26" y1="8413.03" x2="7550.13" y2="8413.26" gradientTransform="matrix(1, 0, 0, -1, -5271.33, 8676)" xlink:href="#a95fef48-43fb-4408-9628-ec0be54e3fb5"/><linearGradient id="b6aabada-6f0c-4b56-809d-2819cb0ca24a" x1="7522.95" y1="8261.14" x2="8115.7" y2="8263.66" xlink:href="#b3488ff4-5d8d-4122-8e25-32b42719c5f0"/><linearGradient id="b67ef3f6-6991-47fb-9053-716c06194f30" x1="7872.22" y1="8106.6" x2="7911.25" y2="8106.77" gradientTransform="matrix(0.16, 0.99, 0.99, -0.16, -1840.11, -14749.91)" xlink:href="#a95fef48-43fb-4408-9628-ec0be54e3fb5"/><linearGradient id="fab25f58-8991-439b-a964-4e88c497425e" x1="7819.03" y1="8170.89" x2="8029.91" y2="8171.79" gradientTransform="matrix(1, 0, 0, -1, -471.33, -145.45)" xlink:href="#a95fef48-43fb-4408-9628-ec0be54e3fb5"/><linearGradient id="b367f501-1675-4ae6-89af-5bbadf467b87" x1="7705.66" y1="7642.77" x2="8233.04" y2="7645.02" gradientTransform="matrix(0.71, 0.71, 0.71, -0.71, -3515.11, -8085.68)" xlink:href="#a95fef48-43fb-4408-9628-ec0be54e3fb5"/><linearGradient id="a8f78d8b-465e-44b0-9a4e-c0d23d11412e" x1="8036.04" y1="7630" x2="8111.36" y2="7630" gradientTransform="matrix(1, 0, 0, -1, -471.33, -145.45)" xlink:href="#a95fef48-43fb-4408-9628-ec0be54e3fb5"/><linearGradient id="a90479d8-7dda-43fe-94af-fb589f7d9878" x1="7514.04" y1="7817.73" x2="7677.18" y2="7817.73" gradientTransform="matrix(1, 0, 0, -1, -5271.33, 8676)" xlink:href="#b3488ff4-5d8d-4122-8e25-32b42719c5f0"/><linearGradient id="af627ccf-362f-456b-bad5-c09944df32be" x1="8085.66" y1="7623.37" x2="8084.89" y2="7674.95" gradientTransform="matrix(1, 0, 0, -1, -471.33, -145.45)" xlink:href="#e43a58d6-100a-4200-a3e5-52d57dc0e559"/><linearGradient id="b644e8f0-9fac-4c3d-9848-01a80c43d1b3" x1="8103.97" y1="7611.35" x2="8106.66" y2="7623.93" gradientTransform="matrix(1, 0, 0, -1, -471.33, -145.45)" xlink:href="#e43a58d6-100a-4200-a3e5-52d57dc0e559"/><linearGradient id="fcac4bc9-55e8-4a32-8e5b-7c11aab5d1f0" x1="8107.31" y1="7610.22" x2="8107.12" y2="7623.17" gradientTransform="matrix(1, 0, 0, -1, -471.33, -145.45)" xlink:href="#e43a58d6-100a-4200-a3e5-52d57dc0e559"/><linearGradient id="f5fc255e-5986-4ad1-9e5a-199b59bc8187" x1="8110.05" y1="7612.34" x2="8108.42" y2="7623.54" gradientTransform="matrix(1, 0, 0, -1, -471.33, -145.45)" xlink:href="#e43a58d6-100a-4200-a3e5-52d57dc0e559"/><linearGradient id="acd1d476-ef6d-4185-80ea-0189e64e7094" x1="7632.39" y1="7767.61" x2="7639.25" y2="7767.61" gradientTransform="matrix(1, 0, 0, -1, 0, -1)" xlink:href="#b3488ff4-5d8d-4122-8e25-32b42719c5f0"/><linearGradient id="a41b989e-8f63-44fd-9461-921104ae8536" x1="8069.39" y1="7670.3" x2="8055.82" y2="7676.46" gradientTransform="matrix(1, 0, 0, -1, -471.33, -145.45)" xlink:href="#a95fef48-43fb-4408-9628-ec0be54e3fb5"/><linearGradient id="a5bdc912-2545-47b9-9d32-2ca791ac1236" x1="7103.87" y1="7731.76" x2="7807.74" y2="7734.75" gradientTransform="matrix(0.71, 0.71, 0.71, -0.71, -3719.65, -7770.88)" xlink:href="#b3488ff4-5d8d-4122-8e25-32b42719c5f0"/><linearGradient id="fb30cc9a-b526-469d-940b-aa37edb70ae3" x1="7580.53" y1="7664" x2="7580.53" y2="7840.05" xlink:href="#b3488ff4-5d8d-4122-8e25-32b42719c5f0"/><linearGradient id="afb8619f-7781-43fe-ba06-d244a60369ea" x1="7490.67" y1="7696.32" x2="7522.93" y2="7696.32" gradientTransform="matrix(0.71, 0.71, 0.71, -0.71, -3714.75, -7707.77)" xlink:href="#a95fef48-43fb-4408-9628-ec0be54e3fb5"/><linearGradient id="bea3af18-469f-4364-a924-73d5afa92fab" x1="7498.28" y1="7696.32" x2="7515.32" y2="7696.32" gradientTransform="matrix(1, 0, 0, -1, -5742.65, 8531.54)" xlink:href="#b3488ff4-5d8d-4122-8e25-32b42719c5f0"/><linearGradient id="bc593632-982a-40cb-8533-bf26e9611ad4" x1="7642.8" y1="7696.43" x2="7675.07" y2="7696.43" gradientTransform="matrix(0.23, 0.97, 0.97, -0.23, -2062.46, -13528.06)" xlink:href="#a95fef48-43fb-4408-9628-ec0be54e3fb5"/><linearGradient id="a2dc366f-9e57-4490-abb3-642d0f89c21e" x1="7650.41" y1="7696.43" x2="7667.46" y2="7696.43" gradientTransform="matrix(1, 0, 0, -1, -5742.8, 8531.59)" xlink:href="#b3488ff4-5d8d-4122-8e25-32b42719c5f0"/><linearGradient id="ab8c5059-3bd8-4ddd-90e3-806368b96d0c" x1="7460.36" y1="7730" x2="7484.81" y2="7730" gradientTransform="matrix(1, 0, 0, -1, -471.33, -145.45)" xlink:href="#e43a58d6-100a-4200-a3e5-52d57dc0e559"/><linearGradient id="ffb3a7e1-1129-4f93-9a24-0a7f71918a44" x1="7691.97" y1="7730.02" x2="7701.06" y2="7730.02" gradientTransform="matrix(1, 0, 0, -1, -471.33, -145.45)" xlink:href="#e43a58d6-100a-4200-a3e5-52d57dc0e559"/><linearGradient id="b9e2a4e9-220e-4f47-836a-adcc58514f4b" x1="7517.67" y1="7768.45" x2="7657.96" y2="7768.45" gradientTransform="matrix(1, 0, 0, -1, -471.33, -145.45)" xlink:href="#e43a58d6-100a-4200-a3e5-52d57dc0e559"/><linearGradient id="f98439cd-d483-4889-ab9c-e6a74c6f1f78" x1="7517.11" y1="7768.45" x2="7658.3" y2="7768.45" gradientTransform="matrix(1, 0, 0, -1, -471.33, -145.45)" xlink:href="#e43a58d6-100a-4200-a3e5-52d57dc0e559"/><linearGradient id="ac8da2c8-e4cf-44d1-8d30-c3ec0368c7d8" x1="6055.55" y1="6799.52" x2="8310.35" y2="6799.52" gradientTransform="matrix(1, 0, 0, -1, -5271.33, 8676)" xlink:href="#b3488ff4-5d8d-4122-8e25-32b42719c5f0"/><linearGradient id="f8ff6a8a-6241-4250-ac3f-03673628a12e" x1="6270.76" y1="5942.57" x2="9037.8" y2="5942.57" xlink:href="#b3488ff4-5d8d-4122-8e25-32b42719c5f0"/><linearGradient id="add2e589-72c2-4fbd-83b5-8b999928f7a2" x1="7322.61" y1="6004.53" x2="7985.95" y2="6004.53" gradientTransform="matrix(1, 0, 0, -1, -471.33, -145.45)" xlink:href="#a95fef48-43fb-4408-9628-ec0be54e3fb5"/><linearGradient id="f017b9aa-0ceb-4ae8-97c4-8a86c840a5ca" x1="6109.45" y1="7403.51" x2="7315.02" y2="7403.51" gradientTransform="matrix(1, 0.08, 0.08, -1, -418.72, -67.84)" xlink:href="#b490f99b-c893-42d5-a4ce-48d7dbacbcb9"/><linearGradient id="ead08ab6-bf5a-4ec3-87c1-f04baafd63dd" x1="6109.43" y1="7683.35" x2="7315.06" y2="7683.35" gradientTransform="matrix(1, 0.08, 0.08, -1, -418.72, -67.84)" gradientUnits="userSpaceOnUse"><stop offset="0" stop-color="#ffe2e4"/><stop offset="1" stop-color="#ffc1c2"/></linearGradient><linearGradient id="acd85ac9-267d-46df-8152-3c7d69f0bcab" x1="5883.52" y1="7683.35" x2="7058.45" y2="7683.35" gradientTransform="matrix(1, 0.08, 0.08, -1, -418.72, -67.84)" xlink:href="#b3488ff4-5d8d-4122-8e25-32b42719c5f0"/><linearGradient id="f24d8faa-4017-45bb-8385-a2dbec24646e" x1="6109.41" y1="7009.47" x2="7315.02" y2="7009.47" xlink:href="#ead08ab6-bf5a-4ec3-87c1-f04baafd63dd"/><linearGradient id="f10a0369-b6c5-4efb-971d-5b94db4c1579" x1="6064.96" y1="7009.47" x2="7859.56" y2="7009.47" gradientTransform="matrix(1, 0.08, 0.08, -1, -418.72, -67.84)" xlink:href="#a95fef48-43fb-4408-9628-ec0be54e3fb5"/><linearGradient id="a7c26e8b-9ec7-4e8c-96e2-b9e4ce1a62bf" x1="6109.38" y1="6950.9" x2="7315.05" y2="6950.9" xlink:href="#ead08ab6-bf5a-4ec3-87c1-f04baafd63dd"/><linearGradient id="f6dcda5c-358a-4fbd-b60f-b597f4571f73" x1="6718.91" y1="6363.75" x2="7613.86" y2="6314.58" gradientTransform="matrix(1, 0, 0, -1, -471.33, -145.45)" xlink:href="#e43a58d6-100a-4200-a3e5-52d57dc0e559"/><linearGradient id="b7f40503-548f-41b4-9794-a36f0f17e7c8" x1="6109.43" y1="7260.04" x2="7315" y2="7260.04" xlink:href="#ead08ab6-bf5a-4ec3-87c1-f04baafd63dd"/><linearGradient id="a01d9a91-063e-4506-bf08-8e2628c9c62e" x1="6079.4" y1="7260.04" x2="7322.55" y2="7260.04" gradientTransform="matrix(1, 0.08, 0.08, -1, -418.72, -67.84)" xlink:href="#bed32fb9-34a3-4ef0-bfa3-250a0d8d6804"/><linearGradient id="b465f429-fbe1-4c64-be9b-c2c91293483e" x1="6109.39" y1="6941.51" x2="7315" y2="6941.51" xlink:href="#ead08ab6-bf5a-4ec3-87c1-f04baafd63dd"/><linearGradient id="aeaa55cc-a605-4021-a942-10c785eb4f45" x1="6654.2" y1="6941.51" x2="7877.78" y2="6941.51" gradientTransform="matrix(1, 0.08, 0.08, -1, -418.72, -67.84)" gradientUnits="userSpaceOnUse"><stop offset="0" stop-color="#9dcde4"/><stop offset="1" stop-color="#6689bd"/></linearGradient><linearGradient id="f793e25e-3ef8-44c1-b03c-4dfe2b06a1d4" x1="6109.36" y1="6925.37" x2="7315.06" y2="6925.37" xlink:href="#ead08ab6-bf5a-4ec3-87c1-f04baafd63dd"/><linearGradient id="aaf7cc7b-fd60-437b-bee3-2d78e42f690d" x1="6112.11" y1="6925.37" x2="7315.08" y2="6925.37" gradientTransform="matrix(1, 0.08, 0.08, -1, -418.72, -67.84)" xlink:href="#b4f8cc94-ca54-4f7f-bd9f-726bfcf54e53"/><linearGradient id="ee1e45c9-2951-4126-bc95-81820e835aac" x1="6700.16" y1="7009.53" x2="6996.49" y2="6713.19" gradientTransform="matrix(1, 0, 0, -1, -5271.33, 8676)" xlink:href="#b4f8cc94-ca54-4f7f-bd9f-726bfcf54e53"/><linearGradient id="e77fe00d-52fc-4f31-af92-9a1bc3b7364d" x1="7132.74" y1="6719.86" x2="7500.66" y2="6719.86" gradientTransform="matrix(1, 0, 0, -1, -5742.65, 8531.55)" xlink:href="#b490f99b-c893-42d5-a4ce-48d7dbacbcb9"/><linearGradient id="a9bc739b-736f-4121-b81f-5f4de8f729d9" x1="7215.58" y1="6719.82" x2="7417.82" y2="6719.82" xlink:href="#b4f8cc94-ca54-4f7f-bd9f-726bfcf54e53"/><linearGradient id="a8e02ec3-e900-4341-b038-4f2390cfcf58" x1="7542.09" y1="7307.88" x2="8079.31" y2="7307.88" gradientTransform="matrix(1, 0, 0, -1, -5271.33, 8676)" xlink:href="#b9ef19c6-c7ec-4b28-b0fb-255dc7e6107c"/><linearGradient id="aeaab0ef-0b8c-4aca-93c8-b61b9be69798" x1="7542.09" y1="7160.03" x2="8079.31" y2="7160.03" gradientTransform="matrix(1, 0, 0, -1, -5271.33, 8676)" xlink:href="#b9ef19c6-c7ec-4b28-b0fb-255dc7e6107c"/><linearGradient id="ee21d590-9180-431b-9a57-4436a5f6c4b7" x1="7542.09" y1="7012.17" x2="8079.31" y2="7012.17" gradientTransform="matrix(1, 0, 0, -1, -5271.33, 8676)" xlink:href="#b9ef19c6-c7ec-4b28-b0fb-255dc7e6107c"/><linearGradient id="b77e3b23-618d-4c22-8eef-3ef12d797a14" x1="7542.09" y1="6864.31" x2="8079.31" y2="6864.31" gradientTransform="matrix(1, 0, 0, -1, -5271.33, 8676)" xlink:href="#b9ef19c6-c7ec-4b28-b0fb-255dc7e6107c"/><linearGradient id="a207933b-5bf0-45ef-9077-e5f4cc9d456f" x1="7542.09" y1="6716.45" x2="8079.31" y2="6716.45" gradientTransform="matrix(1, 0, 0, -1, -5271.33, 8676)" xlink:href="#b9ef19c6-c7ec-4b28-b0fb-255dc7e6107c"/><linearGradient id="a997a2a0-1968-488a-a6a9-635bba1ab13c" x1="7542.09" y1="6568.59" x2="8079.31" y2="6568.59" gradientTransform="matrix(1, 0, 0, -1, -5271.33, 8676)" xlink:href="#b9ef19c6-c7ec-4b28-b0fb-255dc7e6107c"/><linearGradient id="be44d427-4f23-440f-a1e7-0bfe88e56a33" x1="7542.09" y1="6420.73" x2="8079.31" y2="6420.73" gradientTransform="matrix(1, 0, 0, -1, -5271.33, 8676)" xlink:href="#b9ef19c6-c7ec-4b28-b0fb-255dc7e6107c"/><linearGradient id="b64083ce-6754-4c75-b185-5da6665d2039" x1="7542.09" y1="7307.88" x2="7994.55" y2="7307.88" xlink:href="#b490f99b-c893-42d5-a4ce-48d7dbacbcb9"/><linearGradient id="f4b918c0-eb46-4b5e-af28-5e2fd88d46fd" x1="7542.09" y1="7160.03" x2="7834.19" y2="7160.03" gradientTransform="matrix(1, 0, 0, -1, -5271.33, 8676)" xlink:href="#b3488ff4-5d8d-4122-8e25-32b42719c5f0"/><linearGradient id="b4fa393a-0637-45dc-9c9a-a204c4297a40" x1="7542.09" y1="7012.17" x2="7733.26" y2="7012.17" gradientTransform="matrix(1, 0, 0, -1, -5271.33, 8676)" xlink:href="#bed32fb9-34a3-4ef0-bfa3-250a0d8d6804"/><linearGradient id="fba23230-826b-42f0-81b2-764b0482be1d" x1="7542.09" y1="6864.31" x2="7638.72" y2="6864.31" gradientTransform="matrix(1, 0, 0, -1, -5271.33, 8676)" xlink:href="#a95fef48-43fb-4408-9628-ec0be54e3fb5"/><linearGradient id="bbc450b4-233a-47b3-947a-06092dd9abef" x1="7542.09" y1="6716.45" x2="7578.46" y2="6716.45" gradientTransform="matrix(1, 0, 0, -1, -5271.33, 8676)" xlink:href="#e43a58d6-100a-4200-a3e5-52d57dc0e559"/><linearGradient id="b7c7be32-2a88-4e07-b11d-d290105fdea2" x1="7542.09" y1="6568.59" x2="7610.86" y2="6568.59" gradientTransform="matrix(1, 0, 0, -1, -5271.33, 8676)" xlink:href="#b4f8cc94-ca54-4f7f-bd9f-726bfcf54e53"/><linearGradient id="b624f9e9-ed4e-42a5-be90-fac64573fb4b" x1="7542.09" y1="6420.73" x2="7693.03" y2="6420.73" gradientTransform="matrix(1, 0, 0, -1, -5271.33, 8676)" xlink:href="#aeaa55cc-a605-4021-a942-10c785eb4f45"/><linearGradient id="afa3aa20-2864-44be-9851-c67b6ffe995e" x1="8190.63" y1="8252.14" x2="8705.01" y2="8254.33" gradientTransform="matrix(1, 0, 0, -1, -5271.33, 8676)" xlink:href="#aeaa55cc-a605-4021-a942-10c785eb4f45"/><linearGradient id="e426553d-fa1a-4ee4-bf7e-32d1873595ec" x1="8839.68" y1="8175.25" x2="8839.68" y2="8037.22" xlink:href="#bed32fb9-34a3-4ef0-bfa3-250a0d8d6804"/><linearGradient id="acbb19e6-b03f-4169-8d91-eff5d31893bf" x1="7175.19" y1="7611.8" x2="7089.83" y2="7544.9" gradientTransform="matrix(1, 0, 0, -1, -471.33, -145.45)" xlink:href="#a95fef48-43fb-4408-9628-ec0be54e3fb5"/><linearGradient id="e4961021-c424-4d68-aa76-cdf50ec30e3b" x1="7203.3" y1="7515.53" x2="6952.99" y2="7359.81" gradientTransform="matrix(1, 0, 0, -1, -471.33, -145.45)" xlink:href="#a95fef48-43fb-4408-9628-ec0be54e3fb5"/><linearGradient id="a42e8cef-1d4c-4535-9173-c85ca3bd499b" x1="7040.99" y1="7735.91" x2="6848.74" y2="7732.83" gradientTransform="matrix(1, 0, 0, -1, -471.33, -145.45)" xlink:href="#b490f99b-c893-42d5-a4ce-48d7dbacbcb9"/><linearGradient id="bffe7807-7e28-4748-9cab-fe9e84cf31bd" x1="6981.3" y1="7704.2" x2="6755.22" y2="7737.65" gradientTransform="matrix(1, 0, 0, -1, -471.33, -145.45)" gradientUnits="userSpaceOnUse"><stop offset="0" stop-color="#fcce79"/><stop offset="1" stop-color="#e3a76b"/></linearGradient><linearGradient id="afc0ce65-07ad-4381-9555-1de732190902" x1="6832.48" y1="7674.56" x2="6740.97" y2="7708.4" gradientTransform="matrix(1, 0, 0, -1, -471.33, -145.45)" xlink:href="#b490f99b-c893-42d5-a4ce-48d7dbacbcb9"/><linearGradient id="b6dbce56-4c5b-449c-8154-a113b3f34ecb" x1="7071" y1="7689.72" x2="7250.87" y2="7689.72" xlink:href="#b3488ff4-5d8d-4122-8e25-32b42719c5f0"/><linearGradient id="bd9d980a-55c0-48f0-bb97-9b5556c6e8d4" x1="8185.76" y1="6545.58" x2="8361.09" y2="6565.19" gradientTransform="matrix(1, 0, 0, -1, -5271.33, 8676)" xlink:href="#bffe7807-7e28-4748-9cab-fe9e84cf31bd"/><linearGradient id="abe55abf-e150-4b13-bfb0-46a61236c2a3" x1="8714.8" y1="6476.83" x2="9020.12" y2="6476.83" gradientTransform="matrix(1, 0, 0, -1, -471.33, -145.45)" xlink:href="#b490f99b-c893-42d5-a4ce-48d7dbacbcb9"/><linearGradient id="a32c3a63-3c07-4673-b88c-c8a8c8918042" x1="8568.78" y1="6895.97" x2="8755.65" y2="6835.99" gradientTransform="matrix(1, 0, 0, -1, -471.33, -145.45)" xlink:href="#a95fef48-43fb-4408-9628-ec0be54e3fb5"/><linearGradient id="b3fa757c-4c46-44ef-af88-35c51b0a6057" x1="8688.11" y1="6809.17" x2="8898.05" y2="6834.55" gradientTransform="matrix(1, 0, 0, -1, -471.33, -145.45)" xlink:href="#a95fef48-43fb-4408-9628-ec0be54e3fb5"/><linearGradient id="b6d65705-7eef-4ce1-ab49-f08f3e5555d2" x1="8829.16" y1="6782.87" x2="8920.28" y2="6812.86" gradientTransform="matrix(1, 0, 0, -1, -471.33, -145.45)" xlink:href="#a95fef48-43fb-4408-9628-ec0be54e3fb5"/><linearGradient id="e8703d1f-f781-4829-b26a-8aa21f07ee25" x1="9093.97" y1="7786.22" x2="8675.97" y2="7272.22" gradientTransform="matrix(1, 0, 0, -1, -471.33, -145.45)" xlink:href="#e43a58d6-100a-4200-a3e5-52d57dc0e559"/><linearGradient id="ecb2bcc3-1912-4c38-a3cd-0035faa02c47" x1="8613.61" y1="7486.37" x2="9064.75" y2="7486.37" xlink:href="#b3488ff4-5d8d-4122-8e25-32b42719c5f0"/></defs><path d="M8127.38-6149.75c67.14-7.93,188.24-41.17,232.39-104.82,40.76-58.76-12.66-136.29,17.14-193.7S8580.39-6542,8628-6608.22c56.45-78.58-71.49-149.27-11.46-203s262.34-110.23,280.47-176.91-62.52-67.94,10.16-190.21c61.55-103.54,144-239.33,72.15-300.41-76.54-65.1-174.51,40.31-226.58,123.74-67.07,107.48-128.41-11.37-202.56,37-67,43.71-67.92,297.66-119.37,346s-146.44,6.64-218.17,91.24,23,224.53-14.71,288.68-138.37,34.95-192.37,126S8127.38-6149.75,8127.38-6149.75Z" transform="translate(-5271.33 8677)" fill="url(#f88e208c-c57b-423c-a979-f2adbef77565)"/><path d="M8760.16-6336.95c-6.6,162.23-340.42,154.79-347.82,184.94s159,51.65,105.45,124.7c-49.6,67.69-308.58,32.45-470.05-100.88-4.67-3.86-76.42-264,53.32-371.91s99.43,127.5,145.27,133.05,21.13-299.51,127-336C8483.06-6740.9,8460.11-6532.5,8512-6552c49.14-18.46,144.67-298.25,249.83-231.65a92.7,92.7,0,0,1,11.47,8.63h0c2,1.78,4.07,3.69,6.1,5.74,112,112.91-218,348.39-163.5,374.79S8763.51-6419.17,8760.16-6336.95Z" transform="translate(-5271.33 8677)" fill="url(#e46fae0c-4607-4d45-890d-edfd1d458b10)"/><path d="M5278.46-7029.16c-84,334.9,601.35,520.34,598.31,586.3s-355.31,9.79-290,191c60.49,167.87,609.92,251.65,1019.4,76.73,11.86-5.07,314.53-492.5,114.78-790.65s-279.47,200.33-376.32,184.06,136.9-623.63-57.15-761.79c-201.08-143.15-279.52,295.72-373.62,224.8-89.14-67.19-115.86-695.3-370.39-622.65a197.32,197.32,0,0,0-28.57,10.72h-.11q-7.8,3.6-15.89,8c-296.32,163,235.27,841.65,108.26,862.74S5321-7198.87,5278.46-7029.16Z" transform="translate(-5271.33 8677)" fill="url(#f232443e-d9b9-4410-976a-a5ebab10fd83)"/><rect x="5746.55" y="-7812.84" width="556.36" height="1205.65" transform="translate(-1924.96 10472.98) rotate(-23.32)" fill="url(#b9ef19c6-c7ec-4b28-b0fb-255dc7e6107c)"/><path d="M6052-7900.17,5504.28-7664,5997.5-6520l547.74-236.15ZM6125.73-6619a116.83,116.83,0,0,0-153.54-61h0l-368.89-855.71h0a116.84,116.84,0,0,0,61-153.56l259.44-111.86a116.85,116.85,0,0,0,153.57,61l369,855.72a116.86,116.86,0,0,0-61,153.57Z" transform="translate(-5271.33 8677)" fill="url(#bc7e8034-6e10-4573-86f8-460e15acaa3b)"/><circle cx="754.84" cy="1455.3" r="175.74" fill="url(#fd90a922-c40c-4976-a559-164ef4e6c133)"/><circle cx="885.12" cy="1757.38" r="48.23" fill="url(#edf0b5d2-7b83-42a0-b376-7545b5bbaa5b)"/><circle cx="624.67" cy="1153.37" r="48.23" fill="url(#bb88cd80-35e6-4e2e-ab17-4d0bf214ea26)"/><path d="M6136-7279.34l11.4,26.46-18.15,7.83q11.31,33.12,3.64,64.21L6090.1-7197q4.26-20.73,2.36-32.77l-38.29,16.51q10.82,67.35-30.79,85.29-20.94,9-41.91-.27T5943-7165.7l-23.06,9.94-11.2-26,22.79-9.83-1.85-4.3q-6.33-14.67-7.89-37.24t4.5-38l41,15.38a89.63,89.63,0,0,0-1.29,49.3l44.52-19.19q-6.42-31.65,2.13-53.37t28.42-30.31q21.06-9.09,41.93-.59t35.12,38.25Zm-86.4,36.87,32.59-14q-10.62-13-22.15-8-12.48,5.3-10.46,22Zm-35.6,46.53-34.44,14.85q10.53,14.91,24.16,9.05Q6016.19-7177.45,6014-7195.94Z" transform="translate(-5271.33 8677)" fill="url(#e235c675-d642-4c2f-91f6-885a5ce4eda8)"/><rect x="5678.2" y="-7489.51" width="562.44" height="1218.84" transform="translate(1205.93 10884.38) rotate(-44.16)" fill="url(#b2caab55-49e4-48c8-a6a5-2ad43bbb9f2d)"/><path d="M5737-7541.94l-432.56,420.11,877.42,903.46,432.58-420.08ZM6267.4-6358a118.12,118.12,0,0,0-167-2.45h0l-656.31-675.77h0a118.12,118.12,0,0,0,2.44-167l204.9-199a118.14,118.14,0,0,0,167,2.44L6474.72-6724a118.14,118.14,0,0,0-2.44,167Z" transform="translate(-5271.33 8677)" fill="url(#ba8c2c4d-b043-4653-be35-9a3998551dbf)"/><circle cx="685.27" cy="1785.39" r="177.67" fill="url(#ee29a013-df4c-4abd-9144-a64ddf7154a7)"/><circle cx="916.84" cy="2023.84" r="48.75" fill="url(#fb1dc2bc-552c-4f0c-87fa-8dada9f52959)"/><circle cx="453.69" cy="1546.91" r="48.75" fill="url(#f9ce2851-c850-40bd-9612-d3451bea5c53)"/><path d="M6039.6-6985.56l20.29,20.9-14.33,13.92q22.59,27.21,26.53,59.35l-46.23.14q-3.42-21.12-9.55-31.82l-30.24,29.37q34.44,59.73,1.58,91.66-16.53,16.05-39.69,14.82t-49.83-21.57l-18.2,17.68L5860-6811.63l18-17.47-3.3-3.4q-11.25-11.58-20.84-32.35t-9.44-37.56l44.31-.23a90.51,90.51,0,0,0,16.48,47.11l35.15-34.14q-17.43-27.59-17.18-51.19t16-38.86q16.64-16.15,39.41-15.64t46.94,23.52Zm-68.36,65.91,25.74-25q-14.73-8.46-23.83.38Q5963.33-6934.71,5971.24-6919.65Zm-16.88,56.74-27.2,26.42q15.3,10.32,26.09-.14Q5963.09-6846.18,5954.36-6862.91Z" transform="translate(-5271.33 8677)" fill="url(#a327f227-0937-4b84-8317-e11fb2db5099)"/><path d="M6303-6078.8s-129.06-574.32-294-907-340.65-442.34-340.65-442.34,83.1,149.1,135.86,346.49,66.38,405.29,148.8,598.5C6077.67-6190.84,6303-6078.8,6303-6078.8Z" transform="translate(-5271.33 8677)" fill="url(#b44e2927-85f9-4096-b8f8-5595d85b52d9)"/><path d="M6206.31-6097.45s-148.26-384.5-296.6-598-281.26-271.41-281.26-271.41,72.84,94.74,129.61,226,87.52,273.86,164.41,399.22C6038.78-6152,6206.31-6097.45,6206.31-6097.45Z" transform="translate(-5271.33 8677)" fill="url(#a0c94096-367e-442a-93ff-96c0606c9791)"/><path d="M8663.13-6692.68l-815.29-.83a28.47,28.47,0,0,0-28.51,28.43v0l-.53,514.11a28.49,28.49,0,0,0,28.46,28.51l815.28.83a28.49,28.49,0,0,0,28.52-28.45l.52-514.11a28.47,28.47,0,0,0-28.45-28.51Z" transform="translate(-5271.33 8677)" fill="url(#b3488ff4-5d8d-4122-8e25-32b42719c5f0)"/><rect x="8191.49" y="-6953.73" width="127.77" height="872.25" transform="translate(9493 10421.59) rotate(-89.94)" fill="url(#a95fef48-43fb-4408-9628-ec0be54e3fb5)"/><rect x="8489.2" y="-6337.67" width="33.05" height="225.63" transform="translate(9450.35 10964.38) rotate(-89.94)" fill="url(#aa09ddf4-64ae-4c8c-9518-a4522e7c9526)"/><rect x="8081.44" y="-6431.58" width="33.05" height="412.66" transform="translate(9043.4 10556.23) rotate(-89.94)" fill="url(#b6438f39-9da9-4bd1-8086-42ce4222065c)"/><rect x="8238.67" y="-6701.01" width="33.05" height="726.91" transform="translate(9312.77 10601.27) rotate(-89.94)" fill="url(#f8aaa2f8-a19e-48c4-a6d2-ac527d57aff6)"/><circle cx="7946.64" cy="-8514.4" r="162.6" transform="translate(3076.78 11802.31) rotate(-45)" fill="url(#e43a58d6-100a-4200-a3e5-52d57dc0e559)"/><circle cx="2675.31" cy="162.6" r="140.39" fill="#fff"/><path d="M8070.51-8534a1.44,1.44,0,0,0-1.52-.4h0a31.14,31.14,0,0,1-4.61,1.06c-.95.15-1.92.25-2.88.31v-.08a13.5,13.5,0,0,0,.49-5.72,14.36,14.36,0,0,0-.6-2.75,11.65,11.65,0,0,0-1.2-2.7,9.07,9.07,0,0,0-2.07-2.34,7.76,7.76,0,0,0-2.89-1.43,8.11,8.11,0,0,0-3.18-.16,8.61,8.61,0,0,0-2.94,1,8.86,8.86,0,0,0-2.4,2,8.4,8.4,0,0,0-2,5.76,9.57,9.57,0,0,0,.17,1.5,9.47,9.47,0,0,0,.42,1.47,9,9,0,0,0,.68,1.4,8.63,8.63,0,0,0,.93,1.23,9.68,9.68,0,0,0,2.31,1.87,13.84,13.84,0,0,0,1.27.65c.43.19.86.35,1.3.5a18.83,18.83,0,0,0,2.64.65,4.63,4.63,0,0,1,.62.09,17,17,0,0,1-2.73,2.27,24,24,0,0,1-4,2.13,30.5,30.5,0,0,1-5.55,1.72c-4-35.44-35.91-63-87.67-63a137.44,137.44,0,0,0-37.29,5.06c-7.23-7.07-16.84-11.32-25.67-13.1a2.83,2.83,0,0,0-3.3,2.25,2.87,2.87,0,0,0,.15,1.59,60.26,60.26,0,0,1,4.18,16.34c.09.94.15,1.88.19,2.83-16.06,8.83-28.21,21-34.29,35.09h0l-11.08,2.67a5.38,5.38,0,0,0-4.11,5.24v35.21a5.4,5.4,0,0,0,5.14,5.39l14.28.66c7.22,11.48,18.66,21.35,32.93,28.64l8.28,23.73a4.87,4.87,0,0,0,4.59,3.26h14.09a4.85,4.85,0,0,0,4.75-3.86l2.49-11.85a141,141,0,0,0,24.69,2.16,131.16,131.16,0,0,0,20.48-1.56L7978-8436a4.87,4.87,0,0,0,4.76,3.86h14.09a4.86,4.86,0,0,0,4.59-3.26l8.25-23.68c21.65-12.84,33.56-33.72,33.56-57.29,0-1.09,0-2.17-.08-3.25.64-.14,1.28-.29,1.91-.46a34.82,34.82,0,0,0,5-1.75,28.45,28.45,0,0,0,4.67-2.61,20.51,20.51,0,0,0,4.07-3.71,14.2,14.2,0,0,0,1.24-1.75,35.62,35.62,0,0,0,4.84-.51,34.2,34.2,0,0,0,5-1.26,1.46,1.46,0,0,0,.94-1.84A1.36,1.36,0,0,0,8070.51-8534Zm-12.34-2.31a8.58,8.58,0,0,1-.42,2,10.08,10.08,0,0,1-.54,1.27c-.73-.07-1.45-.16-2.16-.3a15,15,0,0,1-2.16-.58c-.34-.12-.68-.25-1-.4s-.62-.32-.92-.5a6.49,6.49,0,0,1-1.51-1.26,5.19,5.19,0,0,1-.93-1.59,5,5,0,0,1-.24-.92,5.63,5.63,0,0,1-.09-1,5.06,5.06,0,0,1,.3-1.81,4.86,4.86,0,0,1,.92-1.55,5.25,5.25,0,0,1,3.17-1.69,4.58,4.58,0,0,1,1.73.12,4.05,4.05,0,0,1,1.51.79,5.5,5.5,0,0,1,1.16,1.38,6,6,0,0,1,.43.88,6.93,6.93,0,0,1,.34,1c.05.16.09.34.13.52l.12.52c.06.35.12.7.16,1a6.63,6.63,0,0,1,.05,1A7.67,7.67,0,0,1,8058.17-8536.3Z" transform="translate(-5271.33 8677)" fill="url(#b4f8cc94-ca54-4f7f-bd9f-726bfcf54e53)"/><path d="M7890.88-8543a3.91,3.91,0,0,1-3.92,3.9,3.92,3.92,0,0,1-3.9-3.92,3.91,3.91,0,0,1,3.91-3.9,3.91,3.91,0,0,1,3.91,3.91Z" transform="translate(-5271.33 8677)" fill="url(#bed32fb9-34a3-4ef0-bfa3-250a0d8d6804)"/><path d="M7984.13-8578.51a314.35,314.35,0,0,0-47.54,0,.86.86,0,0,0-.88.81c.15,1.85.29,3.7.44,5.56a.85.85,0,0,0,1,.67h0a308.19,308.19,0,0,1,46.48,0,.85.85,0,0,0,1-.65v0c.15-1.86.3-3.71.44-5.56a.85.85,0,0,0-.9-.81Z" transform="translate(-5271.33 8677)" fill="url(#ab6e196d-218c-4f6e-a598-e78f57475077)"/><circle cx="2722.16" cy="633.43" r="190.33" fill="url(#b5261f43-a5d3-464d-8b1c-a3a0ccef4baf)"/><circle cx="2722.16" cy="633.43" r="164.32" fill="#fff"/><path d="M7986.79-8132.79a41.25,41.25,0,0,1,3.22,4.64,46.17,46.17,0,0,1,2.56,4.71c.78,1.58,1.47,3.19,2.11,4.81s1.22,3.27,1.74,4.94,1,3.35,1.4,5.07.74,3.47,1,5.28a41.87,41.87,0,0,1,.46,5.6,24,24,0,0,1-.67,6.21,15.15,15.15,0,0,1-1.27,3.42,12.56,12.56,0,0,1-2.43,3.32,12.7,12.7,0,0,1-3.49,2.4,14.48,14.48,0,0,1-3.66,1.11,21.86,21.86,0,0,1-6.46,0,38.05,38.05,0,0,1-5.55-1.26,62.18,62.18,0,0,1-9.81-4.06,82.38,82.38,0,0,1-8.95-5.32c-1.43-1-2.85-2-4.23-3.17a51.27,51.27,0,0,1-4.1-3.7,36.75,36.75,0,0,1-3.76-4.5,37,37,0,0,1-3-5.17,31.11,31.11,0,0,1-3-12,26.65,26.65,0,0,1,.53-6.61,23.4,23.4,0,0,1,4.39-9.64,22.78,22.78,0,0,1,5.37-5c.52-.32,1-.67,1.58-1l.81-.43.83-.39a23.66,23.66,0,0,1,6.89-1.88c.58-.08,1.15-.1,1.73-.14s1.15,0,1.71,0a24.81,24.81,0,0,1,3.34.29,26.87,26.87,0,0,1,6.24,1.66,32.85,32.85,0,0,1,5.56,2.79A35.71,35.71,0,0,1,7986.79-8132.79Zm-11.16,9.55a20.9,20.9,0,0,0-5.59-4.25,16.3,16.3,0,0,0-6.1-1.84,11.5,11.5,0,0,0-2.75,0,8,8,0,0,0-2.29.62l-.26.1-.24.13c-.16.08-.32.16-.48.26a7.57,7.57,0,0,0-.88.64c-.27.24-.54.49-.79.76a10.31,10.31,0,0,0-.67.92,8.66,8.66,0,0,0-1,2.29,12,12,0,0,0-.44,2.86,17.49,17.49,0,0,0,1.08,6.52,22.09,22.09,0,0,0,3.55,6.29,36.68,36.68,0,0,0,2.71,3,39.08,39.08,0,0,0,3.16,2.88,58.68,58.68,0,0,0,7,5.09c1.24.75,2.49,1.46,3.77,2.09a37.92,37.92,0,0,0,3.82,1.65,24,24,0,0,0,3.72,1,10.43,10.43,0,0,0,3.05.15,5.51,5.51,0,0,0,.91-.23,1.41,1.41,0,0,0,.44-.27,1.64,1.64,0,0,0,.37-.53,4.15,4.15,0,0,0,.36-1.06,11.22,11.22,0,0,0,.15-3.27,22.14,22.14,0,0,0-.65-3.88,33.07,33.07,0,0,0-1.25-4c-.25-.67-.51-1.34-.79-2s-.57-1.32-.88-2c-.62-1.31-1.28-2.6-2-3.86s-1.44-2.5-2.21-3.71-1.57-2.35-2.39-3.45a34.18,34.18,0,0,0-2.48-2.9Z" transform="translate(-5271.33 8677)" fill="url(#bfcca6aa-7586-461a-a3b5-742193546d66)"/><path d="M8040.57-8101.89a42.46,42.46,0,0,1-3.82,4.12c-1.31,1.25-2.67,2.39-4.05,3.48a49.08,49.08,0,0,1-4.27,3c-1.46.92-2.94,1.85-4.46,2.69s-3.07,1.64-4.65,2.38a50.25,50.25,0,0,1-4.9,2,43.41,43.41,0,0,1-5.28,1.59c-.93.2-1.88.38-2.87.5a20.39,20.39,0,0,1-3.13.15,15.16,15.16,0,0,1-3.41-.48,11.73,11.73,0,0,1-3.52-1.53,12.22,12.22,0,0,1-2.9-2.66,14.45,14.45,0,0,1-1.78-3.13,20.61,20.61,0,0,1-1.37-6,36.72,36.72,0,0,1,0-5.55,63.28,63.28,0,0,1,1.72-10.33,81.28,81.28,0,0,1,3.11-9.79c.63-1.61,1.31-3.21,2.09-4.8a48.14,48.14,0,0,1,2.62-4.78,36.35,36.35,0,0,1,3.46-4.62,35.52,35.52,0,0,1,4.26-4.06,30.4,30.4,0,0,1,10.83-5.63,26.12,26.12,0,0,1,6.45-1,23.61,23.61,0,0,1,6.85.83,22.08,22.08,0,0,1,11.76,8,23,23,0,0,1,3.35,6.21c.21.54.35,1.09.52,1.63s.29,1.1.41,1.65a24.21,24.21,0,0,1,.47,3.28,29.22,29.22,0,0,1,.09,3.24,27.88,27.88,0,0,1-.28,3.16,31.86,31.86,0,0,1-1.47,6A35.68,35.68,0,0,1,8040.57-8101.89Zm-11.43-8.51a21.2,21.2,0,0,0,2.91-6.47,17.45,17.45,0,0,0,.51-6.43,11.12,11.12,0,0,0-.62-2.74,8.16,8.16,0,0,0-1.12-2.2l-.17-.24-.18-.23c-.11-.16-.25-.28-.37-.43a7.68,7.68,0,0,0-.85-.76,7.45,7.45,0,0,0-1-.65,7.07,7.07,0,0,0-1.09-.48,8.65,8.65,0,0,0-2.57-.53,11.62,11.62,0,0,0-3,.18,18,18,0,0,0-6.33,2.49,23.33,23.33,0,0,0-5.56,4.93,37.78,37.78,0,0,0-2.4,3.35c-.76,1.2-1.48,2.46-2.17,3.75a57.8,57.8,0,0,0-3.5,8.08c-.48,1.39-.9,2.79-1.24,4.19a37.29,37.29,0,0,0-.8,4.19,23.22,23.22,0,0,0-.2,4,10.71,10.71,0,0,0,.58,3.27,6,6,0,0,0,.54,1,2.41,2.41,0,0,0,.58.57,3,3,0,0,0,.85.35,5.76,5.76,0,0,0,1.31.12,9,9,0,0,0,1.64-.18,15.82,15.82,0,0,0,1.8-.46,24.53,24.53,0,0,0,3.72-1.6,36.45,36.45,0,0,0,3.64-2.22c.6-.41,1.19-.83,1.77-1.27s1.15-.89,1.72-1.35q1.7-1.4,3.3-2.89c1.06-1,2.09-2,3.08-3.06s1.93-2.1,2.81-3.15a35.12,35.12,0,0,0,2.41-3.13Z" transform="translate(-5271.33 8677)" fill="url(#aa16d723-9d03-4a28-a108-437650e9ffb8)"/><rect x="2644.31" y="588.5" width="155.71" height="141.26" fill="url(#abd365bf-6d4b-4738-a1bd-f4fb11f28a4d)"/><rect x="2637.2" y="588.5" width="169.93" height="32.54" fill="url(#b490f99b-c893-42d5-a4ce-48d7dbacbcb9)"/><rect x="2710.62" y="588.5" width="23.08" height="141.26" fill="url(#f2741353-ac3f-4e22-be7c-c24e265a0282)"/><circle cx="6891.08" cy="-8260.44" r="131.18" transform="translate(2588.03 11130.3) rotate(-45)" fill="url(#beb09751-a2b4-47fe-9b7c-e9c8376bd8b1)"/><circle cx="1619.75" cy="416.56" r="113.25" fill="#fff"/><path d="M6964.35-8285.45h.81a.24.24,0,0,0,0-.12.43.43,0,0,0,0-.16v-.09a.38.38,0,0,0,0-.15v-.37a.21.21,0,0,0-.05-.12.17.17,0,0,0,0-.1l0-.1-.7.39.68-.43v-.09l-.06-.08-.66.45.63-.5a.12.12,0,0,0-.05-.07.34.34,0,0,0-.09-.12l-.08-.09-.07-.07-.56.58.53-.61-.07-.07-.1-.08-.1-.08-.12-.09-.09-.06-.13-.07-.1,0-.14-.06h-.1l-.15,0h-.33L6839.06-8305l-7.27-10.11-.08-.1a3.87,3.87,0,0,0-3.15-1.62h-24.07a3.87,3.87,0,0,0-3.67,4.07,3.88,3.88,0,0,0,3.67,3.68h24.07a4.15,4.15,0,0,0,1-.12l5.63,7.82,18.79,70.52-5.33,24.08a2.65,2.65,0,0,0,2,3.15,2.76,2.76,0,0,0,.57.06h19.66a5.76,5.76,0,0,0-2.27,7.83,5.75,5.75,0,0,0,7.83,2.28,5.77,5.77,0,0,0,2.28-7.84,5.79,5.79,0,0,0-2.28-2.27h56.68a5.76,5.76,0,0,0-2.27,7.83,5.75,5.75,0,0,0,7.83,2.28,5.77,5.77,0,0,0,2.28-7.84,5.79,5.79,0,0,0-2.28-2.27H6954a2.65,2.65,0,0,0,2.81-2.48,2.65,2.65,0,0,0-2.48-2.81h-16.2a2.63,2.63,0,0,0-3.37-1.62,2.65,2.65,0,0,0-1.63,1.62h-57.24a2.63,2.63,0,0,0-3.37-1.62,2.65,2.65,0,0,0-1.63,1.62h-16.64l4.3-19.41h96.4l.39-.1h.07l.37-.17h0a1.91,1.91,0,0,0,.32-.24h0a2.65,2.65,0,0,0,.29-.29h0a1.54,1.54,0,0,0,.21-.31v-.06a1.43,1.43,0,0,0,.17-.38v-.06a1.7,1.7,0,0,0,.1-.37l8.06-54.41v-.45Zm-27.26,28.3-1.49,23.45h-11.33l-.34-24.46Zm1.83-28.86-1.48,23.37-13.59-1.05-.34-24.44Zm3.75,23.77,1.46-23,15.37,2.12-3.25,22Zm12.77,6.5-3.27,22h-11.31l1.46-23Zm-36.39,22h-11.31l-2.2-25.87,13.16,1ZM6900.27-8260l2.24,26.28h-11.25l-4.1-27.28Zm2.6-31,15.4,2.12.35,24.76-13.55-1Zm-21.06,29.58,4.17,27.69h-11.15l-6.05-28.7Zm.41-32.43,15.35,2.12,2.23,26.17-13.48-1Zm-18.89,31,6.13,29.11h-11l-8-30.11Zm-1.77-33.85,15.26,2.1L6881-8267l-13.37-1Zm.58,28.23-13.24-1-8-30.07,15.14,2.09Zm73.06,68.83a2.68,2.68,0,0,0,.8,0,1,1,0,0,1,.63,1,1,1,0,0,1-1,1,1,1,0,0,1-1-1,1,1,0,0,1,.63-.9Zm-61.84,2a1,1,0,0,1-1-1,1,1,0,0,1,.63-1,2.68,2.68,0,0,0,.8,0,1,1,0,0,1,.63,1,1,1,0,0,1-.91,1.08h-.15Z" transform="translate(-5271.33 8677)" fill="url(#b03f4701-2bd9-40d2-a35d-995797ff8f8d)"/><circle cx="7453.3" cy="-8327.24" r="230.28" transform="translate(2799.94 11508.29) rotate(-45)" fill="url(#a6eb935c-33a0-457f-8040-dba0495bc84d)"/><circle cx="7453.3" cy="-8327.24" r="198.82" transform="translate(2799.94 11508.29) rotate(-45)" fill="#fff"/><rect x="2247.39" y="237.74" width="26.78" height="50.15" rx="4.99" fill="url(#b885ae6f-ea06-4a2b-bfcf-55aede4096b3)"/><path d="M7594.08-8350.85l-136.17-125.47a6.8,6.8,0,0,0-9.22,0l-136.16,125.47a6.81,6.81,0,0,0-.39,9.61,6.82,6.82,0,0,0,5,2.19h272.34a6.82,6.82,0,0,0,6.81-6.8A6.8,6.8,0,0,0,7594.08-8350.85Z" transform="translate(-5271.33 8677)" fill="url(#b6aabada-6f0c-4b56-809d-2819cb0ca24a)"/><circle cx="7427.44" cy="-8252.24" r="9.41" transform="translate(9111.67 9078.45) rotate(-80.78)" fill="url(#b67ef3f6-6991-47fb-9053-716c06194f30)"/><path d="M7558.48-8339v136.43a6.81,6.81,0,0,1-6.8,6.81h-51.8v-110.73a12,12,0,0,0-12-12h-69.05a12.05,12.05,0,0,0-12.05,12v110.73H7355a6.82,6.82,0,0,1-6.8-6.81V-8339l23.68-22.32,81.5-76.82,81.49,76.82Z" transform="translate(-5271.33 8677)" fill="url(#fab25f58-8991-439b-a964-4e88c497425e)"/><path d="M7455.14-8410.08h-3.68a24.74,24.74,0,0,0-24.74,24.74v18.27a8.52,8.52,0,0,0,8.5,8.52h36.14a8.51,8.51,0,0,0,8.52-8.5v-18.29a24.73,24.73,0,0,0-24.74-24.74Z" transform="translate(-5271.33 8677)" fill="#fff"/><circle cx="7591.49" cy="-7789.74" r="127.21" transform="translate(2460.35 11763.43) rotate(-45)" fill="url(#b367f501-1675-4ae6-89af-5bbadf467b87)"/><circle cx="7591.49" cy="-7789.74" r="109.83" transform="translate(2460.35 11763.43) rotate(-45)" fill="#fff"/><path d="M7541.11-7744.27v-74.46h100.73v74.46A110.89,110.89,0,0,1,7541.11-7744.27Z" transform="translate(-5271.33 8677)" fill="url(#a8f78d8b-465e-44b0-9a4e-c0d23d11412e)"/><polygon points="2320.16 884.71 2234.58 858.27 2320.16 831.83 2405.74 858.27 2320.16 884.71" fill="url(#a90479d8-7dda-43fe-94af-fb589f7d9878)"/><path d="M7636.26-7807.52l-44.42-12.5a1.35,1.35,0,0,0-1.66.93.64.64,0,0,1,0,.07,1.42,1.42,0,0,0,1,1.61l42.65,12a1,1,0,0,1,.71,1v33.85a1.4,1.4,0,0,0,1.21,1.41,1.35,1.35,0,0,0,1.48-1.22v-35.81A1.33,1.33,0,0,0,7636.26-7807.52Z" transform="translate(-5271.33 8677)" fill="url(#af627ccf-362f-456b-bad5-c09944df32be)"/><path d="M7632.88-7754.31a1.5,1.5,0,0,1-.3,0,1.29,1.29,0,0,1-1-1.41L7633-7767a1.34,1.34,0,0,1,1.32-1.2,1.28,1.28,0,0,1,1.25,1.33.49.49,0,0,1,0,.12l-1.44,11.32A1.3,1.3,0,0,1,7632.88-7754.31Z" transform="translate(-5271.33 8677)" fill="url(#b644e8f0-9fac-4c3d-9848-01a80c43d1b3)"/><path d="M7635.9-7754a1.31,1.31,0,0,1-1.29-1.32v-11.6a1.3,1.3,0,0,1,1.18-1.4,1.28,1.28,0,0,1,1.39,1.17.89.89,0,0,1,0,.23v11.6a1.29,1.29,0,0,1-1.28,1.32Z" transform="translate(-5271.33 8677)" fill="url(#fcac4bc9-55e8-4a32-8e5b-7c11aab5d1f0)"/><path d="M7638.91-7754.31a1.29,1.29,0,0,1-1.27-1.13l-1.44-11.24a1.35,1.35,0,0,1,1-1.49,1.29,1.29,0,0,1,1.56.95.68.68,0,0,1,0,.14l1.44,11.32a1.27,1.27,0,0,1-1,1.41A1.06,1.06,0,0,1,7638.91-7754.31Z" transform="translate(-5271.33 8677)" fill="url(#f5fc255e-5986-4ad1-9e5a-199b59bc8187)"/><path d="M7632.73-7771.69h6.19a.34.34,0,0,1,.34.34h0v5.55a.28.28,0,0,1-.28.28h-6.3a.29.29,0,0,1-.28-.28h0v-5.55A.34.34,0,0,1,7632.73-7771.69Z" transform="translate(-5271.33 8677)" fill="url(#acd1d476-ef6d-4185-80ea-0189e64e7094)"/><path d="M7595.2-7818.73c0,1.57-1.67,2.83-3.72,2.83s-3.72-1.26-3.72-2.83,1.66-2.83,3.72-2.83S7595.2-7820.29,7595.2-7818.73Z" transform="translate(-5271.33 8677)" fill="url(#a41b989e-8f63-44fd-9461-921104ae8536)"/><circle cx="7109.22" cy="-7879.24" r="169.78" transform="translate(2382.38 11396.2) rotate(-45)" fill="url(#a5bdc912-2545-47b9-9d32-2ca791ac1236)"/><circle cx="1837.89" cy="797.75" r="146.58" fill="#fff"/><path d="M7234.3-7863a5.84,5.84,0,0,0-4.59-5.72h0v-11.62a11.93,11.93,0,0,0-.13-1.89,14.3,14.3,0,0,0-14.22-12.46h-16.71l-3.49-14.6a46.19,46.19,0,0,0-44.91-35.42h-43.69a60.72,60.72,0,0,0-50.57,27.06L7041-7895.2a1.16,1.16,0,0,1-1,.52h-14.72c-10.72,0-20.36,2.57-27.06,8.16a26.09,26.09,0,0,0-4.1,4.3,27.6,27.6,0,0,0-5.17,13.27v.19h-.29a5.87,5.87,0,0,0-4.6,5.72v13a7.06,7.06,0,0,0,7,7h26.28a1.18,1.18,0,0,0,1.17-1,17,17,0,0,1,19.17-14.51,17,17,0,0,1,14.51,14.51,1.21,1.21,0,0,0,1.16,1h116a1.19,1.19,0,0,0,1.16-1,17,17,0,0,1,19.17-14.51,17,17,0,0,1,14.51,14.51,1.21,1.21,0,0,0,1.16,1h21.79a7,7,0,0,0,7-7v-13Z" transform="translate(-5271.33 8677)" fill="url(#fb30cc9a-b526-469d-940b-aa37edb70ae3)"/><circle cx="7035.48" cy="-7841.78" r="16.13" transform="translate(2334.29 11355.03) rotate(-45)" fill="url(#afb8619f-7781-43fe-ba06-d244a60369ea)"/><circle cx="1764.15" cy="835.22" r="8.52" fill="url(#bea3af18-469f-4364-a924-73d5afa92fab)"/><circle cx="7187.5" cy="-7841.84" r="16.13" transform="translate(7897.28 9631.81) rotate(-76.72)" fill="url(#bc593632-982a-40cb-8533-bf26e9611ad4)"/><circle cx="1916.18" cy="835.16" r="8.52" fill="url(#a2dc366f-9e57-4490-abb3-642d0f89c21e)"/><path d="M7013.48-7876.45v2a5.76,5.76,0,0,1-5.76,5.76H6990.5a4.62,4.62,0,0,1-1.47-.24c.13-1,.29-1.93.5-2.85a27.4,27.4,0,0,1,2.71-7.33,25.69,25.69,0,0,1,1.62-2.6,1.21,1.21,0,0,1,1-.49h12.89A5.75,5.75,0,0,1,7013.48-7876.45Z" transform="translate(-5271.33 8677)" fill="url(#ab8c5059-3bd8-4ddd-90e3-806368b96d0c)"/><path d="M7229.73-7868.71h-4.35a4.67,4.67,0,0,1-4.74-4.58v-4.35a4.67,4.67,0,0,1,4.74-4.58h4.2a11.93,11.93,0,0,1,.13,1.89v11.62Z" transform="translate(-5271.33 8677)" fill="url(#ffb3a7e1-1129-4f93-9a24-0a7f71918a44)"/><path d="M7182.86-7896.3l-2.49-10.4a34.22,34.22,0,0,0-33.29-26.25h-12.23a1.17,1.17,0,0,0-1.18,1.16h0V-7896a1.18,1.18,0,0,0,1.18,1.18h46.87a1.17,1.17,0,0,0,1.18-1.17A.9.9,0,0,0,7182.86-7896.3Z" transform="translate(-5271.33 8677)" fill="url(#b9e2a4e9-220e-4f47-836a-adcc58514f4b)"/><path d="M7109.65-7932.95a52.35,52.35,0,0,0-43.55,23.31l-9.85,14.79h67.89v-38.1Z" transform="translate(-5271.33 8677)" fill="url(#f98439cd-d483-4889-ab9c-e6a74c6f1f78)"/><rect x="784.23" y="1067.15" width="2254.8" height="1618.67" rx="148.01" fill="url(#ac8da2c8-e4cf-44d1-8d30-c3ec0368c7d8)"/><path d="M8220-7398.86v1208a134.21,134.21,0,0,1-3.63,31.11c-14.15,59.66-68.12,104.06-132.54,104.06H6282.05c-75.21,0-136.15-60.51-136.15-135.17v-1208c0-74.66,60.94-135.18,136.15-135.18H8083.84C8159-7534,8220-7473.52,8220-7398.86Z" transform="translate(-5271.33 8677)" fill="#fff"/><path d="M5799.43-6184.85v45.67c0,81.74,81.32,148,181.64,148H8384.83c100.32,0,181.64-66.27,181.64-148v-45.67Z" transform="translate(-5271.33 8677)" fill="url(#f8ff6a8a-6241-4250-ac3f-03673628a12e)"/><path d="M6851.28-6184.85v16.45c0,29.43,19.5,53.3,43.55,53.3h576.24c24.05,0,43.55-23.87,43.55-53.3v-16.45Z" transform="translate(-5271.33 8677)" fill="url(#add2e589-72c2-4fbd-83b5-8b999928f7a2)"/><path d="M7292.23-7247.29c-98.77-115.55-235.41-187.17-386.09-202.73l-26,331.58c133.15,18.19,230.55,137.39,219.93,273.07a255,255,0,0,1-108.62,189.68l173.78,283.33c148-96.3,251.35-257.82,266.17-447.06C7443.69-6976,7394.26-7127.94,7292.23-7247.29Z" transform="translate(-5271.33 8677)" fill="url(#f017b9aa-0ceb-4ae8-97c4-8a86c840a5ca)"/><path d="M6850.37-7120.77l26-331.56q-15.78-.84-31.39-.86h-7.59c-2.19,0-4.37.07-6.56.12h-.14q-6.9.15-13.77.5h-.35c-224.23,10.85-419.82,149.4-508.5,348.69l307.31,127.14C6657.77-7064.31,6748.43-7122.86,6850.37-7120.77Z" transform="translate(-5271.33 8677)" fill="url(#ead08ab6-bf5a-4ec3-87c1-f04baafd63dd)"/><path d="M6850.37-7120.77l26-331.56q-15.78-.84-31.39-.86h-7.59c-2.19,0-4.37.07-6.56.12h-.14q-6.9.15-13.77.5h-.35c-224.23,10.85-419.82,149.4-508.5,348.69l307.31,127.14C6657.77-7064.31,6748.43-7122.86,6850.37-7120.77Z" transform="translate(-5271.33 8677)" fill="url(#acd85ac9-267d-46df-8152-3c7d69f0bcab)"/><path d="M6635.75-6719.19,6352.2-6545.27c.42.64.83,1.28,1.25,1.91l1.77,2.69,2.4,3.58,1.73,2.56c.87,1.28,1.76,2.55,2.64,3.83.53.75,1,1.5,1.57,2.24,1.1,1.58,2.22,3.15,3.34,4.72.32.43.63.88.94,1.31,1.44,2,2.9,4,4.36,6l1.23,1.64c1.07,1.43,2.14,2.87,3.23,4.29.55.73,1.1,1.45,1.66,2.17,1,1.24,1.91,2.49,2.87,3.72l1.82,2.32,2.81,3.54,1.89,2.35c.93,1.16,1.88,2.31,2.82,3.47l1.91,2.31,2.92,3.49,1.88,2.22,3.1,3.62c.58.67,1.16,1.35,1.75,2,1.19,1.37,2.4,2.73,3.61,4.09l1.3,1.48,5,5.56.32.35c1.58,1.7,3.15,3.4,4.73,5.09l1.59,1.67c1.18,1.24,2.35,2.48,3.54,3.71l1.92,2c1.09,1.12,2.19,2.23,3.29,3.35l2.06,2.07,3.22,3.21,2.13,2.09,3.25,3.15,2.13,2,3.37,3.19,2.05,1.92c1.22,1.14,2.45,2.26,3.69,3.39l1.79,1.64q2.39,2.17,4.82,4.32l.71.63c1.86,1.64,3.73,3.28,5.61,4.9l1.59,1.36c1.35,1.15,2.69,2.3,4,3.44l2.14,1.78,3.56,2.95,2.35,1.91,3.43,2.76,2.44,1.94,3.41,2.66c.82.65,1.65,1.29,2.48,1.93l3.47,2.64,2.43,1.84c1.22.92,2.45,1.82,3.67,2.72l.27.2c.16.11.33.21.49.33l.43.31c.92.67,1.84,1.35,2.76,2l.34.28,2.21,1.6,1.78,1.28.24.16,103.51-154.5L6691-6661.7A257,257,0,0,1,6635.75-6719.19Z" transform="translate(-5271.33 8677)" fill="url(#f24d8faa-4017-45bb-8385-a2dbec24646e)"/><path d="M6635.75-6719.19,6352.2-6545.27c.42.64.83,1.28,1.25,1.91l1.77,2.69,2.4,3.58,1.73,2.56c.87,1.28,1.76,2.55,2.64,3.83.53.75,1,1.5,1.57,2.24,1.1,1.58,2.22,3.15,3.34,4.72.32.43.63.88.94,1.31,1.44,2,2.9,4,4.36,6l1.23,1.64c1.07,1.43,2.14,2.87,3.23,4.29.55.73,1.1,1.45,1.66,2.17,1,1.24,1.91,2.49,2.87,3.72l1.82,2.32,2.81,3.54,1.89,2.35c.93,1.16,1.88,2.31,2.82,3.47l1.91,2.31,2.92,3.49,1.88,2.22,3.1,3.62c.58.67,1.16,1.35,1.75,2,1.19,1.37,2.4,2.73,3.61,4.09l1.3,1.48,5,5.56.32.35c1.58,1.7,3.15,3.4,4.73,5.09l1.59,1.67c1.18,1.24,2.35,2.48,3.54,3.71l1.92,2c1.09,1.12,2.19,2.23,3.29,3.35l2.06,2.07,3.22,3.21,2.13,2.09,3.25,3.15,2.13,2,3.37,3.19,2.05,1.92c1.22,1.14,2.45,2.26,3.69,3.39l1.79,1.64q2.39,2.17,4.82,4.32l.71.63c1.86,1.64,3.73,3.28,5.61,4.9l1.59,1.36c1.35,1.15,2.69,2.3,4,3.44l2.14,1.78,3.56,2.95,2.35,1.91,3.43,2.76,2.44,1.94,3.41,2.66c.82.65,1.65,1.29,2.48,1.93l3.47,2.64,2.43,1.84c1.22.92,2.45,1.82,3.67,2.72l.27.2c.16.11.33.21.49.33l.43.31c.92.67,1.84,1.35,2.76,2l.34.28,2.21,1.6,1.78,1.28.24.16,103.51-154.5L6691-6661.7A257,257,0,0,1,6635.75-6719.19Z" transform="translate(-5271.33 8677)" fill="url(#f10a0369-b6c5-4efb-971d-5b94db4c1579)"/><path d="M6444.36-6395.37c.25.22.51.43.77.64l.15.12.49.37-2.14-1.81C6443.87-6395.82,6444.1-6395.59,6444.36-6395.37Z" transform="translate(-5271.33 8677)" fill="#fff"/><path d="M6462.87-6380.16l.23.18c.17.14.36.26.54.39l-1.12-.88Z" transform="translate(-5271.33 8677)" fill="#fff"/><path d="M6498.47-6390.69l-.43-.31c-.16-.12-.33-.22-.49-.33l2,1.49,2,1.44-.34-.28Z" transform="translate(-5271.33 8677)" fill="#fff"/><path d="M6612.59-6491l-82,122.32q22.41,14.22,46,26.38l2.86,1.45c1.84.94,3.7,1.86,5.55,2.78l4.84,2.36,3.21,1.54c2.22,1,4.44,2.1,6.67,3.12l.5.23c2.17,1,4.36,2,6.54,2.93L6734-6635.26q-9.34-4.53-18.23-9.77Z" transform="translate(-5271.33 8677)" fill="url(#a7c26e8b-9ec7-4e8c-96e2-b9e4ce1a62bf)"/><path d="M6612.59-6491l-82,122.32q22.41,14.22,46,26.38l2.86,1.45c1.84.94,3.7,1.86,5.55,2.78l4.84,2.36,3.21,1.54c2.22,1,4.44,2.1,6.67,3.12l.5.23c2.17,1,4.36,2,6.54,2.93L6734-6635.26q-9.34-4.53-18.23-9.77Z" transform="translate(-5271.33 8677)" fill="url(#f6dcda5c-358a-4fbd-b60f-b597f4571f73)"/><path d="M6590.63-6885.25A256,256,0,0,1,6603.9-6949l-307.34-127.16q-10,26.05-17.62,53.31l-.13.46q-1.53,5.58-3,11.2c-.25,1-.5,1.92-.74,2.88-.42,1.7-.83,3.4-1.25,5.1-.37,1.53-.72,3.07-1.08,4.61q-.75,3.2-1.45,6.4c-.38,1.74-.75,3.48-1.13,5.23-.27,1.28-.54,2.57-.8,3.86-.53,2.59-1,5.19-1.54,7.79-.18.94-.34,1.87-.52,2.81-.42,2.28-.82,4.56-1.22,6.86-.18,1-.35,2-.52,3-.49,2.93-1,5.87-1.41,8.81-.08.48-.14,1-.22,1.46q-.59,4-1.13,8c-.11.86-.23,1.73-.34,2.59-.4,3.07-.79,6.16-1.14,9.24a1.87,1.87,0,0,1-.08.66q-.48,4.41-.93,8.83c-.07.8-.15,1.6-.23,2.4-.3,3.15-.58,6.31-.82,9.47-.26,3.4-.5,6.8-.7,10.2,0,.46-.07.93-.1,1.39a585.56,585.56,0,0,0,78.09,328.83l283.51-173.9A254.26,254.26,0,0,1,6590.63-6885.25Z" transform="translate(-5271.33 8677)" fill="url(#b7f40503-548f-41b4-9794-a36f0f17e7c8)"/><path d="M6590.63-6885.25A256,256,0,0,1,6603.9-6949l-307.34-127.16q-10,26.05-17.62,53.31l-.13.46q-1.53,5.58-3,11.2c-.25,1-.5,1.92-.74,2.88-.42,1.7-.83,3.4-1.25,5.1-.37,1.53-.72,3.07-1.08,4.61q-.75,3.2-1.45,6.4c-.38,1.74-.75,3.48-1.13,5.23-.27,1.28-.54,2.57-.8,3.86-.53,2.59-1,5.19-1.54,7.79-.18.94-.34,1.87-.52,2.81-.42,2.28-.82,4.56-1.22,6.86-.18,1-.35,2-.52,3-.49,2.93-1,5.87-1.41,8.81-.08.48-.14,1-.22,1.46q-.59,4-1.13,8c-.11.86-.23,1.73-.34,2.59-.4,3.07-.79,6.16-1.14,9.24a1.87,1.87,0,0,1-.08.66q-.48,4.41-.93,8.83c-.07.8-.15,1.6-.23,2.4-.3,3.15-.58,6.31-.82,9.47-.26,3.4-.5,6.8-.7,10.2,0,.46-.07.93-.1,1.39a585.56,585.56,0,0,0,78.09,328.83l283.51-173.9A254.26,254.26,0,0,1,6590.63-6885.25Z" transform="translate(-5271.33 8677)" fill="url(#a01d9a91-063e-4506-bf08-8e2628c9c62e)"/><path d="M6840.37-6609.84l-26,331.57c1.57.09,3.13.16,4.69.23l4.75.21c2.31.09,4.6.14,6.9.2,1.4,0,2.8.09,4.2.11,2.76.05,5.52.07,8.27.08h4c2.74,0,5.49,0,8.23-.08h2.68q4.5-.09,9-.25l2-.08q3.61-.15,7.21-.33l3.39-.18q3.73-.23,7.47-.48l4.34-.33,5.28-.43,4.56-.42,4.26-.42c2.91-.3,5.8-.62,8.7-1l2.52-.3a585,585,0,0,0,222.95-75L6966-6640A254.14,254.14,0,0,1,6840.37-6609.84Z" transform="translate(-5271.33 8677)" fill="url(#b465f429-fbe1-4c64-be9b-c2c91293483e)"/><path d="M6840.37-6609.84l-26,331.57c1.57.09,3.13.16,4.69.23l4.75.21c2.31.09,4.6.14,6.9.2,1.4,0,2.8.09,4.2.11,2.76.05,5.52.07,8.27.08h4c2.74,0,5.49,0,8.23-.08h2.68q4.5-.09,9-.25l2-.08q3.61-.15,7.21-.33l3.39-.18q3.73-.23,7.47-.48l4.34-.33,5.28-.43,4.56-.42,4.26-.42c2.91-.3,5.8-.62,8.7-1l2.52-.3a585,585,0,0,0,222.95-75L6966-6640A254.14,254.14,0,0,1,6840.37-6609.84Z" transform="translate(-5271.33 8677)" fill="url(#aeaa55cc-a605-4021-a942-10c785eb4f45)"/><path d="M6634.49-6316.45a590.47,590.47,0,0,0,126.53,33l1.4.21c2.38.33,4.75.65,7.13,1l2.88.37,5.9.7,4.06.46,2.21.22,26-331.58a254.59,254.59,0,0,1-48.91-11.66Z" transform="translate(-5271.33 8677)" fill="url(#f793e25e-3ef8-44c1-b03c-4dfe2b06a1d4)"/><path d="M6634.49-6316.45a590.47,590.47,0,0,0,126.53,33l1.4.21c2.38.33,4.75.65,7.13,1l2.88.37,5.9.7,4.06.46,2.21.22,26-331.58a254.59,254.59,0,0,1-48.91-11.66Z" transform="translate(-5271.33 8677)" fill="url(#aaf7cc7b-fd60-437b-bee3-2d78e42f690d)"/><circle cx="1574.05" cy="1811.69" r="209.16" fill="url(#ee1e45c9-2951-4126-bc95-81820e835aac)"/><circle cx="1574.05" cy="1811.68" r="183.96" fill="url(#e77fe00d-52fc-4f31-af92-9a1bc3b7364d)"/><path d="M6834.11-7012.45h34.29v23.53q41.52,3.26,71.89,26.27l-37.8,39.15q-20.64-14.43-34.71-18v49.63q78.72,19.92,78.71,73.85,0,27.14-20,45.68T6867.41-6748v29.88h-33.67v-29.53h-5.58q-19,0-44.41-8.93t-39.5-22.91l36.15-37.61a106.5,106.5,0,0,0,53.3,24.73V-6850q-37.6-7.91-57.33-27.48t-19.73-45.34q0-27.3,19.11-46.11t58.36-20.35Zm-.41,111.79v-42.24q-19.2,5.44-19.21,20.45,0,16.09,19.21,21.76Zm34.08,60.8v44.64q21.29-4.47,21.28-22.15,0-16.16-21.28-22.52Z" transform="translate(-5271.33 8677)" fill="url(#a9bc739b-736f-4121-b81f-5f4de8f729d9)"/><rect x="2270.77" y="1340.22" width="537.22" height="55.81" rx="2.8" fill="url(#a8e02ec3-e900-4341-b038-4f2390cfcf58)"/><rect x="2270.77" y="1488.07" width="537.22" height="55.81" rx="2.8" fill="url(#aeaab0ef-0b8c-4aca-93c8-b61b9be69798)"/><rect x="2270.77" y="1635.93" width="537.22" height="55.81" rx="2.8" fill="url(#ee21d590-9180-431b-9a57-4436a5f6c4b7)"/><rect x="2270.77" y="1783.79" width="537.22" height="55.81" rx="2.8" fill="url(#b77e3b23-618d-4c22-8eef-3ef12d797a14)"/><rect x="2270.77" y="1931.65" width="537.22" height="55.81" rx="2.8" fill="url(#a207933b-5bf0-45ef-9077-e5f4cc9d456f)"/><rect x="2270.77" y="2079.51" width="537.22" height="55.81" rx="2.8" fill="url(#a997a2a0-1968-488a-a6a9-635bba1ab13c)"/><rect x="2270.77" y="2227.37" width="537.22" height="55.81" rx="2.8" fill="url(#be44d427-4f23-440f-a1e7-0bfe88e56a33)"/><rect x="2270.77" y="1340.22" width="452.46" height="55.81" rx="2.8" fill="url(#b64083ce-6754-4c75-b185-5da6665d2039)"/><rect x="2270.77" y="1488.07" width="292.1" height="55.81" rx="2.8" fill="url(#f4b918c0-eb46-4b5e-af28-5e2fd88d46fd)"/><rect x="2270.77" y="1635.93" width="191.17" height="55.81" rx="2.8" fill="url(#b4fa393a-0637-45dc-9c9a-a204c4297a40)"/><rect x="2270.77" y="1783.79" width="96.63" height="55.81" rx="2.8" fill="url(#fba23230-826b-42f0-81b2-764b0482be1d)"/><rect x="2270.77" y="1931.65" width="36.37" height="55.81" rx="1.83" fill="url(#bbc450b4-233a-47b3-947a-06092dd9abef)"/><rect x="2270.77" y="2079.51" width="68.77" height="55.81" rx="2.8" fill="url(#b7c7be32-2a88-4e07-b11d-d290105fdea2)"/><rect x="2270.77" y="2227.37" width="150.94" height="55.81" rx="2.8" fill="url(#b624f9e9-ed4e-42a5-be90-fac64573fb4b)"/><circle cx="3097.03" cy="423.11" r="124.08" fill="url(#afa3aa20-2864-44be-9851-c67b6ffe995e)"/><circle cx="3097.03" cy="423.11" r="107.12" fill="#fff"/><path d="M8412.74-8302.67c-.37-.15-.75-.28-1.13-.42h0c-17.47-6-36.32,7.12-43.27,24.87-7-17.75-25.79-30.91-43.26-24.87h0l-1.14.42c-21.23,8.21-28.69,36.25-15.25,55.59,14.92,21.46,59.65,60,59.65,60s44.74-38.53,59.65-60C8441.43-8266.45,8434-8294.45,8412.74-8302.67Z" transform="translate(-5271.33 8677)" fill="url(#e426553d-fa1a-4ee4-bf7e-32d1873595ec)"/><polygon points="1143.94 661.36 1089.98 646.52 1118.37 543.29 1151.35 552.36 1143.94 661.36" fill="#efbc90"/><path d="M6497.87-8160.15c-2.54,44.88-21,85.75-49.16,88-26.38,2.09-61.7-32.35-69.23-79.48-7.92-49.62,10.93-79.88,49.84-82.38C6470.64-8236.69,6500.65-8209.35,6497.87-8160.15Z" transform="translate(-5271.33 8677)" fill="#f4caab"/><path d="M6425.17-8161.79c8.68-16.38,25.87-20.65,38.89-22.11s34.14,4.34,36.72-5-2.76-44.18-56-53.26c-48.22-8.21-78.36,18.83-90.39,53.37-10.52,30.23,7.21,65,31.29,60.29S6414.67-8142,6425.17-8161.79Z" transform="translate(-5271.33 8677)" fill="#3d4166"/><path d="M6422.67-8147.35c1.15,8-3.3,15.23-10,16.19s-13-4.72-14.13-12.7,3.29-15.23,9.94-16.19S6421.51-8155.33,6422.67-8147.35Z" transform="translate(-5271.33 8677)" fill="#f4caab"/><path d="M6442.63-8288.12c8,20.56-3.17,53.1-28.69,63s-55.72-6.54-63.71-27.09,10.78-33.51,36.3-43.43S6434.64-8308.67,6442.63-8288.12Z" transform="translate(-5271.33 8677)" fill="#3d4166"/><path d="M6673.89-7767.36c-.48,9.81-15.74,21.08-36.62,22.61-19.25,1.4-32-9.54-32.07-19.46C6605-7786.36,6674.63-7782.54,6673.89-7767.36Z" transform="translate(-5271.33 8677)" fill="#efbc90"/><path d="M6696.36-7658.92l-3.88-.71-278.11-51.45-48.94-9-12.18,105.34,49.74,2.29L6644.26-7601l-97.68,234.59-4.65,11.18,20.36,10,6-10.52,148.07-260.14a29.57,29.57,0,0,0,3.32-9.09A29.1,29.1,0,0,0,6696.36-7658.92Z" transform="translate(-5271.33 8677)" fill="#efbc90"/><path d="M6723.31-7644.37l-3.53-.65-308.55-56.81-48.92-9-12.72,104.61,49.66,3,287.9,17.24L6703-7288.83l.64,12.08,22.8.08.72-12.08,19.48-325.91A28.47,28.47,0,0,0,6723.31-7644.37Z" transform="translate(-5271.33 8677)" fill="#efbc90"/><path d="M6450.93-7735.64c35.26,56.84,244.88,37.18,275.09,78.91,40.29,55.67-125.28,270.84-125.28,270.84l-55.1-30.77s84.41-152.2,81-163.12c-4.32-13.86-234.36,19-296.61-33.53-48.33-40.8-24.46-122.33-24.46-122.33Z" transform="translate(-5271.33 8677)" fill="url(#acbb19e6-b03f-4169-8d91-eff5d31893bf)"/><path d="M6434.52-7735.64c30.76,69.83,280.8,44,316.25,104.91,28.61,49.11-.77,298.45-.77,298.45l-66.15-1.8s.36-212.28-12.59-226.69c-9.52-10.59-275,13.87-341.22-33.52-56.71-40.58-24.46-141.35-24.46-141.35Z" transform="translate(-5271.33 8677)" fill="url(#e4961021-c424-4d68-aa76-cdf50ec30e3b)"/><path d="M6422.7-7993l37.59,214.26-17.88-15.34,156.9,11.65,14.25,1.06-1.21,27.67-14.29-.19L6440.75-7756a18.37,18.37,0,0,1-17.66-14.35l-.22-1-47.19-212.36-5.21-23.41,48.09-9.55Z" transform="translate(-5271.33 8677)" fill="#efbc90"/><path d="M6348.65-7988c-3.71,51.28,29.45,184.51,81.75,230.33,31.06,27.21,134.48,8.94,134.48,8.94l5-40.37s-77.38,11.65-95-33.32-28.84-167.73-55-186.46C6396.85-8025.39,6350.32-8011.06,6348.65-7988Z" transform="translate(-5271.33 8677)" fill="url(#a42e8cef-1d4c-4535-9173-c85ca3bd499b)"/><path d="M6373.63-8035.45s28.5,26.68,58.41,10.48c0,0,6.54,107.53,18.24,151.69s46.57,160.33,46.57,160.33l-213.32-7C6281-7818,6321.61-7927.92,6373.63-8035.45Z" transform="translate(-5271.33 8677)" fill="#dbc6af"/><path d="M6363.77-8044.59s-106.93,149.14-91.47,312.48c0,0-9.8,31.66,106,31.08s123-16.34,123-16.34c-33.78-88.48-59-188.2-69.26-307.61C6432-8025,6388.73-8024.8,6363.77-8044.59Z" transform="translate(-5271.33 8677)" fill="url(#bffe7807-7e28-4748-9cab-fe9e84cf31bd)"/><path d="M6398.16-7959.62c-15.61,24.43-30.84,50-44.91,75.51-7,12.82-13.8,25.73-20,38.73a343.1,343.1,0,0,0-16.23,38.87c-1,3.21-1.94,6.26-2.75,9.39l-2.43,10.37c-1.48,7-2.93,14.12-4.22,21.32-2.6,14.37-4.89,28.93-7,43.55-4.16,29.23-7.73,58.8-10.73,88.19l-1.45,14.21-27.68-1.91.64-14.27c1.35-30.13,3.24-60,5.77-90,1.31-15,2.8-30.06,4.66-45.18.92-7.56,2-15.17,3.18-22.81l2-11.57c.83-4.14,1.82-8.31,2.9-12.26a382.56,382.56,0,0,1,15.88-44.6c6-14.24,12.35-28.11,19-41.83,13.33-27.45,27.34-54,42.51-80.66l11.8-20.88,42,25.64Z" transform="translate(-5271.33 8677)" fill="#f4caab"/><path d="M6350-8010.57c-38.33,34.26-63.08,114.81-81.7,181.81s-10.41,170.31-10.41,170.31l42.06,3.72s7-104.5,25.6-149.09,96-140.58,90.18-172.22C6410.64-8003.9,6367.25-8026,6350-8010.57Z" transform="translate(-5271.33 8677)" fill="url(#afc0ce65-07ad-4381-9555-1de732190902)"/><path d="M6260-7537.06c-9.54-2.36-16.53-25.23-12.4-54.11,3.81-26.62,18-42.14,27.81-40.56C6297.3-7628.19,6274.75-7533.45,6260-7537.06Z" transform="translate(-5271.33 8677)" fill="#f4caab"/><path d="M6288.16-7573.83c4.27-.65,8.11-11.84,7.25-26.71-.79-13.7-6.52-22.37-10.88-22.13C6274.79-7622.11,6281.56-7572.82,6288.16-7573.83Z" transform="translate(-5271.33 8677)" fill="#f4caab"/><path d="M6814.1-7264.23l-17.31-3.08h0l-63.31-24.51v.51s-.76,10.85-13.91,12.89c-9.69,1.51-16-1.07-18.61-2.54a3,3,0,0,0-1.43-.9c-4.23,0-7.66,6.91-7.66,15.44a28.86,28.86,0,0,0,1,7.68v11.85H6819v-12A5.36,5.36,0,0,0,6814.1-7264.23Z" transform="translate(-5271.33 8677)" fill="#3d4166"/><path d="M6619.52-7281.09l-11.75-13.08h0L6573-7352.45l-.32.4s-7.28,8.08-18.9,1.6c-8.56-4.78-11.92-10.68-13.1-13.46a3,3,0,0,0-.57-1.6c-3.33-2.6-10.29.74-15.54,7.46a29.17,29.17,0,0,0-3.93,6.69l-7.29,9.33,99.39,77.62,7.38-9.46A5.36,5.36,0,0,0,6619.52-7281.09Z" transform="translate(-5271.33 8677)" fill="#3d4166"/><path d="M6656.41-7784.92c-1.23-4.14-12.84-6.41-27.45-3.54-13.47,2.65-21.28,9.51-20.44,13.8C6610.4-7765.09,6658.31-7778.51,6656.41-7784.92Z" transform="translate(-5271.33 8677)" fill="#efbc90"/><path d="M6772.77-7907.62h0a9.65,9.65,0,0,0-12.12,6.29h0l-37.83,119.71H6609.35a9.66,9.66,0,0,0-9.68,9.65,9.67,9.67,0,0,0,9.65,9.69H6730a9.66,9.66,0,0,0,9.57-8.34l39.51-124.84a9.65,9.65,0,0,0-6.24-12.15Z" transform="translate(-5271.33 8677)" fill="url(#b6dbce56-4c5b-449c-8154-a113b3f34ecb)"/><polygon points="1451.48 895.39 1457.48 895.39 1494.25 777.68 1488.69 777.68 1451.48 895.39" fill="#fff"/><polygon points="3029.34 1566.95 3083.98 1566.95 3083.98 1462.41 3050.59 1462.41 3029.34 1566.95" fill="#efbc90"/><path d="M8260.3-7267.45c-9.24,42.91-2.41,86.18,23.49,95.56,24.3,8.81,66.47-14.48,85.76-56.9,20.31-44.66,10.4-78-25.58-90.46C8305.75-7332.51,8270.42-7314.53,8260.3-7267.45Z" transform="translate(-5271.33 8677)" fill="#f4caab"/><path d="M8336.52-7334.45c39.74,3.11,61.71,39.13,59.17,74.76-2.38,33.26-37.94,51-37.94,51s-11.73-33.76-31-39.14c-26.83-7.51-15.23-31.48-27.76-34.07-13.06-2.7-41.46-13.07-41-32.07C8276.43-7313.34,8291.89-7338,8336.52-7334.45Z" transform="translate(-5271.33 8677)" fill="#3d4166"/><path d="M8332.58-7240.82c-3.22,7.18-1,15.18,5,17.86s13.45-1,16.67-8.15,1-15.18-5-17.86S8335.8-7248,8332.58-7240.82Z" transform="translate(-5271.33 8677)" fill="#f4caab"/><path d="M8336.52-7248.45s-3,46.38-11.85,64c-7.71,15.34-41.38,31.18-59.72-5.22,0,0,18.56,3.87,16.46-4-2.47-9.25-21.58-9.35-21.58-9.35s-3.74-.18-4.41-3.62c-1-5.09,1.5-13.37,1.5-13.37s25.28,9,36.17,9c12.35,0,23.56-8.71,34-37.47Z" transform="translate(-5271.33 8677)" fill="#3d4166"/><path d="M8176.91-6226l50.23-281,34.11-138.44,34.36-138.72,11.67-47.16,98.52,31.42L8388-6754.64,8336.09-6623c-17.26,44-34.8,87.91-51.87,132l-84.38,270.52-3.52,11.28-21.48-5.24Z" transform="translate(-5271.33 8677)" fill="#efbc90"/><path d="M8358.42-6830.12l3.92,48.43,22.23,274.33L8592-6410.13l10.71,5-7.83,20.43-11.32-3.42L8345.68-6460a26.15,26.15,0,0,1-18-19.53l-.84-4-60.5-284.16-10.12-47.52Z" transform="translate(-5271.33 8677)" fill="#efbc90"/><polygon points="3148.93 1816.93 2964.78 1852.7 2907.21 2403.11 2968.98 2411.58 3148.93 1816.93" fill="url(#bd9d980a-55c0-48f0-bb97-9b5556c6e8d4)"/><path d="M8429.27-6823.34l-185.8-26s28.49,344.59,84.07,388.54c30.92,24.44,202.75,65.59,202.75,65.59l18.5-52.76s-129.36-52.36-140.18-68.55C8396.84-6534.09,8429.27-6823.34,8429.27-6823.34Z" transform="translate(-5271.33 8677)" fill="url(#abe55abf-e150-4b13-bfb0-46a61236c2a3)"/><path d="M8296.86-7090.86l-121.78,174,22.15-6.18-143.62-54.52-13-5-10.37,25,12.72,5.74,140,63.16a17.91,17.91,0,0,0,21.55-5.39l.6-.79,129.49-168.37Z" transform="translate(-5271.33 8677)" fill="#efbc90"/><path d="M8360.31-7055.85c-17.9,46.9-102.28,151.07-167.49,170-38.72,11.24-122.67-47.66-122.67-47.66l12.23-37.79s63.63,42.27,97.84,9.79S8275-7098,8305.91-7103.75C8333.11-7108.82,8368.36-7076.92,8360.31-7055.85Z" transform="translate(-5271.33 8677)" fill="url(#a32c3a63-3c07-4673-b88c-c8a8c8918042)"/><path d="M8351.56-7132.13s-28.66,25.13-57.33,8.38c0,0-9.81,104.72-22.63,147.45s-50.09,149.46-50.09,149.46l207.95,5.52C8435-6916.92,8398.9-7025.52,8351.56-7132.13Z" transform="translate(-5271.33 8677)" fill="#dbc6af"/><path d="M8361.48-7140.72s99.6,149,79.32,307.86c0,0,8.56,31.21-104.46,27s-119.49-19.86-119.49-19.86c35.78-85.27,63.57-181.78,77.38-298C8294.23-7123.75,8336.48-7122.2,8361.48-7140.72Z" transform="translate(-5271.33 8677)" fill="url(#b3fa757c-4c46-44ef-af88-35c51b0a6057)"/><path d="M8329-7066.91c14.18,24.5,27.94,50.07,40.57,75.6,6.3,12.8,12.35,25.69,17.88,38.63a335.36,335.36,0,0,1,14.15,38.62c.89,3.17,1.63,6.19,2.28,9.28l1.93,10.21c1.14,6.94,2.25,13.91,3.2,21,1.92,14.13,3.53,28.43,5,42.78,2.79,28.69,5,57.69,6.67,86.49l.8,13.93,27.09-.68V-6745c0-29.45-.58-58.65-1.76-88.09-.63-14.7-1.44-29.44-2.61-44.28-.56-7.41-1.31-14.88-2.12-22.38l-1.47-11.37c-.64-4.08-1.42-8.19-2.3-12.08a368.37,368.37,0,0,0-13.58-44.19c-5.19-14.15-10.83-28-16.7-41.62-11.83-27.35-24.35-53.82-38-80.51l-10.66-20.85-42,23.21Z" transform="translate(-5271.33 8677)" fill="#f4caab"/><path d="M8378.19-7114.54c35.93,35.07,56.6,114.71,71.89,180.86s2.86,166.61,2.86,166.61l-41.19,1.82s-2.35-102.24-18.57-146.54-87.55-141.25-80.56-171.87C8318.77-7110.63,8362.06-7130.29,8378.19-7114.54Z" transform="translate(-5271.33 8677)" fill="url(#b6d65705-7eef-4ce1-ab49-f08f3e5555d2)"/><path d="M7978.06-6992.58c-3.17,9.05,7.74,25.35,27.83,35.1,18.53,9,35.18,4.22,39-4.7C8053.3-6982.1,7983-7006.58,7978.06-6992.58Z" transform="translate(-5271.33 8677)" fill="#efbc90"/><path d="M8435.42-6649.07c9.56-.75,20-21.66,20.6-50.13.6-26.25-10.59-43.49-20.29-43.53C8414.08-6742.83,8420.62-6647.93,8435.42-6649.07Z" transform="translate(-5271.33 8677)" fill="#f4caab"/><path d="M8414.18-6689c-4-1.32-5.91-12.71-2.7-26.89,3-13.07,9.86-20.51,14-19.57C8434.79-6733.37,8420.38-6687,8414.18-6689Z" transform="translate(-5271.33 8677)" fill="#f4caab"/><path d="M8094.64-6195.17s14.2-3.76,18.13-5.17c15.71-5.65,56.38-22.31,56.38-22.31s5,8.08,17.56,9.65a33.25,33.25,0,0,0,16.33-2.19c4-.13,7.48,6.35,7.72,14.46a26.64,26.64,0,0,1-.75,7.33l.34,11.26-119.87,3.6-.34-11.41A5.1,5.1,0,0,1,8094.64-6195.17Z" transform="translate(-5271.33 8677)" fill="#3d4166"/><path d="M8587.34-6301s.55-14.69.34-18.86c-.82-16.67-4.91-60.43-4.91-60.43s9.19-2.44,14.35-14a33,33,0,0,0,2.67-16.26c1-3.88,8.25-5.3,16.08-3.17a26.59,26.59,0,0,1,6.8,2.86l10.86,3L8602-6292.11l-11-3A5.12,5.12,0,0,1,8587.34-6301Z" transform="translate(-5271.33 8677)" fill="#3d4166"/><rect x="8003.22" y="-7036.7" width="8.69" height="95" transform="translate(-1975.5 11215.1) rotate(-22.57)" fill="#3d4166"/><path d="M8004.12-7003.32c2.8-3.16,14-.37,25.74,8.21,10.82,7.91,14.9,17.2,12.39,20.65C8036.63-6966.77,7999.79-6998.45,8004.12-7003.32Z" transform="translate(-5271.33 8677)" fill="#efbc90"/><path d="M8617.47-7790.29c-57.29-63.9-394.22-67-460.42-28-100.62,59.3-28.74,304.9,17.53,332,12.93,7.58,30.77,15.65,51.43,24.48,17.51,34.32,42.63,69.86,78.23,95.87,0,0-15-39.85-9.41-69.34,81.11,28.2,178.86,52,245.52,43.8C8648.32-7404.69,8674.76-7726.39,8617.47-7790.29Z" transform="translate(-5271.33 8677)" fill="url(#e8703d1f-f781-4829-b26a-8aa21f07ee25)"/><path d="M8371-7771.88h32.63v22.43q39.51,3.12,68.41,25l-36,37.25q-19.65-13.71-33-17.15v47.22q74.89,19,74.89,70.27,0,25.81-19.06,43.47t-56.22,23.2v28.43h-32v-28.1h-5.31q-18.09,0-42.26-8.5t-37.55-21.73l34.4-35.79a101.41,101.41,0,0,0,50.72,23.53v-54.9q-35.79-7.53-54.55-26.15t-18.78-43.14q0-26,18.19-43.88t55.53-19.36Zm-.39,106.38v-40.2q-18.29,5.23-18.29,19.45,0,15.34,18.32,20.8Zm32.43,57.85v42.48q20.25-4.24,20.25-21.08,0-15.36-20.22-21.4Z" transform="translate(-5271.33 8677)" fill="url(#ecb2bcc3-1912-4c38-a3cd-0035faa02c47)"/></svg>