<svg id="_ÎÓÈ_1" data-name="—ÎÓÈ_1" xmlns="http://www.w3.org/2000/svg" xmlns:xlink="http://www.w3.org/1999/xlink" viewBox="0 0 3857.35 2954"><defs><linearGradient id="_ÂÁ_Ï_ÌÌ_È_ËÂÌÚ_5462" x1="1705.95" y1="-144.32" x2="3025.95" y2="3807.69" gradientUnits="userSpaceOnUse"><stop offset="0.29" stop-color="#fdfbef"/><stop offset="1" stop-color="#f6d9c9"/></linearGradient><linearGradient id="_ÂÁ_Ï_ÌÌ_È_ËÂÌÚ_5514" x1="4253.23" y1="1806.92" x2="3596.17" y2="2049.95" gradientUnits="userSpaceOnUse"><stop offset="0" stop-color="#bcbf82"/><stop offset="1" stop-color="#5ea88f"/></linearGradient><linearGradient id="_ÂÁ_Ï_ÌÌ_È_ËÂÌÚ_5563" x1="4245.15" y1="2113.39" x2="3726.17" y2="2411.88" gradientUnits="userSpaceOnUse"><stop offset="0" stop-color="#5ea88f"/><stop offset="1" stop-color="#556d80"/></linearGradient><linearGradient id="_ÂÁ_Ï_ÌÌ_È_ËÂÌÚ_5514-2" x1="321.62" y1="1424.6" x2="1422.73" y2="2120.67" xlink:href="#_ÂÁ_Ï_ÌÌ_È_ËÂÌÚ_5514"/><linearGradient id="_ÂÁ_Ï_ÌÌ_È_ËÂÌÚ_80" x1="5511.46" y1="5753.36" x2="4307.44" y2="5753.36" gradientTransform="matrix(0, 1, -1, 0, 6978.25, -3299.86)" gradientUnits="userSpaceOnUse"><stop offset="0" stop-color="#fff"/><stop offset="1" stop-color="#fdf7e2"/></linearGradient><linearGradient id="_ÂÁ_Ï_ÌÌ_È_ËÂÌÚ_5563-2" x1="1916.27" y1="727.03" x2="980.17" y2="1924.15" xlink:href="#_ÂÁ_Ï_ÌÌ_È_ËÂÌÚ_5563"/><linearGradient id="_ÂÁ_Ï_ÌÌ_È_ËÂÌÚ_5563-3" x1="1427.73" y1="1236.56" x2="1215.73" y2="1618.56" gradientTransform="translate(1490.34 -398.47) rotate(45)" xlink:href="#_ÂÁ_Ï_ÌÌ_È_ËÂÌÚ_5563"/><linearGradient id="_ÂÁ_Ï_ÌÌ_È_ËÂÌÚ_5563-4" x1="4511.67" y1="5747.49" x2="5272.59" y2="5747.49" gradientTransform="translate(8443.7 5088.59) rotate(156.51)" xlink:href="#_ÂÁ_Ï_ÌÌ_È_ËÂÌÚ_5563"/><linearGradient id="_ÂÁ_Ï_ÌÌ_È_ËÂÌÚ_5563-5" x1="4511.67" y1="5747.5" x2="5272.59" y2="5747.5" gradientTransform="matrix(0.4, 0.92, -0.92, 0.4, 4092.39, -5320.88)" xlink:href="#_ÂÁ_Ï_ÌÌ_È_ËÂÌÚ_5563"/><linearGradient id="_ÂÁ_Ï_ÌÌ_È_ËÂÌÚ_80-2" x1="774.11" y1="-1520.04" x2="577.25" y2="-1520.04" gradientTransform="translate(2228.34 2925.2) rotate(-60.84)" xlink:href="#_ÂÁ_Ï_ÌÌ_È_ËÂÌÚ_80"/><linearGradient id="_ÂÁ_Ï_ÌÌ_È_ËÂÌÚ_80-3" x1="1471.16" y1="3553.05" x2="253.99" y2="3553.05" gradientTransform="translate(4712.6 1076.9) rotate(90)" xlink:href="#_ÂÁ_Ï_ÌÌ_È_ËÂÌÚ_80"/><linearGradient id="_ÂÁ_Ï_ÌÌ_È_ËÂÌÚ_5563-6" x1="1128.57" y1="1001.92" x2="1170.58" y2="2280.05" xlink:href="#_ÂÁ_Ï_ÌÌ_È_ËÂÌÚ_5563"/><linearGradient id="_ÂÁ_Ï_ÌÌ_È_ËÂÌÚ_5563-7" x1="670.79" y1="3547.12" x2="1029.97" y2="3547.12" gradientTransform="matrix(0.7, 0.72, -0.72, 0.7, 2634.83, -1298.7)" xlink:href="#_ÂÁ_Ï_ÌÌ_È_ËÂÌÚ_5563"/><linearGradient id="_ÂÁ_Ï_ÌÌ_È_ËÂÌÚ_5563-8" x1="460.45" y1="3547.11" x2="1229.68" y2="3547.11" gradientTransform="matrix(-0.01, 1, -1, -0.01, 4952.37, 1033.7)" xlink:href="#_ÂÁ_Ï_ÌÌ_È_ËÂÌÚ_5563"/><linearGradient id="_ÂÁ_Ï_ÌÌ_È_ËÂÌÚ_5563-9" x1="460.45" y1="3547.12" x2="1229.68" y2="3547.12" gradientTransform="translate(4346.51 619.75) rotate(80.98)" xlink:href="#_ÂÁ_Ï_ÌÌ_È_ËÂÌÚ_5563"/><linearGradient id="_ÂÁ_Ï_ÌÌ_È_ËÂÌÚ_80-4" x1="3343.73" y1="4662.23" x2="3162.37" y2="4662.23" gradientTransform="translate(4758.96 -2462.48) rotate(74.16)" xlink:href="#_ÂÁ_Ï_ÌÌ_È_ËÂÌÚ_80"/><linearGradient id="_ÂÁ_Ï_ÌÌ_È_ËÂÌÚ_5514-3" x1="867.15" y1="1667.13" x2="1259.15" y2="2189.13" xlink:href="#_ÂÁ_Ï_ÌÌ_È_ËÂÌÚ_5514"/><linearGradient id="_ÂÁ_Ï_ÌÌ_È_ËÂÌÚ_5514-4" x1="849.02" y1="2060.71" x2="1613.02" y2="2744.71" xlink:href="#_ÂÁ_Ï_ÌÌ_È_ËÂÌÚ_5514"/><linearGradient id="_ÂÁ_Ï_ÌÌ_È_ËÂÌÚ_5508" x1="3485.32" y1="2413.89" x2="4774.46" y2="2413.89" gradientUnits="userSpaceOnUse"><stop offset="0" stop-color="#79bada"/><stop offset="1" stop-color="#555ea3"/></linearGradient><linearGradient id="_ÂÁ_Ï_ÌÌ_È_ËÂÌÚ_5504" x1="3161.24" y1="2239.39" x2="4033.49" y2="2239.39" gradientTransform="translate(7052.72 4543.27) rotate(180)" gradientUnits="userSpaceOnUse"><stop offset="0" stop-color="#555ea3"/><stop offset="1" stop-color="#51537a"/></linearGradient><linearGradient id="_ÂÁ_Ï_ÌÌ_È_ËÂÌÚ_13" x1="3027.5" y1="2531.91" x2="4035.03" y2="2531.91" gradientTransform="translate(7553.71 5128.55) rotate(180)" gradientUnits="userSpaceOnUse"><stop offset="0.03" stop-color="#fdf7e2"/><stop offset="1" stop-color="#fce1aa"/></linearGradient><linearGradient id="_ÂÁ_Ï_ÌÌ_È_ËÂÌÚ_13-2" x1="3027.5" y1="2531.9" x2="4035.03" y2="2531.9" gradientTransform="translate(6738.17 5128.13) rotate(180)" xlink:href="#_ÂÁ_Ï_ÌÌ_È_ËÂÌÚ_13"/><linearGradient id="_ÂÁ_Ï_ÌÌ_È_ËÂÌÚ_13-3" x1="3027.5" y1="2419.45" x2="4035.04" y2="2419.45" gradientTransform="translate(7052.54 4903.38) rotate(180)" xlink:href="#_ÂÁ_Ï_ÌÌ_È_ËÂÌÚ_13"/><linearGradient id="_ÂÁ_Ï_ÌÌ_È_ËÂÌÚ_12" x1="2883.1" y1="308.18" x2="3557.21" y2="305.31" gradientTransform="translate(1138.75 -2135.07) rotate(45)" gradientUnits="userSpaceOnUse"><stop offset="0" stop-color="#e0eff6"/><stop offset="1" stop-color="#81abd0"/></linearGradient><linearGradient id="_ÂÁ_Ï_ÌÌ_È_ËÂÌÚ_2442" x1="3118.09" y1="309.61" x2="3330.26" y2="330.72" gradientUnits="userSpaceOnUse"><stop offset="0" stop-color="#fcce79"/><stop offset="1" stop-color="#e57f54"/></linearGradient><linearGradient id="_ÂÁ_Ï_ÌÌ_È_ËÂÌÚ_54" x1="3082.94" y1="278.41" x2="3090.85" y2="278.41" gradientUnits="userSpaceOnUse"><stop offset="0" stop-color="#e57f54"/><stop offset="1" stop-color="#d8513e"/></linearGradient><linearGradient id="_ÂÁ_Ï_ÌÌ_È_ËÂÌÚ_54-2" x1="3160.37" y1="259.42" x2="3160.37" y2="241.35" xlink:href="#_ÂÁ_Ï_ÌÌ_È_ËÂÌÚ_54"/><linearGradient id="_ÂÁ_Ï_ÌÌ_È_ËÂÌÚ_2442-2" x1="2187.81" y1="635.7" x2="2976.85" y2="632.35" xlink:href="#_ÂÁ_Ï_ÌÌ_È_ËÂÌÚ_2442"/><linearGradient id="_ÂÁ_Ï_ÌÌ_È_ËÂÌÚ_2442-3" x1="3165.09" y1="740.49" x2="3173.88" y2="677.28" xlink:href="#_ÂÁ_Ï_ÌÌ_È_ËÂÌÚ_2442"/><linearGradient id="_ÂÁ_Ï_ÌÌ_È_ËÂÌÚ_2442-4" x1="3185.75" y1="709.77" x2="3248.63" y2="704.4" xlink:href="#_ÂÁ_Ï_ÌÌ_È_ËÂÌÚ_2442"/><linearGradient id="_ÂÁ_Ï_ÌÌ_È_ËÂÌÚ_13-4" x1="2533.97" y1="659.13" x2="2844.66" y2="659.13" gradientTransform="matrix(1, 0, 0, 1, 0, 0)" xlink:href="#_ÂÁ_Ï_ÌÌ_È_ËÂÌÚ_13"/><linearGradient id="_ÂÁ_Ï_ÌÌ_È_ËÂÌÚ_5530" x1="2541.3" y1="604.77" x2="3019.12" y2="604.77" gradientUnits="userSpaceOnUse"><stop offset="0" stop-color="#fce1aa"/><stop offset="1" stop-color="#fcce79"/></linearGradient><linearGradient id="_ÂÁ_Ï_ÌÌ_È_ËÂÌÚ_2442-5" x1="5699.36" y1="5463.67" x2="6345.24" y2="5463.67" gradientTransform="translate(-2580.96 -4660.09)" xlink:href="#_ÂÁ_Ï_ÌÌ_È_ËÂÌÚ_2442"/><linearGradient id="_ÂÁ_Ï_ÌÌ_È_ËÂÌÚ_54-3" x1="1722.8" y1="562.59" x2="2266.62" y2="560.27" gradientTransform="translate(1009.16 -1314.3) rotate(45)" xlink:href="#_ÂÁ_Ï_ÌÌ_È_ËÂÌÚ_54"/><linearGradient id="_ÂÁ_Ï_ÌÌ_È_ËÂÌÚ_5504-2" x1="2000.36" y1="566.57" x2="2165.17" y2="566.57" gradientTransform="matrix(1, 0, 0, 1, 0, 0)" xlink:href="#_ÂÁ_Ï_ÌÌ_È_ËÂÌÚ_5504"/><linearGradient id="_ÂÁ_Ï_ÌÌ_È_ËÂÌÚ_5530-2" x1="2006.78" y1="496.97" x2="2961.47" y2="492.91" gradientTransform="translate(1126.6 -1731.42) rotate(45)" xlink:href="#_ÂÁ_Ï_ÌÌ_È_ËÂÌÚ_5530"/><linearGradient id="_ÂÁ_Ï_ÌÌ_È_ËÂÌÚ_5504-3" x1="2222.94" y1="262.97" x2="2278.81" y2="262.74" gradientTransform="matrix(1, 0, 0, 1, 0, 0)" xlink:href="#_ÂÁ_Ï_ÌÌ_È_ËÂÌÚ_5504"/><linearGradient id="_ÂÁ_Ï_ÌÌ_È_ËÂÌÚ_5508-2" x1="2251.63" y1="414.86" x2="2844.38" y2="412.34" xlink:href="#_ÂÁ_Ï_ÌÌ_È_ËÂÌÚ_5508"/><linearGradient id="_ÂÁ_Ï_ÌÌ_È_ËÂÌÚ_5504-4" x1="2600.9" y1="569.29" x2="2639.93" y2="569.12" gradientTransform="translate(2768.3 -2115.4) rotate(80.78)" xlink:href="#_ÂÁ_Ï_ÌÌ_È_ËÂÌÚ_5504"/><linearGradient id="_ÂÁ_Ï_ÌÌ_È_ËÂÌÚ_5504-5" x1="2547.65" y1="505.11" x2="2758.58" y2="504.21" gradientTransform="matrix(1, 0, 0, 1, 0, 0)" xlink:href="#_ÂÁ_Ï_ÌÌ_È_ËÂÌÚ_5504"/><linearGradient id="_ÂÁ_Ï_ÌÌ_È_ËÂÌÚ_5504-6" x1="2434.34" y1="1033.23" x2="2961.72" y2="1030.98" gradientTransform="translate(1547.13 -1671.7) rotate(45)" xlink:href="#_ÂÁ_Ï_ÌÌ_È_ËÂÌÚ_5504"/><linearGradient id="_ÂÁ_Ï_ÌÌ_È_ËÂÌÚ_5504-7" x1="2764.72" y1="1046" x2="2840.04" y2="1046" gradientTransform="matrix(1, 0, 0, 1, 0, 0)" xlink:href="#_ÂÁ_Ï_ÌÌ_È_ËÂÌÚ_5504"/><linearGradient id="_ÂÁ_Ï_ÌÌ_È_ËÂÌÚ_5508-3" x1="2242.72" y1="858.27" x2="2405.86" y2="858.27" xlink:href="#_ÂÁ_Ï_ÌÌ_È_ËÂÌÚ_5508"/><linearGradient id="_ÂÁ_Ï_ÌÌ_È_ËÂÌÚ_12-2" x1="2814.35" y1="1052.58" x2="2813.58" y2="1001.05" gradientTransform="matrix(1, 0, 0, 1, 0, 0)" xlink:href="#_ÂÁ_Ï_ÌÌ_È_ËÂÌÚ_12"/><linearGradient id="_ÂÁ_Ï_ÌÌ_È_ËÂÌÚ_12-3" x1="2832.66" y1="1064.65" x2="2835.35" y2="1052.07" gradientTransform="matrix(1, 0, 0, 1, 0, 0)" xlink:href="#_ÂÁ_Ï_ÌÌ_È_ËÂÌÚ_12"/><linearGradient id="_ÂÁ_Ï_ÌÌ_È_ËÂÌÚ_12-4" x1="2835.99" y1="1065.78" x2="2835.8" y2="1052.83" gradientTransform="matrix(1, 0, 0, 1, 0, 0)" xlink:href="#_ÂÁ_Ï_ÌÌ_È_ËÂÌÚ_12"/><linearGradient id="_ÂÁ_Ï_ÌÌ_È_ËÂÌÚ_12-5" x1="2838.71" y1="1063.66" x2="2837.08" y2="1052.46" gradientTransform="matrix(1, 0, 0, 1, 0, 0)" xlink:href="#_ÂÁ_Ï_ÌÌ_È_ËÂÌÚ_12"/><linearGradient id="_ÂÁ_Ï_ÌÌ_È_ËÂÌÚ_5508-4" x1="2361.07" y1="908.4" x2="2367.93" y2="908.4" xlink:href="#_ÂÁ_Ï_ÌÌ_È_ËÂÌÚ_5508"/><linearGradient id="_ÂÁ_Ï_ÌÌ_È_ËÂÌÚ_5504-8" x1="2798.06" y1="1005.71" x2="2784.49" y2="999.55" gradientTransform="matrix(1, 0, 0, 1, 0, 0)" xlink:href="#_ÂÁ_Ï_ÌÌ_È_ËÂÌÚ_5504"/><linearGradient id="_ÂÁ_Ï_ÌÌ_È_ËÂÌÚ_5508-5" x1="1832.55" y1="944.23" x2="2536.42" y2="941.24" gradientTransform="translate(1342.6 -1356.9) rotate(45)" xlink:href="#_ÂÁ_Ï_ÌÌ_È_ËÂÌÚ_5508"/><linearGradient id="_ÂÁ_Ï_ÌÌ_È_ËÂÌÚ_5508-6" x1="2309.22" y1="1012" x2="2309.22" y2="835.95" xlink:href="#_ÂÁ_Ï_ÌÌ_È_ËÂÌÚ_5508"/><linearGradient id="_ÂÁ_Ï_ÌÌ_È_ËÂÌÚ_5504-9" x1="2219.35" y1="979.68" x2="2251.6" y2="979.68" gradientTransform="translate(1347.5 -1293.78) rotate(45)" xlink:href="#_ÂÁ_Ï_ÌÌ_È_ËÂÌÚ_5504"/><linearGradient id="_ÂÁ_Ï_ÌÌ_È_ËÂÌÚ_5508-7" x1="2226.96" y1="979.68" x2="2244" y2="979.68" gradientTransform="translate(1347.5 -1293.78) rotate(45)" xlink:href="#_ÂÁ_Ï_ÌÌ_È_ËÂÌÚ_5508"/><linearGradient id="_ÂÁ_Ï_ÌÌ_È_ËÂÌÚ_5504-10" x1="2371.48" y1="979.68" x2="2403.73" y2="979.68" gradientTransform="translate(2792.52 -1569.14) rotate(76.72)" xlink:href="#_ÂÁ_Ï_ÌÌ_È_ËÂÌÚ_5504"/><linearGradient id="_ÂÁ_Ï_ÌÌ_È_ËÂÌÚ_5508-8" x1="2379.09" y1="979.68" x2="2396.13" y2="979.68" gradientTransform="translate(2792.52 -1569.14) rotate(76.72)" xlink:href="#_ÂÁ_Ï_ÌÌ_È_ËÂÌÚ_5508"/><linearGradient id="_ÂÁ_Ï_ÌÌ_È_ËÂÌÚ_12-6" x1="2189.04" y1="945.99" x2="2213.49" y2="945.99" gradientTransform="matrix(1, 0, 0, 1, 0, 0)" xlink:href="#_ÂÁ_Ï_ÌÌ_È_ËÂÌÚ_12"/><linearGradient id="_ÂÁ_Ï_ÌÌ_È_ËÂÌÚ_12-7" x1="2420.65" y1="945.99" x2="2429.74" y2="945.99" gradientTransform="matrix(1, 0, 0, 1, 0, 0)" xlink:href="#_ÂÁ_Ï_ÌÌ_È_ËÂÌÚ_12"/><linearGradient id="_ÂÁ_Ï_ÌÌ_È_ËÂÌÚ_12-8" x1="2246.35" y1="907.55" x2="2386.64" y2="907.55" gradientTransform="matrix(1, 0, 0, 1, 0, 0)" xlink:href="#_ÂÁ_Ï_ÌÌ_È_ËÂÌÚ_12"/><linearGradient id="_ÂÁ_Ï_ÌÌ_È_ËÂÌÚ_12-9" x1="2245.79" y1="907.55" x2="2386.98" y2="907.55" gradientTransform="matrix(1, 0, 0, 1, 0, 0)" xlink:href="#_ÂÁ_Ï_ÌÌ_È_ËÂÌÚ_12"/><linearGradient id="_ÂÁ_Ï_ÌÌ_È_ËÂÌÚ_5508-9" x1="784.23" y1="1876.49" x2="3039.04" y2="1876.49" xlink:href="#_ÂÁ_Ï_ÌÌ_È_ËÂÌÚ_5508"/><linearGradient id="_ÂÁ_Ï_ÌÌ_È_ËÂÌÚ_5508-10" x1="999.44" y1="2733.44" x2="3766.48" y2="2733.44" xlink:href="#_ÂÁ_Ï_ÌÌ_È_ËÂÌÚ_5508"/><linearGradient id="_ÂÁ_Ï_ÌÌ_È_ËÂÌÚ_5504-11" x1="2051.29" y1="2671.47" x2="2714.63" y2="2671.47" gradientTransform="matrix(1, 0, 0, 1, 0, 0)" xlink:href="#_ÂÁ_Ï_ÌÌ_È_ËÂÌÚ_5504"/><linearGradient id="_ÂÁ_Ï_ÌÌ_È_ËÂÌÚ_5530-3" x1="1530.38" y1="1656.74" x2="2735.95" y2="1656.74" gradientTransform="translate(52.57 77.57) rotate(4.47)" xlink:href="#_ÂÁ_Ï_ÌÌ_È_ËÂÌÚ_5530"/><linearGradient id="_ÂÁ_Ï_ÌÌ_È_ËÂÌÚ_57" x1="1530.36" y1="1376.98" x2="2735.99" y2="1376.98" gradientTransform="translate(52.57 77.57) rotate(4.47)" gradientUnits="userSpaceOnUse"><stop offset="0" stop-color="#ffe2e4"/><stop offset="1" stop-color="#ffc1c2"/></linearGradient><linearGradient id="_ÂÁ_Ï_ÌÌ_È_ËÂÌÚ_5508-11" x1="1304.45" y1="1376.98" x2="2479.38" y2="1376.98" gradientTransform="translate(52.57 77.57) rotate(4.47)" xlink:href="#_ÂÁ_Ï_ÌÌ_È_ËÂÌÚ_5508"/><linearGradient id="_ÂÁ_Ï_ÌÌ_È_ËÂÌÚ_57-2" x1="1530.34" y1="2050.82" x2="2735.95" y2="2050.82" xlink:href="#_ÂÁ_Ï_ÌÌ_È_ËÂÌÚ_57"/><linearGradient id="_ÂÁ_Ï_ÌÌ_È_ËÂÌÚ_5504-12" x1="1485.89" y1="2050.82" x2="3280.49" y2="2050.82" gradientTransform="translate(52.57 77.57) rotate(4.47)" xlink:href="#_ÂÁ_Ï_ÌÌ_È_ËÂÌÚ_5504"/><linearGradient id="_ÂÁ_Ï_ÌÌ_È_ËÂÌÚ_57-3" x1="1530.31" y1="2109.35" x2="2735.98" y2="2109.35" xlink:href="#_ÂÁ_Ï_ÌÌ_È_ËÂÌÚ_57"/><linearGradient id="_ÂÁ_Ï_ÌÌ_È_ËÂÌÚ_12-10" x1="1447.59" y1="2312.25" x2="2342.54" y2="2361.42" gradientTransform="matrix(1, 0, 0, 1, 0, 0)" xlink:href="#_ÂÁ_Ï_ÌÌ_È_ËÂÌÚ_12"/><linearGradient id="_ÂÁ_Ï_ÌÌ_È_ËÂÌÚ_57-4" x1="1530.36" y1="1800.28" x2="2735.93" y2="1800.28" xlink:href="#_ÂÁ_Ï_ÌÌ_È_ËÂÌÚ_57"/><linearGradient id="_ÂÁ_Ï_ÌÌ_È_ËÂÌÚ_54-4" x1="1500.33" y1="1800.28" x2="2743.48" y2="1800.28" gradientTransform="translate(52.57 77.57) rotate(4.47)" xlink:href="#_ÂÁ_Ï_ÌÌ_È_ËÂÌÚ_54"/><linearGradient id="_ÂÁ_Ï_ÌÌ_È_ËÂÌÚ_57-5" x1="1530.32" y1="2118.74" x2="2735.93" y2="2118.74" xlink:href="#_ÂÁ_Ï_ÌÌ_È_ËÂÌÚ_57"/><linearGradient id="_ÂÁ_Ï_ÌÌ_È_ËÂÌÚ_98" x1="2075.13" y1="2118.74" x2="3298.71" y2="2118.74" gradientTransform="translate(52.57 77.57) rotate(4.47)" gradientUnits="userSpaceOnUse"><stop offset="0" stop-color="#9dcde4"/><stop offset="1" stop-color="#6689bd"/></linearGradient><linearGradient id="_ÂÁ_Ï_ÌÌ_È_ËÂÌÚ_57-6" x1="1530.29" y1="2134.78" x2="2735.99" y2="2134.78" xlink:href="#_ÂÁ_Ï_ÌÌ_È_ËÂÌÚ_57"/><linearGradient id="_ÂÁ_Ï_ÌÌ_È_ËÂÌÚ_2442-6" x1="1533.04" y1="2134.78" x2="2736.01" y2="2134.78" gradientTransform="translate(52.57 77.57) rotate(4.47)" xlink:href="#_ÂÁ_Ï_ÌÌ_È_ËÂÌÚ_2442"/><linearGradient id="_ÂÁ_Ï_ÌÌ_È_ËÂÌÚ_2442-7" x1="1428.84" y1="1666.47" x2="1725.17" y2="1962.81" xlink:href="#_ÂÁ_Ï_ÌÌ_È_ËÂÌÚ_2442"/><linearGradient id="_ÂÁ_Ï_ÌÌ_È_ËÂÌÚ_5530-4" x1="1861.42" y1="1956.14" x2="2229.34" y2="1956.14" gradientTransform="translate(1982.28 -873.36) rotate(45)" xlink:href="#_ÂÁ_Ï_ÌÌ_È_ËÂÌÚ_5530"/><linearGradient id="_ÂÁ_Ï_ÌÌ_È_ËÂÌÚ_2442-8" x1="1944.26" y1="1956.14" x2="2146.5" y2="1956.14" xlink:href="#_ÂÁ_Ï_ÌÌ_È_ËÂÌÚ_2442"/><linearGradient id="_ÂÁ_Ï_ÌÌ_È_ËÂÌÚ_80-5" x1="2270.77" y1="1368.12" x2="2807.98" y2="1368.12" gradientTransform="matrix(1, 0, 0, 1, 0, 0)" xlink:href="#_ÂÁ_Ï_ÌÌ_È_ËÂÌÚ_80"/><linearGradient id="_ÂÁ_Ï_ÌÌ_È_ËÂÌÚ_80-6" x1="2270.77" y1="1515.98" x2="2807.98" y2="1515.98" gradientTransform="matrix(1, 0, 0, 1, 0, 0)" xlink:href="#_ÂÁ_Ï_ÌÌ_È_ËÂÌÚ_80"/><linearGradient id="_ÂÁ_Ï_ÌÌ_È_ËÂÌÚ_80-7" x1="2270.77" y1="1663.84" x2="2807.98" y2="1663.84" gradientTransform="matrix(1, 0, 0, 1, 0, 0)" xlink:href="#_ÂÁ_Ï_ÌÌ_È_ËÂÌÚ_80"/><linearGradient id="_ÂÁ_Ï_ÌÌ_È_ËÂÌÚ_80-8" x1="2270.77" y1="1811.69" x2="2807.98" y2="1811.69" gradientTransform="matrix(1, 0, 0, 1, 0, 0)" xlink:href="#_ÂÁ_Ï_ÌÌ_È_ËÂÌÚ_80"/><linearGradient id="_ÂÁ_Ï_ÌÌ_È_ËÂÌÚ_80-9" x1="2270.77" y1="1959.55" x2="2807.98" y2="1959.55" gradientTransform="matrix(1, 0, 0, 1, 0, 0)" xlink:href="#_ÂÁ_Ï_ÌÌ_È_ËÂÌÚ_80"/><linearGradient id="_ÂÁ_Ï_ÌÌ_È_ËÂÌÚ_80-10" x1="2270.77" y1="2107.41" x2="2807.98" y2="2107.41" gradientTransform="matrix(1, 0, 0, 1, 0, 0)" xlink:href="#_ÂÁ_Ï_ÌÌ_È_ËÂÌÚ_80"/><linearGradient id="_ÂÁ_Ï_ÌÌ_È_ËÂÌÚ_80-11" x1="2270.77" y1="2255.27" x2="2807.98" y2="2255.27" gradientTransform="matrix(1, 0, 0, 1, 0, 0)" xlink:href="#_ÂÁ_Ï_ÌÌ_È_ËÂÌÚ_80"/><linearGradient id="_ÂÁ_Ï_ÌÌ_È_ËÂÌÚ_5530-5" x1="2270.77" y1="1368.12" x2="2723.22" y2="1368.12" xlink:href="#_ÂÁ_Ï_ÌÌ_È_ËÂÌÚ_5530"/><linearGradient id="_ÂÁ_Ï_ÌÌ_È_ËÂÌÚ_5508-12" x1="2270.77" y1="1515.98" x2="2562.87" y2="1515.98" xlink:href="#_ÂÁ_Ï_ÌÌ_È_ËÂÌÚ_5508"/><linearGradient id="_ÂÁ_Ï_ÌÌ_È_ËÂÌÚ_54-5" x1="2270.77" y1="1663.84" x2="2461.93" y2="1663.84" xlink:href="#_ÂÁ_Ï_ÌÌ_È_ËÂÌÚ_54"/><linearGradient id="_ÂÁ_Ï_ÌÌ_È_ËÂÌÚ_5504-13" x1="2270.77" y1="1811.69" x2="2367.39" y2="1811.69" gradientTransform="matrix(1, 0, 0, 1, 0, 0)" xlink:href="#_ÂÁ_Ï_ÌÌ_È_ËÂÌÚ_5504"/><linearGradient id="_ÂÁ_Ï_ÌÌ_È_ËÂÌÚ_12-11" x1="2270.77" y1="1959.55" x2="2307.14" y2="1959.55" gradientTransform="matrix(1, 0, 0, 1, 0, 0)" xlink:href="#_ÂÁ_Ï_ÌÌ_È_ËÂÌÚ_12"/><linearGradient id="_ÂÁ_Ï_ÌÌ_È_ËÂÌÚ_2442-9" x1="2270.77" y1="2107.41" x2="2339.54" y2="2107.41" xlink:href="#_ÂÁ_Ï_ÌÌ_È_ËÂÌÚ_2442"/><linearGradient id="_ÂÁ_Ï_ÌÌ_È_ËÂÌÚ_98-2" x1="2270.77" y1="2255.27" x2="2421.71" y2="2255.27" gradientTransform="matrix(1, 0, 0, 1, 0, 0)" xlink:href="#_ÂÁ_Ï_ÌÌ_È_ËÂÌÚ_98"/><linearGradient id="_ÂÁ_Ï_ÌÌ_È_ËÂÌÚ_98-3" x1="2919.31" y1="423.87" x2="3433.69" y2="421.68" gradientTransform="matrix(1, 0, 0, 1, 0, 0)" xlink:href="#_ÂÁ_Ï_ÌÌ_È_ËÂÌÚ_98"/><linearGradient id="_ÂÁ_Ï_ÌÌ_È_ËÂÌÚ_54-6" x1="3568.35" y1="500.75" x2="3568.35" y2="638.78" xlink:href="#_ÂÁ_Ï_ÌÌ_È_ËÂÌÚ_54"/><linearGradient id="_ÂÁ_Ï_ÌÌ_È_ËÂÌÚ_5504-14" x1="1903.86" y1="1064.2" x2="1818.5" y2="1131.1" gradientTransform="matrix(1, 0, 0, 1, 0, 0)" xlink:href="#_ÂÁ_Ï_ÌÌ_È_ËÂÌÚ_5504"/><linearGradient id="_ÂÁ_Ï_ÌÌ_È_ËÂÌÚ_5504-15" x1="1931.98" y1="1160.46" x2="1681.67" y2="1316.18" gradientTransform="matrix(1, 0, 0, 1, 0, 0)" xlink:href="#_ÂÁ_Ï_ÌÌ_È_ËÂÌÚ_5504"/><linearGradient id="_ÂÁ_Ï_ÌÌ_È_ËÂÌÚ_5530-6" x1="1769.67" y1="940.09" x2="1577.42" y2="943.17" xlink:href="#_ÂÁ_Ï_ÌÌ_È_ËÂÌÚ_5530"/><linearGradient id="_ÂÁ_Ï_ÌÌ_È_ËÂÌÚ_37" x1="1709.98" y1="971.8" x2="1483.9" y2="938.35" gradientUnits="userSpaceOnUse"><stop offset="0" stop-color="#fcce79"/><stop offset="1" stop-color="#e3a76b"/></linearGradient><linearGradient id="_ÂÁ_Ï_ÌÌ_È_ËÂÌÚ_5530-7" x1="1561.15" y1="1001.45" x2="1469.64" y2="967.61" xlink:href="#_ÂÁ_Ï_ÌÌ_È_ËÂÌÚ_5530"/><linearGradient id="_ÂÁ_Ï_ÌÌ_È_ËÂÌÚ_5508-13" x1="1799.69" y1="986.28" x2="1979.53" y2="986.28" xlink:href="#_ÂÁ_Ï_ÌÌ_È_ËÂÌÚ_5508"/><linearGradient id="_ÂÁ_Ï_ÌÌ_È_ËÂÌÚ_37-2" x1="2914.44" y1="2130.42" x2="3089.77" y2="2110.81" xlink:href="#_ÂÁ_Ï_ÌÌ_È_ËÂÌÚ_37"/><linearGradient id="_ÂÁ_Ï_ÌÌ_È_ËÂÌÚ_5530-8" x1="3443.48" y1="2199.22" x2="3748.8" y2="2199.22" xlink:href="#_ÂÁ_Ï_ÌÌ_È_ËÂÌÚ_5530"/><linearGradient id="_ÂÁ_Ï_ÌÌ_È_ËÂÌÚ_5504-16" x1="3297.46" y1="1780.03" x2="3484.33" y2="1840.01" gradientTransform="matrix(1, 0, 0, 1, 0, 0)" xlink:href="#_ÂÁ_Ï_ÌÌ_È_ËÂÌÚ_5504"/><linearGradient id="_ÂÁ_Ï_ÌÌ_È_ËÂÌÚ_5504-17" x1="3416.78" y1="1866.82" x2="3626.72" y2="1841.44" gradientTransform="matrix(1, 0, 0, 1, 0, 0)" xlink:href="#_ÂÁ_Ï_ÌÌ_È_ËÂÌÚ_5504"/><linearGradient id="_ÂÁ_Ï_ÌÌ_È_ËÂÌÚ_5504-18" x1="3557.84" y1="1893.13" x2="3648.96" y2="1863.14" gradientTransform="matrix(1, 0, 0, 1, 0, 0)" xlink:href="#_ÂÁ_Ï_ÌÌ_È_ËÂÌÚ_5504"/><linearGradient id="_ÂÁ_Ï_ÌÌ_È_ËÂÌÚ_12-12" x1="3822.65" y1="889.79" x2="3404.65" y2="1403.79" gradientTransform="matrix(1, 0, 0, 1, 0, 0)" xlink:href="#_ÂÁ_Ï_ÌÌ_È_ËÂÌÚ_12"/><linearGradient id="_ÂÁ_Ï_ÌÌ_È_ËÂÌÚ_5508-14" x1="3342.29" y1="1189.61" x2="3793.43" y2="1189.61" xlink:href="#_ÂÁ_Ï_ÌÌ_È_ËÂÌÚ_5508"/></defs><path d="M4302.74,1872.61c-75.69-312.17-304.15-549.54-593.61-659.64a66.6,66.6,0,0,1-40.81-79.27q1.32-5,2.57-10.06c101.13-408-129.7-816.23-515.58-911.89-291.6-72.29-588.3,54.64-759.52,297C2306.65,635,2152.1,696.63,2000.71,665.68c-172.59-35.29-355.61-34.06-538.29,10.24C800.71,836.35,393.87,1500.85,553.72,2160.11s825.83,1063.65,1487.54,903.22a1237.93,1237.93,0,0,0,317.16-124.9c126.95-71.64,281.12-70.13,409.58,4.23,221.11,128,496,173.85,771.31,107.09C4086.4,2917.11,4428.2,2390.08,4302.74,1872.61Z" transform="translate(-471.33 -144.45)" fill="url(#_ÂÁ_Ï_ÌÌ_È_ËÂÌÚ_5462)"/><path d="M3327.39,2671.7c67.14-7.93,188.24-41.17,232.39-104.82,40.76-58.76-12.66-136.29,17.14-193.7s203.48-93.7,251.07-159.95c56.45-78.58-71.49-149.27-11.46-203S4078.87,1900,4097,1833.32s-62.52-67.94,10.16-190.21c61.55-103.54,144-239.33,72.15-300.41-76.54-65.1-174.51,40.31-226.58,123.74-67.07,107.48-128.41-11.37-202.56,37-67,43.71-67.92,297.66-119.37,346s-146.44,6.64-218.17,91.24,23,224.53-14.71,288.68-138.37,34.95-192.37,126S3327.39,2671.7,3327.39,2671.7Z" transform="translate(-471.33 -144.45)" fill="url(#_ÂÁ_Ï_ÌÌ_È_ËÂÌÚ_5514)"/><path d="M3960.17,2484.5c-6.6,162.23-340.42,154.79-347.82,184.94s159,51.65,105.45,124.7c-49.6,67.69-308.58,32.45-470.05-100.88-4.67-3.86-76.42-264,53.32-371.91s99.43,127.5,145.27,133.05,21.13-299.51,127-336c109.73-37.85,86.78,170.55,138.66,151.07,49.14-18.46,144.67-298.25,249.83-231.65a93.73,93.73,0,0,1,11.47,8.63l0,0h0c2,1.78,4.07,3.69,6.1,5.74,112,112.91-218,348.39-163.5,374.79S3963.52,2402.28,3960.17,2484.5Z" transform="translate(-471.33 -144.45)" fill="url(#_ÂÁ_Ï_ÌÌ_È_ËÂÌÚ_5563)"/><path d="M478.47,1792.29c-84,334.9,601.35,520.34,598.31,586.3s-355.31,9.79-290,191c60.49,167.87,609.92,251.65,1019.4,76.73,11.86-5.07,314.53-492.5,114.78-790.65S1641.49,2056,1544.64,2039.73s136.9-623.63-57.15-761.79c-201.08-143.15-279.52,295.72-373.62,224.8-89.14-67.19-115.86-695.3-370.39-622.65a197.75,197.75,0,0,0-28.57,10.72l-.11,0h0q-7.8,3.6-15.89,8c-296.32,163,235.27,841.65,108.26,862.74S521.05,1622.58,478.47,1792.29Z" transform="translate(-471.33 -144.45)" fill="url(#_ÂÁ_Ï_ÌÌ_È_ËÂÌÚ_5514-2)"/><rect x="946.6" y="1008.52" width="556.36" height="1205.65" transform="translate(-1009.2 472.12) rotate(-23.32)" fill="url(#_ÂÁ_Ï_ÌÌ_È_ËÂÌÚ_80)"/><path d="M1252,921.28,704.29,1157.43l493.22,1144,547.74-236.15Zm73.74,1281.13a116.83,116.83,0,0,0-153.56-61h0L803.29,1285.7h0a116.85,116.85,0,0,0,61-153.56l259.44-111.86a116.85,116.85,0,0,0,153.57,61L1646.26,1937a116.85,116.85,0,0,0-61,153.57Z" transform="translate(-471.33 -144.45)" fill="url(#_ÂÁ_Ï_ÌÌ_È_ËÂÌÚ_5563-2)"/><circle cx="1226.17" cy="1599.76" r="175.74" transform="translate(-1243.39 1191.14) rotate(-45)" fill="url(#_ÂÁ_Ï_ÌÌ_È_ËÂÌÚ_5563-3)"/><circle cx="1356.34" cy="1901.69" r="48.23" transform="translate(-1020.58 3108.08) rotate(-89.83)" fill="url(#_ÂÁ_Ï_ÌÌ_È_ËÂÌÚ_5563-4)"/><circle cx="624.67" cy="1153.37" r="48.23" fill="url(#_ÂÁ_Ï_ÌÌ_È_ËÂÌÚ_5563-5)"/><path d="M1336,1542.11l11.4,26.46-18.15,7.83q11.3,33.12,3.64,64.21l-42.78-16.15q4.25-20.73,2.36-32.77l-38.29,16.51q10.81,67.35-30.79,85.29-20.94,9-41.91-.27T1143,1655.75l-23.06,9.94-11.2-26,22.79-9.83-1.85-4.3q-6.33-14.67-7.89-37.24t4.5-38l41,15.38A89.55,89.55,0,0,0,1166,1615l44.52-19.19q-6.42-31.65,2.13-53.37t28.42-30.31q21.06-9.08,41.93-.59t35.12,38.25Zm-86.4,36.87,32.59-14q-10.62-13-22.15-8Q1247.56,1562.28,1249.58,1579ZM1214,1625.51l-34.44,14.85q10.52,14.92,24.16,9.05Q1216.2,1644,1214,1625.51Z" transform="translate(-471.33 -144.45)" fill="url(#_ÂÁ_Ï_ÌÌ_È_ËÂÌÚ_80-2)"/><rect x="878.22" y="1331.87" width="562.44" height="1218.84" transform="translate(-1496.11 1211.98) rotate(-44.16)" fill="url(#_ÂÁ_Ï_ÌÌ_È_ËÂÌÚ_80-3)"/><path d="M937,1279.51,504.44,1699.62l877.42,903.46L1814.44,2183Zm530.41,1183.91a118.12,118.12,0,0,0-167-2.45h0L644.1,1785.2h0a118.13,118.13,0,0,0,2.44-167l204.9-199a118.13,118.13,0,0,0,167,2.44l656.29,675.78a118.13,118.13,0,0,0-2.44,167Z" transform="translate(-471.33 -144.45)" fill="url(#_ÂÁ_Ï_ÌÌ_È_ËÂÌÚ_5563-6)"/><circle cx="685.27" cy="1785.39" r="177.67" fill="url(#_ÂÁ_Ï_ÌÌ_È_ËÂÌÚ_5563-7)"/><circle cx="1388.17" cy="2168.3" r="48.75" transform="translate(-1597.96 1472.21) rotate(-45)" fill="url(#_ÂÁ_Ï_ÌÌ_È_ËÂÌÚ_5563-8)"/><circle cx="925.02" cy="1691.39" r="48.75" transform="translate(-1276.26 696.2) rotate(-35.14)" fill="url(#_ÂÁ_Ï_ÌÌ_È_ËÂÌÚ_5563-9)"/><path d="M1239.61,1835.89l20.29,20.9-14.33,13.92q22.58,27.22,26.53,59.35l-46.23.14q-3.43-21.12-9.55-31.82l-30.24,29.37q34.44,59.74,1.58,91.66-16.53,16.06-39.69,14.82t-49.83-21.57l-18.2,17.68L1060,2009.82l18-17.47-3.3-3.4q-11.25-11.58-20.84-32.35t-9.44-37.56l44.31-.23a90.49,90.49,0,0,0,16.48,47.11l35.15-34.14q-17.43-27.58-17.18-51.19t16-38.86q16.63-16.15,39.41-15.64t46.94,23.52Zm-68.36,65.91,25.74-25q-14.73-8.46-23.83.38Q1163.33,1886.74,1171.25,1901.8Zm-16.88,56.74-27.2,26.42q15.3,10.33,26.09-.14Q1163.09,1975.27,1154.37,1958.54Z" transform="translate(-471.33 -144.45)" fill="url(#_ÂÁ_Ï_ÌÌ_È_ËÂÌÚ_80-4)"/><path d="M1503,2742.65s-129.06-574.32-294-907-340.65-442.34-340.65-442.34,83.1,149.1,135.86,346.49,66.38,405.29,148.8,598.5C1277.68,2630.61,1503,2742.65,1503,2742.65Z" transform="translate(-471.33 -144.45)" fill="url(#_ÂÁ_Ï_ÌÌ_È_ËÂÌÚ_5514-3)"/><path d="M1406.32,2724s-148.26-384.5-296.6-598-281.26-271.41-281.26-271.41,72.84,94.74,129.61,226,87.52,273.86,164.41,399.22C1238.79,2669.47,1406.32,2724,1406.32,2724Z" transform="translate(-471.33 -144.45)" fill="url(#_ÂÁ_Ï_ÌÌ_È_ËÂÌÚ_5514-4)"/><path d="M3863.14,2128.77l-815.29-.83a28.47,28.47,0,0,0-28.51,28.45l-.53,514.11a28.49,28.49,0,0,0,28.46,28.51l815.28.83a28.49,28.49,0,0,0,28.52-28.45l.52-514.11A28.48,28.48,0,0,0,3863.14,2128.77Z" transform="translate(-471.33 -144.45)" fill="url(#_ÂÁ_Ï_ÌÌ_È_ËÂÌÚ_5508)"/><rect x="3019.19" y="2240.06" width="872.25" height="127.77" transform="translate(6436.95 4466.96) rotate(-179.94)" fill="url(#_ÂÁ_Ï_ÌÌ_È_ËÂÌÚ_5504)"/><rect x="3592.84" y="2580.19" width="225.63" height="33.05" transform="translate(6937.34 5052.74) rotate(-179.94)" fill="url(#_ÂÁ_Ï_ÌÌ_È_ËÂÌÚ_13)"/><rect x="3091.56" y="2579.77" width="412.66" height="33.05" transform="translate(6121.81 5051.5) rotate(-179.94)" fill="url(#_ÂÁ_Ï_ÌÌ_È_ËÂÌÚ_13-2)"/><rect x="3091.68" y="2467.48" width="726.91" height="33.05" transform="translate(6436.4 4827.07) rotate(-179.94)" fill="url(#_ÂÁ_Ï_ÌÌ_È_ËÂÌÚ_13-3)"/><circle cx="3146.64" cy="307.06" r="162.6" transform="translate(233.18 2170.49) rotate(-45)" fill="url(#_ÂÁ_Ï_ÌÌ_È_ËÂÌÚ_12)"/><circle cx="2675.31" cy="162.6" r="140.39" fill="#fff"/><path d="M3270.52,287.46a1.44,1.44,0,0,0-1.52-.4h0a31.44,31.44,0,0,1-4.61,1.06c-.95.15-1.92.25-2.88.31l0-.08a13.56,13.56,0,0,0,.49-5.72,15.65,15.65,0,0,0-.6-2.75,12.12,12.12,0,0,0-1.2-2.7,9.17,9.17,0,0,0-2.07-2.34,7.91,7.91,0,0,0-2.89-1.43,8.13,8.13,0,0,0-3.18-.16,8.63,8.63,0,0,0-2.94,1,8.75,8.75,0,0,0-2.4,2,8.35,8.35,0,0,0-2,5.76,8.3,8.3,0,0,0,.17,1.5,8.48,8.48,0,0,0,.42,1.47,8.22,8.22,0,0,0,.68,1.4,7.94,7.94,0,0,0,.93,1.23,9.73,9.73,0,0,0,2.31,1.87,12.66,12.66,0,0,0,1.27.65c.43.19.86.35,1.3.5a18.15,18.15,0,0,0,2.64.65c.2,0,.41.06.62.09a17.23,17.23,0,0,1-2.73,2.27,23.61,23.61,0,0,1-4,2.13,30.26,30.26,0,0,1-5.55,1.72c-4-35.44-35.91-63-87.67-63a137.31,137.31,0,0,0-37.29,5.06c-7.23-7.07-16.84-11.32-25.67-13.1a2.83,2.83,0,0,0-3.15,3.84,60.74,60.74,0,0,1,4.18,16.34c.09.94.15,1.88.19,2.83-16.06,8.83-28.21,21-34.29,35.09h0L3048,287.22a5.38,5.38,0,0,0-4.11,5.24v35.21a5.39,5.39,0,0,0,5.14,5.39l14.28.66c7.22,11.48,18.66,21.35,32.93,28.64l8.28,23.73a4.86,4.86,0,0,0,4.59,3.26h14.09a4.86,4.86,0,0,0,4.75-3.86l2.49-11.85a140.61,140.61,0,0,0,24.69,2.16,130.58,130.58,0,0,0,20.48-1.56l2.37,11.25a4.86,4.86,0,0,0,4.76,3.86h14.09a4.86,4.86,0,0,0,4.59-3.26l8.25-23.68c21.65-12.84,33.56-33.72,33.56-57.29,0-1.09,0-2.17-.08-3.25.64-.14,1.28-.29,1.91-.46a34.22,34.22,0,0,0,5-1.75,28.21,28.21,0,0,0,4.67-2.61,20.38,20.38,0,0,0,4.07-3.71,14.85,14.85,0,0,0,1.24-1.75,35.62,35.62,0,0,0,4.84-.51,33.83,33.83,0,0,0,5-1.26A1.46,1.46,0,0,0,3270.52,287.46Zm-12.34-2.31a9,9,0,0,1-.42,2,10.08,10.08,0,0,1-.54,1.27c-.73-.07-1.45-.16-2.16-.3a14,14,0,0,1-2.16-.58c-.34-.12-.68-.25-1-.4a9,9,0,0,1-.92-.5,6.25,6.25,0,0,1-1.51-1.26,5,5,0,0,1-.93-1.59,4.79,4.79,0,0,1-.24-.92,5.2,5.2,0,0,1-.09-1,5,5,0,0,1,.3-1.81,4.69,4.69,0,0,1,.92-1.55,5.21,5.21,0,0,1,3.17-1.69,4.55,4.55,0,0,1,1.73.12,4.21,4.21,0,0,1,1.51.79,5.63,5.63,0,0,1,1.16,1.38,8,8,0,0,1,.43.88,9,9,0,0,1,.34,1c.05.16.09.34.13.52l.12.52c.06.35.12.7.16,1.05a9.16,9.16,0,0,1,.05,1A8.94,8.94,0,0,1,3258.18,285.15Z" transform="translate(-471.33 -144.45)" fill="url(#_ÂÁ_Ï_ÌÌ_È_ËÂÌÚ_2442)"/><path d="M3090.89,278.41a3.91,3.91,0,1,1-3.91-3.92A3.91,3.91,0,0,1,3090.89,278.41Z" transform="translate(-471.33 -144.45)" fill="url(#_ÂÁ_Ï_ÌÌ_È_ËÂÌÚ_54)"/><path d="M3184.14,242.94a314.35,314.35,0,0,0-47.54,0,.86.86,0,0,0-.88.81c.15,1.85.29,3.7.44,5.56a.84.84,0,0,0,1,.67,308.19,308.19,0,0,1,46.48,0,.84.84,0,0,0,1-.67c.15-1.86.3-3.71.44-5.56A.86.86,0,0,0,3184.14,242.94Z" transform="translate(-471.33 -144.45)" fill="url(#_ÂÁ_Ï_ÌÌ_È_ËÂÌÚ_54-2)"/><circle cx="2722.16" cy="633.43" r="190.33" fill="url(#_ÂÁ_Ï_ÌÌ_È_ËÂÌÚ_2442-2)"/><circle cx="2722.16" cy="633.43" r="164.32" fill="#fff"/><path d="M3186.8,688.66a43.61,43.61,0,0,1,3.22,4.64c1,1.55,1.78,3.13,2.56,4.71s1.47,3.19,2.11,4.81,1.22,3.27,1.74,4.94,1,3.35,1.4,5.07.74,3.47,1,5.28a43.61,43.61,0,0,1,.46,5.6,24.29,24.29,0,0,1-.67,6.21,15.74,15.74,0,0,1-1.27,3.42,12.86,12.86,0,0,1-2.43,3.32,12.72,12.72,0,0,1-3.49,2.4,14.41,14.41,0,0,1-3.66,1.11,21.48,21.48,0,0,1-6.46,0,37.23,37.23,0,0,1-5.55-1.26,61.59,61.59,0,0,1-9.81-4.06,80.8,80.8,0,0,1-8.95-5.32c-1.43-1-2.85-2-4.23-3.17a48.06,48.06,0,0,1-4.1-3.7,36.44,36.44,0,0,1-3.76-4.5,35.31,35.31,0,0,1-3-5.17,30.91,30.91,0,0,1-3.05-12,26.19,26.19,0,0,1,.53-6.61,23.35,23.35,0,0,1,4.39-9.64,22.76,22.76,0,0,1,5.37-5c.52-.32,1-.67,1.58-1l.81-.43.83-.39a23.57,23.57,0,0,1,6.89-1.88c.58-.08,1.15-.1,1.73-.14s1.15,0,1.71,0a24.53,24.53,0,0,1,3.34.29,26.89,26.89,0,0,1,6.24,1.66,33.6,33.6,0,0,1,5.56,2.79A36.2,36.2,0,0,1,3186.8,688.66Zm-11.16,9.55a20.92,20.92,0,0,0-5.59-4.25,16.53,16.53,0,0,0-6.1-1.84,11.4,11.4,0,0,0-2.75,0,8.27,8.27,0,0,0-2.29.62l-.26.1-.24.13a5.42,5.42,0,0,0-.48.26,7.9,7.9,0,0,0-.88.64,9.45,9.45,0,0,0-.79.76,8.05,8.05,0,0,0-.67.92,8.44,8.44,0,0,0-1,2.29,11.65,11.65,0,0,0-.44,2.86,17.4,17.4,0,0,0,1.08,6.52,22.06,22.06,0,0,0,3.55,6.29,33.68,33.68,0,0,0,2.71,3c1,1,2.06,2,3.16,2.88a57.13,57.13,0,0,0,7.05,5.09c1.24.75,2.49,1.46,3.77,2.09a35,35,0,0,0,3.82,1.65,23,23,0,0,0,3.72,1,10.3,10.3,0,0,0,3.05.15,4.74,4.74,0,0,0,.91-.23,1.45,1.45,0,0,0,.44-.27,1.77,1.77,0,0,0,.37-.53,4.49,4.49,0,0,0,.36-1.06,11.67,11.67,0,0,0,.15-3.27,23.28,23.28,0,0,0-.65-3.88,36.11,36.11,0,0,0-1.25-4c-.25-.67-.51-1.34-.79-2s-.57-1.32-.88-2c-.62-1.31-1.28-2.6-2-3.86s-1.44-2.5-2.21-3.71-1.57-2.35-2.39-3.45A35.93,35.93,0,0,0,3175.64,698.21Z" transform="translate(-471.33 -144.45)" fill="url(#_ÂÁ_Ï_ÌÌ_È_ËÂÌÚ_2442-3)"/><path d="M3240.58,719.56a42.19,42.19,0,0,1-3.82,4.12c-1.31,1.25-2.67,2.39-4.05,3.48s-2.81,2.08-4.27,3-2.94,1.85-4.46,2.69-3.07,1.64-4.65,2.38-3.22,1.42-4.9,2a44.48,44.48,0,0,1-5.28,1.59c-.93.2-1.88.38-2.87.5a21.26,21.26,0,0,1-3.13.15,15,15,0,0,1-3.41-.48,11.7,11.7,0,0,1-3.52-1.53,11.91,11.91,0,0,1-2.9-2.66,14,14,0,0,1-1.78-3.13,20.35,20.35,0,0,1-1.37-6,36.77,36.77,0,0,1,0-5.55,62.92,62.92,0,0,1,1.72-10.33A81.08,81.08,0,0,1,3195,700c.63-1.61,1.31-3.21,2.09-4.8a47.09,47.09,0,0,1,2.62-4.78,36.11,36.11,0,0,1,3.46-4.62,34.89,34.89,0,0,1,4.26-4.06,30.47,30.47,0,0,1,10.83-5.63,26.17,26.17,0,0,1,6.45-1,23.46,23.46,0,0,1,6.85.83,22.13,22.13,0,0,1,11.76,8,23.42,23.42,0,0,1,3.35,6.21c.21.54.35,1.09.52,1.63s.29,1.1.41,1.65a24.67,24.67,0,0,1,.47,3.28,29.35,29.35,0,0,1,.09,3.24,29.68,29.68,0,0,1-.28,3.16,32.48,32.48,0,0,1-1.47,6A35.87,35.87,0,0,1,3240.58,719.56Zm-11.43-8.51a21.29,21.29,0,0,0,2.91-6.47,17.48,17.48,0,0,0,.51-6.43,12,12,0,0,0-.62-2.74,8.57,8.57,0,0,0-1.12-2.2l-.17-.24-.18-.23c-.11-.16-.25-.28-.37-.43a8.71,8.71,0,0,0-.85-.76,9,9,0,0,0-1-.65,7.65,7.65,0,0,0-1.09-.48,8.81,8.81,0,0,0-2.57-.53,11.91,11.91,0,0,0-3,.18,17.9,17.9,0,0,0-6.33,2.49,23.27,23.27,0,0,0-5.56,4.93,36.33,36.33,0,0,0-2.4,3.35c-.76,1.2-1.48,2.46-2.17,3.75a57.3,57.3,0,0,0-3.5,8.08c-.48,1.39-.9,2.79-1.24,4.19a35.08,35.08,0,0,0-.8,4.19,22.75,22.75,0,0,0-.2,4,10.64,10.64,0,0,0,.58,3.27,5.11,5.11,0,0,0,.54,1,2.22,2.22,0,0,0,.58.57,2.83,2.83,0,0,0,.85.35,5.62,5.62,0,0,0,1.31.12,9,9,0,0,0,1.64-.18,14.43,14.43,0,0,0,1.8-.46,24.25,24.25,0,0,0,3.72-1.6,37.29,37.29,0,0,0,3.64-2.22c.6-.41,1.19-.83,1.77-1.27s1.15-.89,1.72-1.35q1.69-1.39,3.3-2.89c1.06-1,2.09-2,3.08-3.06s1.93-2.1,2.81-3.15S3228.48,712.07,3229.15,711.05Z" transform="translate(-471.33 -144.45)" fill="url(#_ÂÁ_Ï_ÌÌ_È_ËÂÌÚ_2442-4)"/><rect x="2644.31" y="588.5" width="155.71" height="141.26" fill="url(#_ÂÁ_Ï_ÌÌ_È_ËÂÌÚ_13-4)"/><rect x="2637.2" y="588.5" width="169.93" height="32.54" fill="url(#_ÂÁ_Ï_ÌÌ_È_ËÂÌÚ_5530)"/><rect x="3122.86" y="792.04" width="141.26" height="23.08" transform="translate(3525.74 -2534.36) rotate(90)" fill="url(#_ÂÁ_Ï_ÌÌ_È_ËÂÌÚ_2442-5)"/><circle cx="2091.08" cy="561.02" r="131.18" transform="translate(-255.56 1498.48) rotate(-45)" fill="url(#_ÂÁ_Ï_ÌÌ_È_ËÂÌÚ_54-3)"/><circle cx="2091.08" cy="561.02" r="113.25" transform="translate(-255.56 1498.48) rotate(-45)" fill="#fff"/><path d="M2164.36,536h0l.81,0a.49.49,0,0,0,0-.12,1.1,1.1,0,0,0,0-.16s0-.07,0-.09a.89.89,0,0,0,0-.15l0-.11,0-.15,0-.11s0-.06-.05-.12a.93.93,0,0,0,0-.1l-.05-.1-.7.39.68-.43,0-.09-.06-.08-.66.45.63-.5a.18.18,0,0,0-.05-.07.74.74,0,0,0-.09-.12l-.08-.09-.07-.07-.56.58.53-.61-.07-.07-.1-.08-.1-.08-.12-.09-.09-.06-.13-.07-.1-.05-.14-.06-.1,0-.15-.05-.11,0-.11,0h-.11l-124.14-17.1-7.27-10.11-.08-.1a3.89,3.89,0,0,0-3.15-1.62h-24.07a3.88,3.88,0,0,0,0,7.75h24.07a3.83,3.83,0,0,0,1-.12l5.63,7.82,18.79,70.52-5.33,24.08a2.64,2.64,0,0,0,2.58,3.21h19.66a5.77,5.77,0,1,0,5.56,0h56.68a5.77,5.77,0,1,0,5.56,0H2154a2.65,2.65,0,1,0,0-5.29h-15.87a2.65,2.65,0,0,0-5,0h-57.24a2.65,2.65,0,0,0-5,0h-16.64l4.3-19.41h96l.33,0,.07,0a2.79,2.79,0,0,0,.39-.1l.07,0,.37-.17.05,0a3,3,0,0,0,.32-.24l.05,0a4,4,0,0,0,.29-.29l0,0a1.88,1.88,0,0,0,.21-.31l0-.06a1.84,1.84,0,0,0,.17-.38l0-.06a2.54,2.54,0,0,0,.1-.37l8.06-54.41,0-.15a.2.2,0,0,1,0-.07.66.66,0,0,1,0-.13v-.1Zm-27.26,28.3-1.49,23.45h-11.33l-.34-24.46Zm1.83-28.86-1.48,23.37-13.59-1.05-.34-24.44Zm3.75,23.77,1.46-23,15.37,2.12-3.25,22Zm12.77,6.5-3.27,22h-11.31l1.46-23Zm-36.39,22h-11.31l-2.2-25.87,13.16,1Zm-18.78-26.28,2.24,26.28h-11.25l-4.1-27.28Zm2.6-31,15.4,2.12.35,24.76-13.55-1Zm-21.06,29.58,4.17,27.69h-11.15l-6.05-28.7Zm.41-32.43,15.35,2.12,2.23,26.17-13.48-1Zm-18.89,31,6.13,29.11h-11l-8-30.11Zm-1.77-33.85,15.26,2.1,4.15,27.58-13.37-1Zm.58,28.23-13.24-1-8-30.07,15.14,2.09Zm73.06,68.83a2.68,2.68,0,0,0,.8,0,1,1,0,0,1,.63,1,1,1,0,1,1-2.06,0A1,1,0,0,1,2135.21,621.89Zm-61.84,2a1,1,0,0,1-1-1,1,1,0,0,1,.63-1,2.68,2.68,0,0,0,.8,0,1,1,0,0,1,.63,1A1,1,0,0,1,2073.37,623.87Zm90.83-88.55Zm-.56-.72Z" transform="translate(-471.33 -144.45)" fill="url(#_ÂÁ_Ï_ÌÌ_È_ËÂÌÚ_5504-2)"/><circle cx="2653.31" cy="494.22" r="230.28" transform="translate(-43.66 1876.47) rotate(-45)" fill="url(#_ÂÁ_Ï_ÌÌ_È_ËÂÌÚ_5530-2)"/><circle cx="2653.31" cy="494.22" r="198.82" transform="translate(-43.66 1876.47) rotate(-45)" fill="#fff"/><rect x="2247.39" y="237.74" width="26.78" height="50.15" rx="4.99" fill="url(#_ÂÁ_Ï_ÌÌ_È_ËÂÌÚ_5504-3)"/><path d="M2794.09,470.6,2657.92,345.13a6.8,6.8,0,0,0-9.22,0L2512.54,470.6a6.8,6.8,0,0,0,4.6,11.8h272.34A6.8,6.8,0,0,0,2794.09,470.6Z" transform="translate(-471.33 -144.45)" fill="url(#_ÂÁ_Ï_ÌÌ_È_ËÂÌÚ_5508-2)"/><circle cx="2627.33" cy="569.17" r="9.41" transform="translate(1173.33 2926.95) rotate(-80.78)" fill="url(#_ÂÁ_Ï_ÌÌ_È_ËÂÌÚ_5504-4)"/><path d="M2758.49,482.4V618.83a6.81,6.81,0,0,1-6.8,6.81h-51.8V514.91a12.06,12.06,0,0,0-12-12h-69.05a12.05,12.05,0,0,0-12.05,12V625.64h-51.8a6.81,6.81,0,0,1-6.8-6.81V482.4l23.68-22.32,81.5-76.82,81.49,76.82Z" transform="translate(-471.33 -144.45)" fill="url(#_ÂÁ_Ï_ÌÌ_È_ËÂÌÚ_5504-5)"/><path d="M2655.15,411.37h-3.68a24.74,24.74,0,0,0-24.74,24.74v18.27a8.51,8.51,0,0,0,8.52,8.52h36.12a8.51,8.51,0,0,0,8.52-8.52V436.11A24.74,24.74,0,0,0,2655.15,411.37Z" transform="translate(-471.33 -144.45)" fill="#fff"/><circle cx="2791.49" cy="1031.71" r="127.21" transform="translate(-383.24 2131.61) rotate(-45)" fill="url(#_ÂÁ_Ï_ÌÌ_È_ËÂÌÚ_5504-6)"/><circle cx="2791.49" cy="1031.71" r="109.83" transform="translate(-383.24 2131.61) rotate(-45)" fill="#fff"/><path d="M2741.12,1077.18v-74.46h100.73v74.46A110.89,110.89,0,0,1,2741.12,1077.18Z" transform="translate(-471.33 -144.45)" fill="url(#_ÂÁ_Ï_ÌÌ_È_ËÂÌÚ_5504-7)"/><polygon points="2320.16 884.71 2234.58 858.27 2320.16 831.83 2405.74 858.27 2320.16 884.71" fill="url(#_ÂÁ_Ï_ÌÌ_È_ËÂÌÚ_5508-3)"/><path d="M2836.27,1013.93l-44.42-12.5a1.35,1.35,0,0,0-1.68,1,1.41,1.41,0,0,0,1,1.61l42.65,12a1,1,0,0,1,.71,1v33.85a1.4,1.4,0,0,0,1.21,1.41,1.35,1.35,0,0,0,1.48-1.34v-35.69A1.34,1.34,0,0,0,2836.27,1013.93Z" transform="translate(-471.33 -144.45)" fill="url(#_ÂÁ_Ï_ÌÌ_È_ËÂÌÚ_12-2)"/><path d="M2832.89,1067.14a1,1,0,0,1-.3,0,1.28,1.28,0,0,1-1-1.41l1.44-11.25a1.34,1.34,0,0,1,1.32-1.2,1.29,1.29,0,0,1,1.24,1.45l-1.44,11.32A1.3,1.3,0,0,1,2832.89,1067.14Z" transform="translate(-471.33 -144.45)" fill="url(#_ÂÁ_Ï_ÌÌ_È_ËÂÌÚ_12-3)"/><path d="M2835.91,1067.48a1.31,1.31,0,0,1-1.29-1.32v-11.6a1.29,1.29,0,1,1,2.57,0v11.6A1.3,1.3,0,0,1,2835.91,1067.48Z" transform="translate(-471.33 -144.45)" fill="url(#_ÂÁ_Ï_ÌÌ_È_ËÂÌÚ_12-4)"/><path d="M2838.92,1067.14a1.28,1.28,0,0,1-1.27-1.13l-1.44-11.24a1.34,1.34,0,0,1,1-1.49,1.29,1.29,0,0,1,1.58,1.09l1.44,11.32a1.28,1.28,0,0,1-1,1.41A1,1,0,0,1,2838.92,1067.14Z" transform="translate(-471.33 -144.45)" fill="url(#_ÂÁ_Ï_ÌÌ_È_ËÂÌÚ_12-5)"/><path d="M2361.41,905.31h6.19a.34.34,0,0,1,.34.34v5.55a.28.28,0,0,1-.28.28h-6.3a.28.28,0,0,1-.28-.28v-5.55A.34.34,0,0,1,2361.41,905.31Z" fill="url(#_ÂÁ_Ï_ÌÌ_È_ËÂÌÚ_5508-4)"/><path d="M2795.21,1002.72c0,1.57-1.67,2.83-3.72,2.83s-3.72-1.26-3.72-2.83,1.66-2.83,3.72-2.83S2795.21,1001.16,2795.21,1002.72Z" transform="translate(-471.33 -144.45)" fill="url(#_ÂÁ_Ï_ÌÌ_È_ËÂÌÚ_5504-8)"/><circle cx="2309.22" cy="942.21" r="169.78" transform="translate(-461.21 1764.38) rotate(-45)" fill="url(#_ÂÁ_Ï_ÌÌ_È_ËÂÌÚ_5508-5)"/><circle cx="1837.89" cy="797.75" r="146.58" fill="#fff"/><path d="M2434.31,958.46a5.86,5.86,0,0,0-4.59-5.72h0V941.12a13.14,13.14,0,0,0-.13-1.89,14.31,14.31,0,0,0-14.22-12.46h-16.71l-3.49-14.6a46.19,46.19,0,0,0-44.91-35.42h-43.69A60.72,60.72,0,0,0,2256,903.81l-14.95,22.44a1.15,1.15,0,0,1-1,.52h-14.72c-10.72,0-20.36,2.57-27.06,8.16a26.09,26.09,0,0,0-4.1,4.3A27.52,27.52,0,0,0,2189,952.5l0,.19-.29,0a5.86,5.86,0,0,0-4.6,5.72v6.84a2.11,2.11,0,0,0,0,.25,2.83,2.83,0,0,0,0,.29v5.65a7.05,7.05,0,0,0,7.05,7h26.28a1.19,1.19,0,0,0,1.17-1,17,17,0,0,1,33.68,0,1.19,1.19,0,0,0,1.16,1h116a1.19,1.19,0,0,0,1.16-1,17,17,0,0,1,33.68,0,1.19,1.19,0,0,0,1.16,1h21.79a7,7,0,0,0,7-7v-13Z" transform="translate(-471.33 -144.45)" fill="url(#_ÂÁ_Ï_ÌÌ_È_ËÂÌÚ_5508-6)"/><circle cx="2235.48" cy="979.68" r="16.13" transform="translate(-509.31 1723.21) rotate(-45)" fill="url(#_ÂÁ_Ï_ÌÌ_È_ËÂÌÚ_5504-9)"/><circle cx="2235.48" cy="979.68" r="8.52" transform="translate(-509.31 1723.21) rotate(-45)" fill="url(#_ÂÁ_Ï_ÌÌ_È_ËÂÌÚ_5508-7)"/><circle cx="2387.61" cy="979.68" r="16.13" transform="translate(414.24 2933.88) rotate(-76.72)" fill="url(#_ÂÁ_Ï_ÌÌ_È_ËÂÌÚ_5504-10)"/><circle cx="2387.61" cy="979.68" r="8.52" transform="translate(414.24 2933.88) rotate(-76.72)" fill="url(#_ÂÁ_Ï_ÌÌ_È_ËÂÌÚ_5508-8)"/><path d="M2213.49,945v2a5.76,5.76,0,0,1-5.76,5.76h-17.22a4.49,4.49,0,0,1-1.47-.24c.13-1,.29-1.93.5-2.85a27,27,0,0,1,2.71-7.33,24.62,24.62,0,0,1,1.62-2.6,1.19,1.19,0,0,1,1-.49h12.89A5.76,5.76,0,0,1,2213.49,945Z" transform="translate(-471.33 -144.45)" fill="url(#_ÂÁ_Ï_ÌÌ_È_ËÂÌÚ_12-6)"/><path d="M2429.74,952.74h-4.35a4.67,4.67,0,0,1-4.74-4.58v-4.35a4.67,4.67,0,0,1,4.74-4.58h4.2a13.14,13.14,0,0,1,.13,1.89v11.62Z" transform="translate(-471.33 -144.45)" fill="url(#_ÂÁ_Ï_ÌÌ_È_ËÂÌÚ_12-7)"/><path d="M2382.87,925.15l-2.49-10.4a34.23,34.23,0,0,0-33.29-26.25h-12.23a1.17,1.17,0,0,0-1.18,1.17v35.75a1.18,1.18,0,0,0,1.18,1.18h46.87A1.17,1.17,0,0,0,2382.87,925.15Z" transform="translate(-471.33 -144.45)" fill="url(#_ÂÁ_Ï_ÌÌ_È_ËÂÌÚ_12-8)"/><path d="M2309.66,888.5a52.34,52.34,0,0,0-43.55,23.31l-9.85,14.79h67.89V888.5Z" transform="translate(-471.33 -144.45)" fill="url(#_ÂÁ_Ï_ÌÌ_È_ËÂÌÚ_12-9)"/><rect x="784.23" y="1067.15" width="2254.8" height="1618.67" rx="148.01" fill="url(#_ÂÁ_Ï_ÌÌ_È_ËÂÌÚ_5508-9)"/><path d="M3420,1422.59v1208a134.6,134.6,0,0,1-3.63,31.11c-14.15,59.66-68.12,104.06-132.54,104.06H1482.06c-75.21,0-136.15-60.51-136.15-135.17V1422.59c0-74.66,60.94-135.18,136.15-135.18H3283.85C3359,1287.41,3420,1347.93,3420,1422.59Z" transform="translate(-471.33 -144.45)" fill="#fff"/><path d="M999.44,2636.6v45.67c0,81.74,81.32,148,181.64,148H3584.84c100.32,0,181.64-66.27,181.64-148V2636.6Z" transform="translate(-471.33 -144.45)" fill="url(#_ÂÁ_Ï_ÌÌ_È_ËÂÌÚ_5508-10)"/><path d="M2051.29,2636.6v16.45c0,29.43,19.5,53.3,43.55,53.3h576.24c24.05,0,43.55-23.87,43.55-53.3V2636.6Z" transform="translate(-471.33 -144.45)" fill="url(#_ÂÁ_Ï_ÌÌ_È_ËÂÌÚ_5504-11)"/><path d="M2492.24,1574.16c-98.77-115.55-235.41-187.17-386.09-202.73l-26,331.58c133.15,18.19,230.55,137.39,219.93,273.07a255,255,0,0,1-108.62,189.68l173.78,283.33c148-96.3,251.35-257.82,266.17-447.06C2643.7,1845.47,2594.27,1693.51,2492.24,1574.16Z" transform="translate(-471.33 -144.45)" fill="url(#_ÂÁ_Ï_ÌÌ_È_ËÂÌÚ_5530-3)"/><path d="M2050.38,1700.68l26-331.56q-15.78-.84-31.39-.86c-2,0-4,0-6,0l-1.59,0c-2.19,0-4.37.07-6.56.12h-.14q-6.9.16-13.77.5l-.35,0c-224.23,10.85-419.82,149.4-508.5,348.69l307.31,127.14C1857.78,1757.14,1948.44,1698.59,2050.38,1700.68Z" transform="translate(-471.33 -144.45)" fill="url(#_ÂÁ_Ï_ÌÌ_È_ËÂÌÚ_57)"/><path d="M2050.38,1700.68l26-331.56q-15.78-.84-31.39-.86c-2,0-4,0-6,0l-1.59,0c-2.19,0-4.37.07-6.56.12h-.14q-6.9.16-13.77.5l-.35,0c-224.23,10.85-419.82,149.4-508.5,348.69l307.31,127.14C1857.78,1757.14,1948.44,1698.59,2050.38,1700.68Z" transform="translate(-471.33 -144.45)" fill="url(#_ÂÁ_Ï_ÌÌ_È_ËÂÌÚ_5508-11)"/><path d="M1835.76,2102.26l-283.55,173.92c.42.64.83,1.28,1.25,1.91l1.77,2.69,2.4,3.58,1.73,2.56c.87,1.28,1.76,2.55,2.64,3.83.53.75,1,1.5,1.57,2.24,1.1,1.58,2.22,3.15,3.34,4.72.32.43.63.88.94,1.31,1.44,2,2.9,4,4.36,6l1.23,1.64c1.07,1.43,2.14,2.87,3.23,4.29.55.73,1.1,1.45,1.66,2.17,1,1.24,1.91,2.49,2.87,3.72l1.82,2.32,2.81,3.54,1.89,2.35c.93,1.16,1.88,2.31,2.82,3.47l1.91,2.31q1.46,1.76,2.92,3.49l1.88,2.22q1.55,1.82,3.1,3.62c.58.67,1.16,1.35,1.75,2,1.19,1.37,2.4,2.73,3.61,4.09l1.3,1.48q2.51,2.79,5,5.56l.32.35q2.36,2.55,4.73,5.09l1.59,1.67c1.18,1.24,2.35,2.48,3.54,3.71l1.92,2q1.63,1.68,3.29,3.35l2.06,2.07q1.61,1.62,3.22,3.21l2.13,2.09,3.25,3.15,2.13,2,3.37,3.19,2.05,1.92c1.22,1.14,2.45,2.26,3.69,3.39l1.79,1.64q2.38,2.18,4.82,4.32l.71.63q2.79,2.47,5.61,4.9l1.59,1.36c1.35,1.15,2.69,2.3,4.05,3.44l2.14,1.78,3.56,2.95,2.35,1.91,3.43,2.76,2.44,1.94,3.41,2.66c.82.65,1.65,1.29,2.48,1.93l3.47,2.64,2.43,1.84c1.22.92,2.45,1.82,3.67,2.72l.27.2c.16.11.33.21.49.33l.43.31c.92.67,1.84,1.35,2.76,2l.34.28,2.21,1.6,1.78,1.28.24.16,103.51-154.5L1891,2159.75A256.72,256.72,0,0,1,1835.76,2102.26Z" transform="translate(-471.33 -144.45)" fill="url(#_ÂÁ_Ï_ÌÌ_È_ËÂÌÚ_57-2)"/><path d="M1835.76,2102.26l-283.55,173.92c.42.64.83,1.28,1.25,1.91l1.77,2.69,2.4,3.58,1.73,2.56c.87,1.28,1.76,2.55,2.64,3.83.53.75,1,1.5,1.57,2.24,1.1,1.58,2.22,3.15,3.34,4.72.32.43.63.88.94,1.31,1.44,2,2.9,4,4.36,6l1.23,1.64c1.07,1.43,2.14,2.87,3.23,4.29.55.73,1.1,1.45,1.66,2.17,1,1.24,1.91,2.49,2.87,3.72l1.82,2.32,2.81,3.54,1.89,2.35c.93,1.16,1.88,2.31,2.82,3.47l1.91,2.31q1.46,1.76,2.92,3.49l1.88,2.22q1.55,1.82,3.1,3.62c.58.67,1.16,1.35,1.75,2,1.19,1.37,2.4,2.73,3.61,4.09l1.3,1.48q2.51,2.79,5,5.56l.32.35q2.36,2.55,4.73,5.09l1.59,1.67c1.18,1.24,2.35,2.48,3.54,3.71l1.92,2q1.63,1.68,3.29,3.35l2.06,2.07q1.61,1.62,3.22,3.21l2.13,2.09,3.25,3.15,2.13,2,3.37,3.19,2.05,1.92c1.22,1.14,2.45,2.26,3.69,3.39l1.79,1.64q2.38,2.18,4.82,4.32l.71.63q2.79,2.47,5.61,4.9l1.59,1.36c1.35,1.15,2.69,2.3,4.05,3.44l2.14,1.78,3.56,2.95,2.35,1.91,3.43,2.76,2.44,1.94,3.41,2.66c.82.65,1.65,1.29,2.48,1.93l3.47,2.64,2.43,1.84c1.22.92,2.45,1.82,3.67,2.72l.27.2c.16.11.33.21.49.33l.43.31c.92.67,1.84,1.35,2.76,2l.34.28,2.21,1.6,1.78,1.28.24.16,103.51-154.5L1891,2159.75A256.72,256.72,0,0,1,1835.76,2102.26Z" transform="translate(-471.33 -144.45)" fill="url(#_ÂÁ_Ï_ÌÌ_È_ËÂÌÚ_5504-12)"/><path d="M1644.37,2426.08c.25.22.51.43.77.64l.15.12.49.37-2.14-1.81C1643.88,2425.63,1644.11,2425.86,1644.37,2426.08Z" transform="translate(-471.33 -144.45)" fill="#fff"/><path d="M1662.88,2441.29l.23.18c.17.14.36.26.54.39l-1.12-.88Z" transform="translate(-471.33 -144.45)" fill="#fff"/><path d="M1698.48,2430.76l-.43-.31c-.16-.12-.33-.22-.49-.33l2,1.49,2,1.44-.34-.28C1700.32,2432.11,1699.4,2431.43,1698.48,2430.76Z" transform="translate(-471.33 -144.45)" fill="#fff"/><path d="M1812.6,2330.43l-82,122.32q22.41,14.22,46,26.38l2.86,1.45c1.84.94,3.7,1.86,5.55,2.78l4.84,2.36,3.21,1.54c2.22,1,4.44,2.1,6.67,3.12l.5.23c2.17,1,4.36,2,6.54,2.93L1934,2186.19q-9.35-4.53-18.23-9.77Z" transform="translate(-471.33 -144.45)" fill="url(#_ÂÁ_Ï_ÌÌ_È_ËÂÌÚ_57-3)"/><path d="M1812.6,2330.43l-82,122.32q22.41,14.22,46,26.38l2.86,1.45c1.84.94,3.7,1.86,5.55,2.78l4.84,2.36,3.21,1.54c2.22,1,4.44,2.1,6.67,3.12l.5.23c2.17,1,4.36,2,6.54,2.93L1934,2186.19q-9.35-4.53-18.23-9.77Z" transform="translate(-471.33 -144.45)" fill="url(#_ÂÁ_Ï_ÌÌ_È_ËÂÌÚ_12-10)"/><path d="M1790.64,1936.2a255.54,255.54,0,0,1,13.27-63.78l-307.34-127.16q-10,26.06-17.62,53.31l-.13.46q-1.54,5.58-3,11.2c-.25,1-.5,1.92-.74,2.88q-.63,2.55-1.25,5.1c-.37,1.53-.72,3.07-1.08,4.61q-.75,3.2-1.45,6.4-.57,2.61-1.13,5.23c-.27,1.28-.54,2.57-.8,3.86-.53,2.59-1.05,5.19-1.54,7.79-.18.94-.34,1.87-.52,2.81q-.63,3.42-1.22,6.86c-.18,1-.35,2-.52,3-.49,2.93-1,5.87-1.41,8.81-.08.48-.14,1-.22,1.46q-.59,4-1.13,8c-.11.86-.23,1.73-.34,2.59-.4,3.07-.79,6.16-1.14,9.24,0,.22,0,.44-.08.66q-.49,4.41-.93,8.83c-.07.8-.15,1.6-.23,2.4-.3,3.15-.58,6.31-.82,9.47q-.4,5.1-.7,10.2c0,.46-.07.93-.1,1.39a585.47,585.47,0,0,0,78.09,328.83l283.51-173.9A254.24,254.24,0,0,1,1790.64,1936.2Z" transform="translate(-471.33 -144.45)" fill="url(#_ÂÁ_Ï_ÌÌ_È_ËÂÌÚ_57-4)"/><path d="M1790.64,1936.2a255.54,255.54,0,0,1,13.27-63.78l-307.34-127.16q-10,26.06-17.62,53.31l-.13.46q-1.54,5.58-3,11.2c-.25,1-.5,1.92-.74,2.88q-.63,2.55-1.25,5.1c-.37,1.53-.72,3.07-1.08,4.61q-.75,3.2-1.45,6.4-.57,2.61-1.13,5.23c-.27,1.28-.54,2.57-.8,3.86-.53,2.59-1.05,5.19-1.54,7.79-.18.94-.34,1.87-.52,2.81q-.63,3.42-1.22,6.86c-.18,1-.35,2-.52,3-.49,2.93-1,5.87-1.41,8.81-.08.48-.14,1-.22,1.46q-.59,4-1.13,8c-.11.86-.23,1.73-.34,2.59-.4,3.07-.79,6.16-1.14,9.24,0,.22,0,.44-.08.66q-.49,4.41-.93,8.83c-.07.8-.15,1.6-.23,2.4-.3,3.15-.58,6.31-.82,9.47q-.4,5.1-.7,10.2c0,.46-.07.93-.1,1.39a585.47,585.47,0,0,0,78.09,328.83l283.51-173.9A254.24,254.24,0,0,1,1790.64,1936.2Z" transform="translate(-471.33 -144.45)" fill="url(#_ÂÁ_Ï_ÌÌ_È_ËÂÌÚ_54-4)"/><path d="M2040.38,2211.61l-26,331.57c1.57.09,3.13.16,4.69.23l4.75.21c2.31.09,4.6.14,6.9.2,1.4,0,2.8.09,4.2.11,2.76.05,5.52.07,8.27.08l2.86,0h1.19c2.74,0,5.49,0,8.23-.08l2.68,0c3-.06,6-.14,9-.25l2-.08q3.61-.15,7.21-.33l3.39-.18q3.73-.22,7.47-.48l4.34-.33,5.28-.43c1.52-.14,3-.27,4.56-.42l4.26-.42c2.91-.3,5.8-.62,8.7-1l2.52-.3a584.88,584.88,0,0,0,222.95-75L2166,2181.42A254.13,254.13,0,0,1,2040.38,2211.61Z" transform="translate(-471.33 -144.45)" fill="url(#_ÂÁ_Ï_ÌÌ_È_ËÂÌÚ_57-5)"/><path d="M2040.38,2211.61l-26,331.57c1.57.09,3.13.16,4.69.23l4.75.21c2.31.09,4.6.14,6.9.2,1.4,0,2.8.09,4.2.11,2.76.05,5.52.07,8.27.08l2.86,0h1.19c2.74,0,5.49,0,8.23-.08l2.68,0c3-.06,6-.14,9-.25l2-.08q3.61-.15,7.21-.33l3.39-.18q3.73-.22,7.47-.48l4.34-.33,5.28-.43c1.52-.14,3-.27,4.56-.42l4.26-.42c2.91-.3,5.8-.62,8.7-1l2.52-.3a584.88,584.88,0,0,0,222.95-75L2166,2181.42A254.13,254.13,0,0,1,2040.38,2211.61Z" transform="translate(-471.33 -144.45)" fill="url(#_ÂÁ_Ï_ÌÌ_È_ËÂÌÚ_98)"/><path d="M1834.5,2505a589.92,589.92,0,0,0,126.53,33l1.4.21c2.38.33,4.75.65,7.13,1l2.88.37,5.9.7,4.06.46,2.21.22,26-331.58a254.49,254.49,0,0,1-48.91-11.66Z" transform="translate(-471.33 -144.45)" fill="url(#_ÂÁ_Ï_ÌÌ_È_ËÂÌÚ_57-6)"/><path d="M1834.5,2505a589.92,589.92,0,0,0,126.53,33l1.4.21c2.38.33,4.75.65,7.13,1l2.88.37,5.9.7,4.06.46,2.21.22,26-331.58a254.49,254.49,0,0,1-48.91-11.66Z" transform="translate(-471.33 -144.45)" fill="url(#_ÂÁ_Ï_ÌÌ_È_ËÂÌÚ_2442-6)"/><circle cx="1574.05" cy="1811.69" r="209.16" fill="url(#_ÂÁ_Ï_ÌÌ_È_ËÂÌÚ_2442-7)"/><circle cx="2045.38" cy="1956.14" r="183.96" transform="translate(-1255.45 1874.79) rotate(-45)" fill="url(#_ÂÁ_Ï_ÌÌ_È_ËÂÌÚ_5530-4)"/><path d="M2034.12,1809h34.29v23.53q41.52,3.26,71.89,26.27l-37.8,39.15q-20.65-14.42-34.71-18v49.63q78.71,19.93,78.71,73.85,0,27.14-20,45.68t-59.08,24.38v29.88h-33.67v-29.53h-5.58q-19,0-44.41-8.93T1944.26,2042l36.15-37.61a106.47,106.47,0,0,0,53.3,24.73v-57.7q-37.61-7.9-57.33-27.48t-19.73-45.34q0-27.3,19.11-46.11t58.36-20.35Zm-.41,111.79v-42.24Q2014.5,1884,2014.5,1899,2014.5,1915.1,2033.71,1920.76Zm34.08,60.8v44.64q21.28-4.46,21.28-22.15Q2089.07,1987.93,2067.79,1981.56Z" transform="translate(-471.33 -144.45)" fill="url(#_ÂÁ_Ï_ÌÌ_È_ËÂÌÚ_2442-8)"/><rect x="2270.77" y="1340.22" width="537.22" height="55.81" rx="2.8" fill="url(#_ÂÁ_Ï_ÌÌ_È_ËÂÌÚ_80-5)"/><rect x="2270.77" y="1488.07" width="537.22" height="55.81" rx="2.8" fill="url(#_ÂÁ_Ï_ÌÌ_È_ËÂÌÚ_80-6)"/><rect x="2270.77" y="1635.93" width="537.22" height="55.81" rx="2.8" fill="url(#_ÂÁ_Ï_ÌÌ_È_ËÂÌÚ_80-7)"/><rect x="2270.77" y="1783.79" width="537.22" height="55.81" rx="2.8" fill="url(#_ÂÁ_Ï_ÌÌ_È_ËÂÌÚ_80-8)"/><rect x="2270.77" y="1931.65" width="537.22" height="55.81" rx="2.8" fill="url(#_ÂÁ_Ï_ÌÌ_È_ËÂÌÚ_80-9)"/><rect x="2270.77" y="2079.51" width="537.22" height="55.81" rx="2.8" fill="url(#_ÂÁ_Ï_ÌÌ_È_ËÂÌÚ_80-10)"/><rect x="2270.77" y="2227.37" width="537.22" height="55.81" rx="2.8" fill="url(#_ÂÁ_Ï_ÌÌ_È_ËÂÌÚ_80-11)"/><rect x="2270.77" y="1340.22" width="452.46" height="55.81" rx="2.8" fill="url(#_ÂÁ_Ï_ÌÌ_È_ËÂÌÚ_5530-5)"/><rect x="2270.77" y="1488.07" width="292.1" height="55.81" rx="2.8" fill="url(#_ÂÁ_Ï_ÌÌ_È_ËÂÌÚ_5508-12)"/><rect x="2270.77" y="1635.93" width="191.17" height="55.81" rx="2.8" fill="url(#_ÂÁ_Ï_ÌÌ_È_ËÂÌÚ_54-5)"/><rect x="2270.77" y="1783.79" width="96.63" height="55.81" rx="2.8" fill="url(#_ÂÁ_Ï_ÌÌ_È_ËÂÌÚ_5504-13)"/><rect x="2270.77" y="1931.65" width="36.37" height="55.81" rx="1.83" fill="url(#_ÂÁ_Ï_ÌÌ_È_ËÂÌÚ_12-11)"/><rect x="2270.77" y="2079.51" width="68.77" height="55.81" rx="2.8" fill="url(#_ÂÁ_Ï_ÌÌ_È_ËÂÌÚ_2442-9)"/><rect x="2270.77" y="2227.37" width="150.94" height="55.81" rx="2.8" fill="url(#_ÂÁ_Ï_ÌÌ_È_ËÂÌÚ_98-2)"/><circle cx="3097.03" cy="423.11" r="124.08" fill="url(#_ÂÁ_Ï_ÌÌ_È_ËÂÌÚ_98-3)"/><circle cx="3097.03" cy="423.11" r="107.12" fill="#fff"/><path d="M3612.75,518.78c-.37-.15-.75-.28-1.13-.42h0c-17.47-6-36.32,7.12-43.27,24.87-6.95-17.75-25.79-30.91-43.26-24.87h0l-1.14.42c-21.23,8.21-28.69,36.25-15.25,55.59,14.92,21.46,59.65,60,59.65,60s44.74-38.53,59.65-60C3641.44,555,3634,527,3612.75,518.78Z" transform="translate(-471.33 -144.45)" fill="url(#_ÂÁ_Ï_ÌÌ_È_ËÂÌÚ_54-6)"/><polygon points="1143.94 661.36 1089.98 646.52 1118.37 543.29 1151.35 552.36 1143.94 661.36" fill="#efbc90"/><path d="M1697.88,661.3c-2.54,44.88-21,85.75-49.16,88-26.38,2.09-61.7-32.35-69.23-79.48-7.92-49.62,10.93-79.88,49.84-82.38C1670.65,584.76,1700.66,612.1,1697.88,661.3Z" transform="translate(-471.33 -144.45)" fill="#f4caab"/><path d="M1625.18,659.66c8.68-16.38,25.87-20.65,38.89-22.11s34.14,4.34,36.72-5-2.76-44.18-56-53.26c-48.22-8.21-78.36,18.83-90.39,53.37-10.52,30.23,7.21,65,31.29,60.29S1614.68,679.48,1625.18,659.66Z" transform="translate(-471.33 -144.45)" fill="#3d4166"/><path d="M1622.68,674.1c1.15,8-3.3,15.23-10,16.19s-13-4.72-14.13-12.7,3.29-15.23,9.94-16.19S1621.52,666.12,1622.68,674.1Z" transform="translate(-471.33 -144.45)" fill="#f4caab"/><path d="M1642.64,533.33c8,20.56-3.17,53.1-28.69,63s-55.72-6.54-63.71-27.09,10.78-33.51,36.3-43.43S1634.65,512.78,1642.64,533.33Z" transform="translate(-471.33 -144.45)" fill="#3d4166"/><path d="M1873.9,1054.09c-.48,9.81-15.74,21.08-36.62,22.61-19.25,1.4-32-9.54-32.07-19.46C1805,1035.09,1874.64,1038.91,1873.9,1054.09Z" transform="translate(-471.33 -144.45)" fill="#efbc90"/><path d="M1896.37,1162.53l-3.88-.71-278.11-51.45-48.94-9-12.18,105.34L1603,1209l241.27,11.41L1746.59,1455l-4.65,11.18,20.36,10,6-10.52,148.07-260.14a29.87,29.87,0,0,0,3.32-9.09A29.1,29.1,0,0,0,1896.37,1162.53Z" transform="translate(-471.33 -144.45)" fill="#efbc90"/><path d="M1923.32,1177.08l-3.53-.65-308.55-56.81-48.92-9-12.72,104.61,49.66,3,287.9,17.24L1903,1532.62l.64,12.08,22.8.08.72-12.08,19.48-325.91A28.47,28.47,0,0,0,1923.32,1177.08Z" transform="translate(-471.33 -144.45)" fill="#efbc90"/><path d="M1650.94,1085.81c35.26,56.84,244.88,37.18,275.09,78.91,40.29,55.67-125.28,270.84-125.28,270.84l-55.1-30.77s84.41-152.2,81-163.12c-4.32-13.86-234.36,19-296.61-33.53-48.33-40.8-24.46-122.33-24.46-122.33Z" transform="translate(-471.33 -144.45)" fill="url(#_ÂÁ_Ï_ÌÌ_È_ËÂÌÚ_5504-14)"/><path d="M1634.53,1085.81c30.76,69.83,280.8,44,316.25,104.91,28.61,49.11-.77,298.45-.77,298.45l-66.15-1.8s.36-212.28-12.59-226.69c-9.52-10.59-275,13.87-341.22-33.52-56.71-40.58-24.46-141.35-24.46-141.35Z" transform="translate(-471.33 -144.45)" fill="url(#_ÂÁ_Ï_ÌÌ_È_ËÂÌÚ_5504-15)"/><path d="M1622.71,828.44l37.59,214.26-17.88-15.34,156.9,11.65,14.25,1.06-1.21,27.67-14.29-.19-157.31-2.07a18.35,18.35,0,0,1-17.66-14.35l-.22-1-47.19-212.36-5.21-23.41,48.09-9.55Z" transform="translate(-471.33 -144.45)" fill="#efbc90"/><path d="M1548.66,833.43c-3.71,51.28,29.45,184.51,81.75,230.33,31.06,27.21,134.48,8.94,134.48,8.94l5-40.37s-77.38,11.65-95-33.32-28.84-167.73-55-186.46C1596.86,796.06,1550.33,810.39,1548.66,833.43Z" transform="translate(-471.33 -144.45)" fill="url(#_ÂÁ_Ï_ÌÌ_È_ËÂÌÚ_5530-6)"/><path d="M1573.64,786s28.5,26.68,58.41,10.48c0,0,6.54,107.53,18.24,151.69s46.57,160.33,46.57,160.33l-213.32-7C1481,1003.49,1521.62,893.53,1573.64,786Z" transform="translate(-471.33 -144.45)" fill="#dbc6af"/><path d="M1563.78,776.86S1456.85,926,1472.31,1089.34c0,0-9.8,31.66,106,31.08s123-16.34,123-16.34c-33.78-88.48-59-188.2-69.26-307.61C1632.05,796.47,1588.74,796.65,1563.78,776.86Z" transform="translate(-471.33 -144.45)" fill="url(#_ÂÁ_Ï_ÌÌ_È_ËÂÌÚ_37)"/><path d="M1598.17,861.83c-15.61,24.43-30.84,50-44.91,75.51-7,12.82-13.8,25.73-20,38.73a343.61,343.61,0,0,0-16.23,38.87c-1,3.21-1.94,6.26-2.75,9.39l-2.43,10.37c-1.48,7-2.93,14.12-4.22,21.32-2.6,14.37-4.89,28.93-7,43.55-4.16,29.23-7.73,58.8-10.73,88.19l-1.45,14.21-27.68-1.91.64-14.27c1.35-30.13,3.24-60,5.77-90,1.31-15,2.8-30.06,4.66-45.18.92-7.56,2-15.17,3.18-22.81l2-11.57c.83-4.14,1.82-8.31,2.9-12.26a381.34,381.34,0,0,1,15.88-44.6c6-14.24,12.35-28.11,19-41.83,13.33-27.45,27.34-54,42.51-80.66L1569.11,816l42,25.64Z" transform="translate(-471.33 -144.45)" fill="#f4caab"/><path d="M1550,810.88c-38.33,34.26-63.08,114.81-81.7,181.81S1457.89,1163,1457.89,1163l42.06,3.72s7-104.5,25.6-149.09,96-140.58,90.18-172.22C1610.65,817.55,1567.26,795.49,1550,810.88Z" transform="translate(-471.33 -144.45)" fill="url(#_ÂÁ_Ï_ÌÌ_È_ËÂÌÚ_5530-7)"/><path d="M1460,1284.39c-9.54-2.36-16.53-25.23-12.4-54.11,3.81-26.62,18-42.14,27.81-40.56C1497.31,1193.26,1474.76,1288,1460,1284.39Z" transform="translate(-471.33 -144.45)" fill="#f4caab"/><path d="M1488.17,1247.62c4.27-.65,8.11-11.84,7.25-26.71-.79-13.7-6.52-22.37-10.88-22.13C1474.8,1199.34,1481.57,1248.63,1488.17,1247.62Z" transform="translate(-471.33 -144.45)" fill="#f4caab"/><path d="M2014.11,1557.22l-17.31-3.08h0l-63.31-24.51v.51s-.76,10.85-13.91,12.89c-9.69,1.51-16-1.07-18.61-2.54a3.05,3.05,0,0,0-1.43-.9c-4.23,0-7.66,6.91-7.66,15.44a28.44,28.44,0,0,0,1,7.68v11.85H2019v-12A5.38,5.38,0,0,0,2014.11,1557.22Z" transform="translate(-471.33 -144.45)" fill="#3d4166"/><path d="M1819.53,1540.36l-11.75-13.08h0L1773,1469l-.32.4s-7.28,8.08-18.9,1.6c-8.56-4.78-11.92-10.68-13.1-13.46a3.08,3.08,0,0,0-.57-1.6c-3.33-2.6-10.29.74-15.54,7.46a28.73,28.73,0,0,0-3.93,6.69l-7.29,9.33,99.39,77.62,7.38-9.46A5.37,5.37,0,0,0,1819.53,1540.36Z" transform="translate(-471.33 -144.45)" fill="#3d4166"/><path d="M1856.42,1036.53c-1.23-4.14-12.84-6.41-27.45-3.54-13.47,2.65-21.28,9.51-20.44,13.8C1810.41,1056.36,1858.32,1042.94,1856.42,1036.53Z" transform="translate(-471.33 -144.45)" fill="#efbc90"/><path d="M1972.78,913.83h0a9.66,9.66,0,0,0-12.13,6.3l-37.83,119.71H1809.36a9.67,9.67,0,1,0,0,19.34H1930a9.66,9.66,0,0,0,9.57-8.34L1979.08,926A9.66,9.66,0,0,0,1972.78,913.83Z" transform="translate(-471.33 -144.45)" fill="url(#_ÂÁ_Ï_ÌÌ_È_ËÂÌÚ_5508-13)"/><polygon points="1451.48 895.39 1457.48 895.39 1494.25 777.68 1488.69 777.68 1451.48 895.39" fill="#fff"/><polygon points="3029.34 1566.95 3083.98 1566.95 3083.98 1462.41 3050.59 1462.41 3029.34 1566.95" fill="#efbc90"/><path d="M3460.31,1554c-9.24,42.91-2.41,86.18,23.49,95.56,24.3,8.81,66.47-14.48,85.76-56.9,20.31-44.66,10.4-78-25.58-90.46C3505.76,1488.94,3470.43,1506.92,3460.31,1554Z" transform="translate(-471.33 -144.45)" fill="#f4caab"/><path d="M3536.53,1487c39.74,3.11,61.71,39.13,59.17,74.76-2.38,33.26-37.94,51-37.94,51s-11.73-33.76-31-39.14c-26.83-7.51-15.23-31.48-27.76-34.07-13.06-2.7-41.46-13.07-41-32.07C3476.44,1508.11,3491.9,1483.48,3536.53,1487Z" transform="translate(-471.33 -144.45)" fill="#3d4166"/><path d="M3532.59,1580.63c-3.22,7.18-1,15.18,5,17.86s13.45-1,16.67-8.15,1-15.18-5-17.86S3535.81,1573.44,3532.59,1580.63Z" transform="translate(-471.33 -144.45)" fill="#f4caab"/><path d="M3536.53,1573s-3,46.38-11.85,64c-7.71,15.34-41.38,31.18-59.72-5.22,0,0,18.56,3.87,16.46-4-2.47-9.25-21.58-9.35-21.58-9.35s-3.74-.18-4.41-3.62c-1-5.09,1.5-13.37,1.5-13.37s25.28,9,36.17,9c12.35,0,23.56-8.71,34-37.47Z" transform="translate(-471.33 -144.45)" fill="#3d4166"/><path d="M3376.92,2595.46l50.23-281,34.11-138.44,34.36-138.72,11.67-47.16,98.52,31.42L3588,2066.81l-51.9,131.68c-17.26,44-34.8,87.91-51.87,132l-84.38,270.52-3.52,11.28-21.48-5.24Z" transform="translate(-471.33 -144.45)" fill="#efbc90"/><path d="M3558.43,1991.33l3.92,48.43,22.23,274.33L3792,2411.32l10.71,5-7.83,20.43-11.32-3.42-237.87-71.9a26.13,26.13,0,0,1-18-19.53l-.84-4-60.5-284.16-10.12-47.52Z" transform="translate(-471.33 -144.45)" fill="#efbc90"/><polygon points="3148.93 1816.93 2964.78 1852.7 2907.21 2403.11 2968.98 2411.58 3148.93 1816.93" fill="url(#_ÂÁ_Ï_ÌÌ_È_ËÂÌÚ_37-2)"/><path d="M3629.28,1998.11l-185.8-26s28.49,344.59,84.07,388.54c30.92,24.44,202.75,65.59,202.75,65.59l18.5-52.76s-129.36-52.36-140.18-68.55C3596.85,2287.36,3629.28,1998.11,3629.28,1998.11Z" transform="translate(-471.33 -144.45)" fill="url(#_ÂÁ_Ï_ÌÌ_È_ËÂÌÚ_5530-8)"/><path d="M3496.87,1730.59l-121.78,174,22.15-6.18-143.62-54.52-13-5-10.37,25,12.72,5.74,140,63.16a17.92,17.92,0,0,0,21.55-5.39l.6-.79,129.49-168.37Z" transform="translate(-471.33 -144.45)" fill="#efbc90"/><path d="M3560.32,1765.6c-17.9,46.9-102.28,151.07-167.49,170-38.72,11.24-122.67-47.66-122.67-47.66l12.23-37.79s63.63,42.27,97.84,9.79,94.82-136.48,125.69-142.24C3533.12,1712.63,3568.37,1744.53,3560.32,1765.6Z" transform="translate(-471.33 -144.45)" fill="url(#_ÂÁ_Ï_ÌÌ_È_ËÂÌÚ_5504-16)"/><path d="M3551.57,1689.32s-28.66,25.13-57.33,8.38c0,0-9.81,104.72-22.63,147.45s-50.09,149.46-50.09,149.46l207.95,5.52C3635,1904.53,3598.91,1795.93,3551.57,1689.32Z" transform="translate(-471.33 -144.45)" fill="#dbc6af"/><path d="M3561.49,1680.73s99.6,149,79.32,307.86c0,0,8.56,31.21-104.46,27s-119.49-19.86-119.49-19.86c35.78-85.27,63.57-181.78,77.38-298C3494.24,1697.7,3536.49,1699.25,3561.49,1680.73Z" transform="translate(-471.33 -144.45)" fill="url(#_ÂÁ_Ï_ÌÌ_È_ËÂÌÚ_5504-17)"/><path d="M3529.05,1754.54c14.18,24.5,27.94,50.07,40.57,75.6,6.3,12.8,12.35,25.69,17.88,38.63a336.22,336.22,0,0,1,14.15,38.62c.89,3.17,1.63,6.19,2.28,9.28l1.93,10.21c1.14,6.94,2.25,13.91,3.2,21,1.92,14.13,3.53,28.43,5,42.78,2.79,28.69,5,57.69,6.67,86.49l.8,13.93,27.09-.68v-13.95c0-29.45-.58-58.65-1.76-88.09-.63-14.7-1.44-29.44-2.61-44.28-.56-7.41-1.31-14.88-2.12-22.38l-1.47-11.37c-.64-4.08-1.42-8.19-2.3-12.08a369.33,369.33,0,0,0-13.58-44.19c-5.19-14.15-10.83-28-16.7-41.62-11.83-27.35-24.35-53.82-38-80.51l-10.66-20.85-42.05,23.21Z" transform="translate(-471.33 -144.45)" fill="#f4caab"/><path d="M3578.2,1706.91c35.93,35.07,56.6,114.71,71.89,180.86s2.86,166.61,2.86,166.61l-41.19,1.82s-2.35-102.24-18.57-146.54-87.55-141.25-80.56-171.87C3518.78,1710.82,3562.07,1691.16,3578.2,1706.91Z" transform="translate(-471.33 -144.45)" fill="url(#_ÂÁ_Ï_ÌÌ_È_ËÂÌÚ_5504-18)"/><path d="M3178.07,1828.87c-3.17,9.05,7.74,25.35,27.83,35.1,18.53,9,35.18,4.22,39-4.7C3253.31,1839.35,3183,1814.87,3178.07,1828.87Z" transform="translate(-471.33 -144.45)" fill="#efbc90"/><path d="M3635.43,2172.38c9.56-.75,20-21.66,20.6-50.13.6-26.25-10.59-43.49-20.29-43.53C3614.09,2078.62,3620.63,2173.52,3635.43,2172.38Z" transform="translate(-471.33 -144.45)" fill="#f4caab"/><path d="M3614.19,2132.45c-4-1.32-5.91-12.71-2.7-26.89,3-13.07,9.86-20.51,14-19.57C3634.8,2088.08,3620.39,2134.48,3614.19,2132.45Z" transform="translate(-471.33 -144.45)" fill="#f4caab"/><path d="M3294.65,2626.28s14.2-3.76,18.13-5.17c15.71-5.65,56.38-22.31,56.38-22.31s5,8.08,17.56,9.65a33.2,33.2,0,0,0,16.33-2.19c4-.13,7.48,6.35,7.72,14.46a26.82,26.82,0,0,1-.75,7.33l.34,11.26-119.87,3.6-.34-11.41A5.1,5.1,0,0,1,3294.65,2626.28Z" transform="translate(-471.33 -144.45)" fill="#3d4166"/><path d="M3787.35,2520.49s.55-14.69.34-18.86c-.82-16.67-4.91-60.43-4.91-60.43s9.19-2.44,14.35-14a33.11,33.11,0,0,0,2.67-16.26c1-3.88,8.25-5.3,16.08-3.17a26.91,26.91,0,0,1,6.8,2.86l10.86,3-31.49,115.71-11-3A5.11,5.11,0,0,1,3787.35,2520.49Z" transform="translate(-471.33 -144.45)" fill="#3d4166"/><rect x="3203.22" y="1784.75" width="8.69" height="95" transform="translate(-928.9 1226.98) rotate(-22.57)" fill="#3d4166"/><path d="M3204.13,1818.13c2.8-3.16,14-.37,25.74,8.21,10.82,7.91,14.9,17.2,12.39,20.65C3236.64,1854.68,3199.8,1823,3204.13,1818.13Z" transform="translate(-471.33 -144.45)" fill="#efbc90"/><path d="M3817.48,1031.16c-57.29-63.9-394.22-67-460.42-28-100.62,59.3-28.74,304.9,17.53,332,12.93,7.58,30.77,15.65,51.43,24.48,17.51,34.32,42.63,69.86,78.23,95.87,0,0-15-39.85-9.41-69.34,81.11,28.2,178.86,52,245.52,43.8C3848.33,1416.76,3874.77,1095.06,3817.48,1031.16Z" transform="translate(-471.33 -144.45)" fill="url(#_ÂÁ_Ï_ÌÌ_È_ËÂÌÚ_12-12)"/><path d="M3571,1049.57h32.63V1072q39.51,3.12,68.41,25l-36,37.25q-19.65-13.71-33-17.15v47.22q74.89,19,74.89,70.27,0,25.82-19.06,43.47t-56.22,23.2v28.43h-32v-28.1h-5.31q-18.09,0-42.26-8.5t-37.55-21.73l34.4-35.79a101.34,101.34,0,0,0,50.72,23.53v-54.9q-35.79-7.52-54.55-26.15t-18.78-43.14q0-26,18.19-43.88t55.53-19.36Zm-.39,106.38v-40.2q-18.29,5.24-18.29,19.45Q3552.35,1150.55,3570.64,1156Zm32.43,57.85v42.48q20.25-4.24,20.25-21.08Q3623.32,1219.84,3603.07,1213.8Z" transform="translate(-471.33 -144.45)" fill="url(#_ÂÁ_Ï_ÌÌ_È_ËÂÌÚ_5508-14)"/></svg>