<svg id="Layer_1" data-name="Layer 1" xmlns="http://www.w3.org/2000/svg" viewBox="0 0 408.11 157.79"><defs><style>.cls-1,.cls-5{fill:#333;}.cls-1{fill-opacity:0;}.cls-2{fill:#5d87ff;}.cls-2,.cls-3{opacity:0.8;}.cls-2,.cls-3,.cls-4{isolation:isolate;}.cls-3{fill:#0fabf6;}.cls-4{fill:#184feb;opacity:0.5;}.cls-5{stroke:#333;stroke-linejoin:round;stroke-width:1.41px;}</style></defs><rect class="cls-1" y="13.8" width="133.67" height="123.24"/><path class="cls-2" d="M64.27,119.54,112.4,71.11,136.77,46.6a19.53,19.53,0,0,0,1.6-7.76c0-11.8-10.83-21.4-24.28-21.65H56A25,25,0,0,0,30.71,41.82h0v67.87A23.87,23.87,0,0,0,52,123.06,23.18,23.18,0,0,0,64.27,119.54Z" transform="translate(-4.7 -3.39)"/><path class="cls-3" d="M112.36,115.79V47.93A23.88,23.88,0,0,0,91.08,34.57a23.22,23.22,0,0,0-12.3,3.49L30.65,86.49,6.3,111.07a19.29,19.29,0,0,0-1.6,7.71c0,11.79,10.81,21.39,24.26,21.64H87.09A25,25,0,0,0,112.36,115.79Z" transform="translate(-4.7 -3.39)"/><path class="cls-4" d="M78.78,38.06,30.65,86.49v23.2a23.89,23.89,0,0,0,21.29,13.37,23.28,23.28,0,0,0,12.28-3.5l48.12-48.43V47.93A23.86,23.86,0,0,0,91.08,34.57,23.22,23.22,0,0,0,78.78,38.06Z" transform="translate(-4.7 -3.39)"/><path class="cls-5" d="M199.44,48.19h0a18.34,18.34,0,0,1-2.94,10.26,19.18,19.18,0,0,1-8.45,7,31.35,31.35,0,0,1-12.94,2.47h0a52.46,52.46,0,0,1-10.4-.87A38.5,38.5,0,0,1,156,64h0V49a49.45,49.45,0,0,0,10,3.83,36.74,36.74,0,0,0,9.51,1.39h0q3.74,0,5.48-1.29a4,4,0,0,0,1.74-3.35h0a3.6,3.6,0,0,0-.7-2.21,7.83,7.83,0,0,0-2.24-1.93,91.31,91.31,0,0,0-8.26-4h0a39,39,0,0,1-9.1-5.34,16.21,16.21,0,0,1-4.5-5.95,19.42,19.42,0,0,1-1.48-7.93h0q0-8.6,6.26-13.36t17.13-4.8h0a48.33,48.33,0,0,1,19.67,4.44h0l-5.16,12.94q-8.67-4-15-4h0a7.85,7.85,0,0,0-4.75,1.13A3.47,3.47,0,0,0,173,21.48h0a4.06,4.06,0,0,0,1.88,3.27q1.88,1.47,10.26,5.27h0q8,3.6,11.13,7.75A16.82,16.82,0,0,1,199.44,48.19ZM281.34,67H264.73V40.9q0-4.9-1.34-7.32a4.45,4.45,0,0,0-4.21-2.45h0a6,6,0,0,0-5.6,3.27c-1.19,2.18-1.79,5.59-1.79,10.21h0V67H235.16V40.9q0-4.9-1.28-7.32a4.3,4.3,0,0,0-4.11-2.45h0a6,6,0,0,0-5.7,3.48q-1.78,3.48-1.79,11.37h0V67H205.7V18.94h12.51l2.07,6h1a12.36,12.36,0,0,1,5.53-5.06,19,19,0,0,1,8.26-1.74h0q10.4,0,14.61,6.32H251a13.67,13.67,0,0,1,5.67-4.65,18.79,18.79,0,0,1,8-1.67h0q8.52,0,12.59,4.37t4.09,13.27h0Zm51.79,0H321.65l-3.2-6.38h-.33a18.93,18.93,0,0,1-6.85,5.69,22.5,22.5,0,0,1-9,1.53h0q-6.79,0-10.7-4.07t-3.91-11.46h0q0-7.69,5.37-11.43t15.48-4.24h0l8-.26v-.68q0-5.93-5.86-5.93h0q-5.26,0-13.36,3.56h0l-4.8-10.95q8.4-4.32,21.22-4.32h0q9.25,0,14.33,4.58t5.06,12.83h0ZM309.32,56.17h0a7.54,7.54,0,0,0,5.18-1.91,6.36,6.36,0,0,0,2.14-5h0V45.55l-3.84.17q-8.19.3-8.19,6.05h0Q304.61,56.17,309.32,56.17ZM371.11,18.1h0a26,26,0,0,1,4.12.32h0l.94.19-1.49,15.65a25.14,25.14,0,0,0-5.64-.49h0c-3.63,0-6.26.82-7.91,2.47s-2.45,4-2.45,7.15h0V67H342.07V18.94h12.36l2.58,7.7h.83a16.46,16.46,0,0,1,5.79-6.19A13.83,13.83,0,0,1,371.11,18.1Zm33,36.68h0a24.54,24.54,0,0,0,8-1.67h0V65.2a32.09,32.09,0,0,1-6.38,2.07,36.3,36.3,0,0,1-7.13.61h0q-8.35,0-12-4.09T382.85,51.2h0V31.39H377V24.64l7.39-5.23,4.28-10.09h10.87v9.62h11.79V31.39H399.58V50.1Q399.58,54.78,404.07,54.78Z" transform="translate(-4.7 -3.39)"/><path class="cls-5" d="M199.44,120.73h0A18.34,18.34,0,0,1,196.5,131a19.18,19.18,0,0,1-8.45,7,31.35,31.35,0,0,1-12.94,2.47h0a52.46,52.46,0,0,1-10.4-.87,38.5,38.5,0,0,1-8.75-3h0V121.58a49.45,49.45,0,0,0,10,3.83,36.74,36.74,0,0,0,9.51,1.39h0q3.74,0,5.48-1.29a4,4,0,0,0,1.74-3.34h0A3.61,3.61,0,0,0,182,120a7.83,7.83,0,0,0-2.24-1.93q-1.56-1-8.26-4h0a39,39,0,0,1-9.1-5.34,16.21,16.21,0,0,1-4.5-6,19.42,19.42,0,0,1-1.48-7.93h0q0-8.58,6.26-13.36t17.13-4.8h0a48.33,48.33,0,0,1,19.67,4.44h0L194.28,94q-8.67-4-15-4h0a7.85,7.85,0,0,0-4.75,1.13A3.48,3.48,0,0,0,173,94h0a4.09,4.09,0,0,0,1.88,3.28q1.88,1.45,10.26,5.27h0q8,3.6,11.13,7.74A16.82,16.82,0,0,1,199.44,120.73Zm35.13,19.69h0a15,15,0,0,1-12.29-5.55h-.75a61.6,61.6,0,0,1,.75,6.28h0v19.32H205.7v-69h13.5l2.33,6.12h.75a14.56,14.56,0,0,1,12.78-7h0a14.38,14.38,0,0,1,12.52,6.61q4.54,6.63,4.54,18.19h0q0,11.63-4.73,18.3A14.89,14.89,0,0,1,234.57,140.42ZM229,103.67h0q-3.65,0-5.11,2.61c-1,1.74-1.5,4.33-1.6,7.74h0v1.32q0,6.19,1.68,9a5.61,5.61,0,0,0,5.2,2.75h0a4.86,4.86,0,0,0,4.63-2.75q1.44-2.73,1.44-9.06h0c0-4.13-.48-7.09-1.44-8.9A5,5,0,0,0,229,103.67Zm53.48,36.75h0q-12,0-18.66-6.37t-6.65-18.19h0q0-12.19,6.16-18.71t17.58-6.51h0q10.86,0,16.77,5.67t5.93,16.3h0V120H273.93a8.2,8.2,0,0,0,2.94,6.33,11.5,11.5,0,0,0,7.58,2.31h0a36.09,36.09,0,0,0,8.05-.85,39.86,39.86,0,0,0,7.95-2.82h0V136.9a29.68,29.68,0,0,1-8.05,2.77A56.76,56.76,0,0,1,282.47,140.42Zm-1-38.49h0a6.9,6.9,0,0,0-4.89,1.84c-1.32,1.24-2.09,3.17-2.33,5.81h14.26a8.35,8.35,0,0,0-1.95-5.58A6.59,6.59,0,0,0,281.48,101.93Zm76.1,37.65H341V113.34q0-4.8-1.37-7.22a4.73,4.73,0,0,0-4.44-2.45h0a6.47,6.47,0,0,0-6.08,3.34q-1.84,3.38-1.85,11.51h0v21.06H310.64V91.48h12.52l2.07,6h1a13.13,13.13,0,0,1,5.86-5.11,20.91,20.91,0,0,1,8.66-1.69h0q8,0,12.4,4.63t4.45,13h0Zm23.88.84h0a14.47,14.47,0,0,1-9-2.91,18.71,18.71,0,0,1-5.93-8.64,37.9,37.9,0,0,1-2.11-13.27h0q0-11.71,4.73-18.35a15,15,0,0,1,12.94-6.61h0a14.8,14.8,0,0,1,7.06,1.62,15.68,15.68,0,0,1,5.55,5.41H395a78.89,78.89,0,0,1-.8-11.27h0V73.53h16.7v66.05H398.43l-3.56-6.07h-.63Q389.94,140.43,381.46,140.42Zm6.78-13.1h0c2.66,0,4.54-.84,5.62-2.52s1.69-4.23,1.77-7.72h0v-1.31q0-6.37-1.82-9.06a6.42,6.42,0,0,0-5.74-2.71h0a5.59,5.59,0,0,0-5.06,3.08c-1.2,2.06-1.81,5-1.81,8.78h0c0,3.73.61,6.57,1.81,8.52A5.84,5.84,0,0,0,388.24,127.32Z" transform="translate(-4.7 -3.39)"/></svg>